<svg width="451" height="300" viewBox="0 0 451 300" fill="none" xmlns="http://www.w3.org/2000/svg">
<path d="M198.484 75.4191C183.869 25.9307 117.971 9.99402 80.2038 46.9801C79.6636 47.5107 79.1137 48.051 78.5735 48.6008C24.4352 103.501 50.0476 238.789 163.003 273.113C275.958 307.436 393.563 244.78 400.133 188.799C406.702 132.818 354.6 115.222 273.701 130.918C227.994 139.716 207.591 106.231 198.484 75.4191Z" fill="#CADFF5"/>
<path d="M48.4167 176.682C39.2522 164.411 25.4379 166.871 22.3702 181.612C21.4055 186.435 21.5984 192.571 24.0584 200.143C33.4544 228.959 52.5167 236.927 62.2021 218.386C68.2025 206.954 57.4848 188.857 48.4167 176.682Z" fill="#CADFF5"/>
<path d="M404.3 191.365C403.741 202.305 413.6 208.643 423.005 203.144C426.112 201.33 429.083 198.253 431.398 193.237C440.235 174.136 432.44 159.878 416.928 163.601C407.397 165.897 404.85 180.512 404.3 191.365Z" fill="#CADFF5"/>
<path d="M33.1762 104.697C29.1534 110.929 21.2333 110.486 18.2332 103.733C17.0973 100.953 16.8545 97.888 17.5386 94.9638C20.2397 80.9758 30.1663 76.2199 37.1989 84.3522C41.54 89.4651 37.1603 98.5042 33.1762 104.697Z" fill="#CADFF5"/>
<path d="M252.035 64.7787L253.492 57.4857L246.662 56.1159C246.658 54.298 246.358 52.4929 245.774 50.7715L251.427 47.0092L247.298 40.8159L241.886 44.4142C240.317 42.8085 238.441 41.5355 236.368 40.6712L237.738 33.8316L230.445 32.3459L229.027 39.3882C227.516 39.4651 226.022 39.7507 224.59 40.2371L220.798 34.613L214.615 38.7418L218.213 44.1441C216.604 45.7142 215.331 47.5948 214.47 49.6717L208.489 48.4755L207.032 55.7686L213.216 57.0034C213.312 58.9458 213.75 60.8561 214.509 62.6468L209.097 66.2451L213.226 72.4384L218.879 68.6761C220.468 70.0709 222.308 71.1513 224.3 71.8596L222.921 78.7378L230.214 80.1945L231.709 72.7374C233.339 72.5621 234.935 72.1494 236.446 71.5123L240.044 76.9242L246.237 72.7953L242.475 67.1422C243.475 66.0058 244.312 64.7365 244.964 63.3703L252.035 64.7787ZM233.706 61.7882C232.58 62.5316 231.26 62.9245 229.911 62.9175C228.563 62.9104 227.246 62.5037 226.129 61.7486C225.011 60.9935 224.142 59.924 223.633 58.6754C223.123 57.4267 222.995 56.0549 223.264 54.7334C223.534 53.4119 224.189 52.2001 225.148 51.2511C226.106 50.302 227.324 49.6584 228.648 49.4016C229.972 49.1449 231.343 49.2864 232.587 49.8084C233.83 50.3304 234.891 51.2094 235.635 52.3343C236.13 53.0816 236.472 53.9191 236.642 54.7987C236.813 55.6784 236.809 56.5831 236.629 57.461C236.45 58.339 236.1 59.1731 235.598 59.9155C235.097 60.658 234.454 61.2944 233.706 61.7882Z" fill="#CADFF5"/>
<path d="M215.54 22.4481L216.322 18.4639L212.579 17.7308C212.574 16.7456 212.408 15.7679 212.087 14.8367L215.164 12.7723L212.897 9.39588L209.955 11.3253C209.091 10.4516 208.061 9.75948 206.926 9.28976L207.659 5.54678L203.665 4.76538L202.912 8.62413C202.084 8.66756 201.266 8.82667 200.481 9.09683L198.417 6.00982L195.041 8.27684L196.97 11.2288C196.096 12.0927 195.404 13.1226 194.934 14.2579L191.674 13.6116L190.883 17.6054L194.269 18.271C194.325 19.3317 194.57 20.3739 194.992 21.3484L192.04 23.2777L194.307 26.6541L197.385 24.5801C198.257 25.3381 199.266 25.924 200.356 26.3069L199.623 30.0691L203.607 30.8505L204.408 26.7795C205.298 26.6789 206.169 26.4481 206.993 26.0946L208.922 29.0466L212.299 26.7795L210.234 23.6925C210.78 23.0716 211.235 22.3766 211.585 21.6281L215.54 22.4481ZM205.517 20.8564C204.905 21.27 204.183 21.4925 203.444 21.4958C202.705 21.4991 201.982 21.2829 201.366 20.8748C200.75 20.4666 200.269 19.8847 199.983 19.2029C199.698 18.5211 199.622 17.77 199.764 17.0448C199.906 16.3195 200.26 15.6528 200.782 15.1289C201.303 14.6051 201.968 14.2478 202.692 14.1023C203.417 13.9567 204.168 14.0295 204.852 14.3114C205.535 14.5932 206.119 15.0715 206.53 15.6856C207.079 16.5063 207.281 17.5111 207.091 18.4802C206.902 19.4493 206.335 20.3037 205.517 20.8564Z" fill="#CADFF5"/>
<path d="M399.12 113.949L399.901 109.965L396.158 109.222C396.154 108.237 395.988 107.259 395.666 106.328L398.744 104.254L396.477 100.877L393.534 102.865C392.676 101.985 391.645 101.292 390.505 100.829L391.239 97.0861L387.254 96.3047L386.492 100.163C385.667 100.211 384.853 100.37 384.071 100.636L381.997 97.5588L378.62 99.8258L380.608 102.778C379.73 103.635 379.037 104.662 378.572 105.797L375.302 105.161L374.521 109.145L377.897 109.81C377.957 110.87 378.202 111.912 378.62 112.888L375.668 114.875L377.936 118.251L381.013 116.177C381.887 116.937 382.899 117.524 383.994 117.904L383.251 121.666L387.245 122.448L388.045 118.367C388.933 118.27 389.8 118.042 390.621 117.692L392.608 120.634L395.975 118.367L393.911 115.309C394.454 114.687 394.909 113.992 395.261 113.245L399.12 113.949ZM389.097 112.347C388.486 112.758 387.766 112.978 387.03 112.98C386.294 112.982 385.574 112.765 384.96 112.358C384.347 111.95 383.868 111.37 383.585 110.691C383.301 110.011 383.225 109.263 383.367 108.54C383.508 107.818 383.861 107.153 384.38 106.631C384.899 106.109 385.561 105.752 386.283 105.606C387.005 105.46 387.753 105.532 388.434 105.811C389.116 106.091 389.699 106.566 390.11 107.177C390.383 107.583 390.574 108.038 390.671 108.518C390.768 108.998 390.769 109.492 390.675 109.972C390.581 110.452 390.393 110.909 390.122 111.317C389.852 111.724 389.503 112.075 389.097 112.347Z" fill="#CADFF5"/>
<path d="M302.593 129.336L304.31 132.664L306.49 130.262L292.184 102.556C292.634 98.4371 293.735 94.4159 295.445 90.6419C299.448 81.4581 302.082 70.9526 295.821 72.3128C290.39 73.5187 287.775 85.5869 289.28 96.9027L283.753 86.1851C282.085 81.4339 281.047 76.4848 280.666 71.4639C279.971 57.6303 276.759 44.6649 270.498 48.9771C264.237 53.2892 270.189 75.506 281.756 88.9537L284.65 94.4621C276.392 84.5258 261.893 77.281 257.098 81.6028C252.304 85.9246 262.423 89.8412 272.234 91.9057C279.701 93.4781 284.235 96.2178 286.386 97.8385L299.824 123.885C286.685 108.18 263.803 96.7773 256.22 103.627C248.638 110.476 264.661 116.698 280.231 119.968C291.962 122.457 299.139 126.76 302.593 129.336Z" fill="#19478B"/>
<path d="M144.587 151.157L142.793 154.437L140.729 151.967L155.662 124.609C155.307 120.482 154.301 116.438 152.681 112.627C148.89 103.347 146.497 92.7835 152.729 94.298C158.131 95.6293 160.447 107.804 158.691 119.033L164.479 108.421C166.262 103.712 167.414 98.7882 167.904 93.7771C168.936 79.9627 172.447 67.0745 178.602 71.5314C184.757 75.9882 178.293 98.0603 166.408 111.228L163.437 116.679C171.927 106.926 186.59 100.038 191.278 104.466C195.967 108.894 185.77 112.579 175.911 114.412C168.405 115.811 163.813 118.444 161.624 120.007L147.539 145.793C161.045 130.358 184.197 119.534 191.596 126.548C198.996 133.561 182.856 139.426 167.219 142.32C155.392 144.529 148.128 148.658 144.587 151.157Z" fill="#19478B"/>
<path d="M357.475 257.118L383.994 261.199C387.39 256.877 390.187 252.372 390.071 249.372C389.792 241.867 383.405 233.078 389.888 228.197C396.371 223.316 403.143 214.518 395.146 204.581C387.148 194.645 393.477 173.345 393.477 173.345C393.477 173.345 379.508 182.229 379.431 198.957C379.354 215.685 375.032 214.112 365.472 221C355.912 227.888 349.603 230.647 356.24 248.976C357.191 251.581 357.61 254.349 357.475 257.118Z" fill="#19478B"/>
<path d="M372.621 259.404L373.73 259.578C374.185 255.252 373.715 250.878 372.351 246.747C369.456 238.962 372.891 231.013 383.367 220.971C390.12 214.517 387.978 204.012 387.882 203.607C387.867 203.536 387.838 203.468 387.797 203.408C387.756 203.348 387.703 203.297 387.643 203.258C387.582 203.218 387.513 203.191 387.442 203.178C387.37 203.165 387.297 203.167 387.226 203.182C387.085 203.217 386.962 203.304 386.883 203.426C386.805 203.548 386.775 203.695 386.802 203.838C386.802 203.944 388.885 214.189 382.595 220.238C371.762 230.628 368.289 238.934 371.318 247.182C372.589 251.123 373.032 255.284 372.621 259.404Z" fill="#01305A"/>
<path d="M399.265 285.142H371.414V285.065C370.633 282.282 370.189 279.416 370.093 276.527C369.765 266.784 369.601 242.31 375.881 236.01C383.791 228.139 399.67 225.052 397.577 213.167C395.483 201.282 397.046 184.824 415.838 182.152C434.63 179.48 449.313 149.902 449.313 149.902C449.313 149.902 455.487 173.749 438.586 192.03C421.684 210.311 427.974 212.974 431.379 230.174C434.785 247.374 438.817 256.819 413.05 269.958C406.744 273.151 401.835 278.557 399.265 285.142Z" fill="#1E8FCE"/>
<path d="M413.591 211.932C414.826 234.226 410.176 246.796 398.503 252.69C391.172 256.395 383.464 264.652 378.399 274.241C376.553 277.722 375.047 281.372 373.904 285.142H372.187C373.381 281.119 374.975 277.225 376.942 273.518C382.248 263.495 390.024 255.189 397.76 251.272C408.767 245.706 413.147 233.609 411.951 212.058C411.179 198.195 424.145 188.905 424.704 188.539C424.882 188.411 425.103 188.359 425.319 188.394C425.536 188.429 425.729 188.549 425.857 188.727C425.985 188.904 426.037 189.126 426.002 189.342C425.966 189.558 425.847 189.752 425.669 189.879C425.514 189.928 412.867 198.986 413.591 211.932Z" fill="#19478B"/>
<path d="M72.5735 186.937L95.5813 173.19C95.4366 167.682 94.7034 162.434 92.6872 160.196C87.6805 154.601 77.1558 151.919 79.0273 144.028C80.8988 136.137 80.4936 125.023 67.9816 122.496C55.4696 119.968 46.7584 99.5557 46.7584 99.5557C46.7584 99.5557 41.7324 115.309 52.3633 128.188C62.9942 141.066 58.6531 142.658 55.7011 154.061C52.7492 165.463 49.6622 171.647 66.4477 181.477C68.8341 182.869 70.9171 184.726 72.5735 186.937Z" fill="#19478B"/>
<path d="M85.7412 179.055L86.7058 178.477C84.294 174.858 81.1405 171.793 77.4545 169.486C70.2869 165.318 67.8076 157.041 69.4669 142.619C70.528 133.349 62.1931 126.625 61.8362 126.345C61.7804 126.295 61.715 126.258 61.6442 126.235C61.5734 126.211 61.4986 126.202 61.4243 126.209C61.35 126.215 61.2778 126.237 61.212 126.272C61.1463 126.307 61.0884 126.355 61.0419 126.414C60.9954 126.472 60.9612 126.539 60.9415 126.611C60.9218 126.683 60.9168 126.758 60.9271 126.832C60.9373 126.906 60.9625 126.977 61.001 127.041C61.0395 127.105 61.0907 127.16 61.1513 127.203C61.2284 127.271 69.3608 133.841 68.3768 142.494C66.6693 157.408 69.3415 166.023 76.9046 170.47C80.4141 172.687 83.4235 175.611 85.7412 179.055Z" fill="#01305A"/>
<path d="M82.5676 229.48L109.511 222.437V222.389C109.565 219.503 109.274 216.621 108.643 213.803C106.492 204.292 100.472 180.57 92.7933 176.094C83.1464 170.47 67.0072 171.502 66.0232 159.472C65.0392 147.443 59.3765 131.911 40.5169 134.072C21.6572 136.233 0 111.344 0 111.344C0 111.344 -1.84e-06 135.972 21.0302 149.382C42.0604 162.791 36.5424 166.929 37.6132 184.438C38.684 201.947 37.1501 212.086 65.4251 218.289C72.3231 219.779 78.4278 223.764 82.5676 229.48Z" fill="#1E8FCE"/>
<path d="M50.2027 162.261C54.6403 184.149 62.3192 195.137 75.1013 197.886C83.1275 199.623 92.6682 205.662 99.9999 213.659C102.666 216.56 105.044 219.714 107.1 223.074L108.759 222.64C106.58 219.029 104.039 215.648 101.177 212.55C93.5172 204.186 83.8799 198.079 75.41 196.285C63.3514 193.68 56.1162 183.088 51.7751 161.933C49.0161 148.321 34.1213 142.639 33.4943 142.398C33.3929 142.356 33.2843 142.336 33.1749 142.337C33.0654 142.339 32.9574 142.362 32.8571 142.406C32.7568 142.449 32.6662 142.513 32.5908 142.592C32.5154 142.672 32.4567 142.765 32.418 142.868C32.3794 142.97 32.3616 143.079 32.3658 143.189C32.37 143.298 32.3961 143.405 32.4424 143.504C32.4888 143.604 32.5545 143.692 32.6358 143.766C32.717 143.839 32.8121 143.895 32.9155 143.931C33.1084 143.989 47.627 149.556 50.2027 162.261Z" fill="#19478B"/>
<path d="M331.448 285.2C331.621 282.383 331.785 279.711 331.93 277.232C332.528 267.093 332.895 260.166 332.895 260.166L328.92 259.993L326.682 259.887L299.671 258.69C299.671 258.69 299.179 266.408 298.6 277.801C298.484 280.126 298.359 282.624 298.233 285.2H331.448Z" fill="#01305A"/>
<path d="M328.93 260.012L332.904 260.186C332.904 260.186 332.528 267.112 331.94 277.251C320.862 278.209 309.732 278.399 298.629 277.82C299.208 266.447 299.7 258.71 299.7 258.71L326.711 259.906L328.93 260.012Z" fill="#001336"/>
<path d="M327.512 285.2C328.139 274.367 328.66 265.086 328.939 259.993L326.701 259.887C326.412 265.009 325.9 274.357 325.273 285.2H327.512Z" fill="#001336"/>
<path d="M340.159 285.2H373.354C373.228 282.605 373.103 280.126 372.987 277.801C372.408 266.427 371.916 258.69 371.916 258.69L344.905 259.887L342.667 259.993L338.692 260.166C338.692 260.166 339.078 267.093 339.657 277.232C339.831 279.711 339.985 282.383 340.159 285.2Z" fill="#01305A"/>
<path d="M342.676 260.012L338.701 260.186C338.701 260.186 339.087 267.112 339.666 277.251C350.743 278.209 361.873 278.399 372.977 277.82C372.398 266.447 371.906 258.71 371.906 258.71L344.894 259.906L342.676 260.012Z" fill="#001336"/>
<path d="M346.333 285.2C345.706 274.328 345.194 265.009 344.915 259.887L342.667 259.993C342.947 265.086 343.468 274.367 344.095 285.2H346.333Z" fill="#001336"/>
<path d="M376.885 269.37C348.976 275.032 321.695 274.077 294.24 268.405C294.24 235.934 293.912 218.83 293.989 210.611C293.989 209.501 293.989 208.392 293.989 207.282C293.989 206.771 293.989 206.26 293.989 205.739C293.989 204.967 293.989 204.195 293.989 203.424C293.989 203.202 293.989 202.98 293.989 202.768C293.989 202.555 293.989 202.266 293.989 202.015V201.861V200.028C293.989 199.555 293.989 199.063 293.989 198.6C293.989 198.137 293.989 197.79 293.989 197.385V195.378C293.989 195.205 293.989 195.041 293.989 194.867C293.989 193.738 293.989 192.61 294.038 191.491V191.384C294.038 190.169 294.086 188.963 294.105 187.757C294.192 183.204 294.288 178.728 294.404 174.416C294.404 173.451 294.452 172.573 294.472 171.676C295.012 152.276 295.88 136.503 297.231 131.603C297.337 131.146 297.509 130.707 297.742 130.3C297.952 129.991 298.184 129.698 298.437 129.422C298.797 129.012 299.18 128.622 299.585 128.255C302.967 125.164 306.708 122.489 310.727 120.287C311.334 119.94 314.132 118.541 314.778 118.271C320.277 115.965 328.998 113.447 329.085 113.447L343.864 114.489C345.629 115.531 359.607 120.277 361.325 121.348L362.82 122.313C366.843 124.908 370.258 127.483 371.753 129.673C372.862 131.304 373.75 139.677 374.444 151.649C374.444 152.237 374.521 152.835 374.55 153.443C375.091 163.254 375.515 175.236 375.853 187.825C375.853 189.06 375.911 190.304 375.94 191.558C375.94 191.712 375.94 191.867 375.94 192.021L375.997 194.153C375.997 194.414 375.997 194.674 375.997 194.934C375.997 196.179 376.055 197.423 376.075 198.668C376.094 199.912 376.123 200.944 376.152 202.083C376.152 202.71 376.152 203.347 376.152 204.012C376.152 204.678 376.152 205.228 376.152 205.835C376.2 208.459 376.248 211.083 376.287 213.688C376.374 218.936 376.451 224.097 376.518 229.075C376.518 229.634 376.518 230.194 376.518 230.763C376.856 231.93 376.875 243.169 376.885 269.37Z" fill="#1E8FCE"/>
<path d="M374.752 153.376L367.575 150.858C367.366 150.785 367.195 150.632 367.099 150.433C367.003 150.234 366.99 150.005 367.063 149.797C367.136 149.588 367.289 149.417 367.488 149.321C367.687 149.225 367.916 149.213 368.124 149.285L374.646 151.581C374.684 152.17 374.723 152.768 374.752 153.376Z" fill="#19478B"/>
<path d="M300.433 167.151L294.645 174.415C294.645 173.451 294.693 172.573 294.712 171.676L299.179 166.11C299.317 165.938 299.517 165.829 299.736 165.805C299.955 165.782 300.174 165.846 300.346 165.984C300.517 166.122 300.627 166.323 300.65 166.542C300.674 166.761 300.609 166.98 300.471 167.151H300.433Z" fill="#19478B"/>
<path d="M362.029 243.294C347.172 243.236 334.487 236.474 326.47 230.811C321.334 227.235 316.627 223.079 312.444 218.424C312.375 218.354 312.322 218.27 312.288 218.179C312.253 218.087 312.238 217.989 312.243 217.891C312.248 217.793 312.273 217.697 312.317 217.61C312.36 217.522 312.422 217.444 312.497 217.381C312.572 217.318 312.659 217.271 312.753 217.243C312.847 217.215 312.946 217.207 313.043 217.219C313.14 217.231 313.234 217.263 313.318 217.312C313.403 217.362 313.476 217.429 313.534 217.508C317.635 222.073 322.248 226.152 327.28 229.663C335.133 235.2 347.539 241.808 362.009 241.866C362.199 241.866 362.38 241.942 362.514 242.075C362.648 242.209 362.723 242.391 362.723 242.58C362.723 242.77 362.648 242.951 362.514 243.085C362.38 243.219 362.199 243.294 362.009 243.294H362.029Z" fill="#19478B"/>
<path d="M346.545 248.349C333.657 248.349 320.797 240.998 320.209 240.631C320.05 240.535 319.934 240.381 319.885 240.201C319.837 240.022 319.859 239.83 319.948 239.667C320.043 239.506 320.197 239.388 320.378 239.34C320.558 239.291 320.75 239.315 320.913 239.406C321.058 239.493 336.184 248.088 349.603 246.738C349.792 246.719 349.981 246.776 350.129 246.896C350.276 247.016 350.37 247.19 350.389 247.379C350.408 247.569 350.352 247.758 350.231 247.905C350.111 248.053 349.937 248.146 349.748 248.166C348.696 248.291 347.625 248.349 346.545 248.349Z" fill="#19478B"/>
<path d="M294.239 191.384V191.481H376.112C376.112 190.236 376.054 188.992 376.016 187.757H294.307C294.278 188.963 294.268 190.169 294.239 191.384Z" fill="#19478B"/>
<path d="M294.113 198.6H376.305C376.305 197.356 376.256 196.111 376.228 194.867H294.181V195.378V197.385C294.113 197.79 294.113 198.195 294.113 198.6Z" fill="#19478B"/>
<path d="M294.036 205.739H376.459C376.459 205.131 376.459 204.523 376.459 203.915C376.459 203.308 376.459 202.652 376.459 201.986H294.113C294.113 202.237 294.113 202.488 294.113 202.739C294.113 202.989 294.113 203.173 294.113 203.395C294.055 204.195 294.055 204.967 294.036 205.739Z" fill="#19478B"/>
<path d="M340.497 145.523C340.677 145.522 340.851 145.459 340.99 145.345C341.128 145.231 341.224 145.072 341.259 144.896C341.296 144.695 341.251 144.488 341.136 144.32C341.02 144.152 340.842 144.036 340.642 143.999C321.194 140.304 315.328 127.792 315.27 127.667C315.23 127.575 315.171 127.491 315.098 127.422C315.025 127.352 314.939 127.298 314.844 127.262C314.75 127.226 314.65 127.21 314.549 127.213C314.448 127.216 314.349 127.239 314.257 127.281C314.072 127.367 313.928 127.522 313.856 127.713C313.784 127.905 313.789 128.116 313.872 128.303C314.122 128.844 320.132 141.664 340.362 145.504L340.497 145.523Z" fill="#19478B"/>
<path d="M314.71 68.5314C314.71 68.5314 313.262 59.6756 315.414 56.6657C317.565 53.6559 321.067 54.5531 324.81 51.0898C328.553 47.6266 339.975 50.9355 344.972 50.0287C347.711 49.5367 350.644 49.9033 353.326 49.3534C357.185 48.5817 359.239 52.4018 358.313 56.1641C357.715 58.5565 356.519 62.1548 353.056 63.0905C353.056 63.0905 319.842 57.042 314.71 68.5314Z" fill="#01305A"/>
<path d="M313.949 75.6024C313.949 88.4327 321.85 97.2693 334.671 97.2693C347.491 97.2693 356.434 87.7671 356.434 74.9367C356.434 62.1064 348.842 52.4016 336.021 52.4016C320.635 52.4016 313.949 62.7817 313.949 75.6024Z" fill="#01305A"/>
<path d="M316.832 81.1299C316.832 81.1299 313.273 76.3739 310.62 80.3002C307.967 84.2265 311.72 95.8413 318.202 93.0052L316.832 81.1299Z" fill="#FB9E82"/>
<path d="M316.786 89.4171C316.668 89.4172 316.553 89.3786 316.459 89.3071C316.364 89.2357 316.296 89.1354 316.265 89.0216C315.3 85.4329 311.547 83.9859 311.509 83.9666C311.388 83.9051 311.295 83.8014 311.246 83.6752C311.197 83.549 311.197 83.4093 311.244 83.2827C311.292 83.1562 311.385 83.0517 311.505 82.9892C311.625 82.9267 311.764 82.9106 311.895 82.944C312.068 83.0116 316.159 84.5937 317.316 88.7322C317.337 88.8012 317.343 88.8737 317.335 88.9452C317.328 89.0168 317.305 89.0861 317.27 89.149C317.235 89.212 317.188 89.2672 317.131 89.3116C317.075 89.356 317.01 89.3886 316.94 89.4075C316.89 89.4201 316.837 89.4234 316.786 89.4171Z" fill="#1E8FCE"/>
<path d="M313.041 87.6128C312.935 87.6122 312.831 87.5821 312.742 87.526C312.621 87.447 312.536 87.3239 312.506 87.1832C312.475 87.0425 312.501 86.8954 312.578 86.7735C313.101 86.0418 313.815 85.4678 314.642 85.1142C314.707 85.0683 314.781 85.0372 314.859 85.0232C314.937 85.0091 315.017 85.0125 315.094 85.033C315.171 85.0535 315.242 85.0907 315.303 85.1419C315.363 85.193 315.412 85.257 315.445 85.3291C315.478 85.4012 315.495 85.4798 315.495 85.5592C315.494 85.6386 315.476 85.7169 315.442 85.7885C315.407 85.8601 315.358 85.9232 315.296 85.9734C315.235 86.0236 315.163 86.0596 315.086 86.0789C314.459 86.3531 313.914 86.7852 313.504 87.333C313.458 87.4162 313.391 87.4859 313.31 87.535C313.228 87.5842 313.136 87.611 313.041 87.6128Z" fill="#1E8FCE"/>
<path d="M353.558 81.1299C353.558 81.1299 357.118 76.3739 359.771 80.3002C362.424 84.2265 358.671 95.8413 352.188 93.0052L353.558 81.1299Z" fill="#FB9E82"/>
<path d="M353.596 89.4171C353.715 89.4177 353.832 89.3795 353.927 89.3081C354.023 89.2367 354.093 89.1362 354.127 89.0216C355.091 85.4329 358.844 83.9859 358.883 83.9666C359.003 83.9051 359.097 83.8014 359.145 83.6752C359.194 83.549 359.195 83.4093 359.147 83.2827C359.099 83.1562 359.007 83.0517 358.887 82.9892C358.767 82.9267 358.628 82.9106 358.497 82.944C358.323 83.0116 354.233 84.5937 353.075 88.7322C353.055 88.8012 353.048 88.8737 353.056 88.9452C353.064 89.0168 353.086 89.0861 353.121 89.149C353.156 89.212 353.203 89.2672 353.26 89.3116C353.317 89.356 353.382 89.3886 353.451 89.4075C353.499 89.42 353.548 89.4233 353.596 89.4171Z" fill="#1E8FCE"/>
<path d="M357.35 87.6128C357.447 87.6103 357.541 87.5823 357.624 87.5317C357.706 87.4811 357.774 87.4096 357.82 87.3244C357.866 87.2393 357.889 87.1435 357.886 87.0468C357.883 86.95 357.854 86.8558 357.803 86.7735C357.289 86.0379 356.576 85.4627 355.749 85.1142C355.617 85.0551 355.467 85.0503 355.332 85.1009C355.196 85.1514 355.086 85.2533 355.025 85.3843C354.995 85.45 354.978 85.5212 354.976 85.5935C354.974 85.6658 354.986 85.7378 355.012 85.8053C355.038 85.8728 355.077 85.9343 355.128 85.9863C355.178 86.0383 355.238 86.0796 355.305 86.1079C355.93 86.3857 356.474 86.8171 356.887 87.362C356.936 87.4398 357.005 87.5037 357.086 87.5476C357.167 87.5915 357.258 87.6139 357.35 87.6128Z" fill="#1E8FCE"/>
<path d="M343.969 102.845V114.421C343.969 114.421 340.525 120.306 335.866 120.702C331.206 121.097 327.087 115.637 327.087 115.637V103.656L343.969 102.845Z" fill="#FDBEAB"/>
<path d="M343.969 102.845V107.968C340.843 111.431 335.287 112.299 327.087 111.084V103.656L343.969 102.845Z" fill="#FB9E82"/>
<path d="M314.941 80.9082C314.989 81.5739 315.047 82.2588 315.105 82.9341C315.278 84.6609 315.51 86.4263 315.828 88.182V88.3556C317.381 96.8642 320.864 105.228 328.369 107.91C345.377 113.987 351.454 99.4013 353.885 90.9024C354.146 89.9377 354.396 88.9055 354.609 87.7865C354.605 87.7383 354.605 87.6899 354.609 87.6418C354.85 86.3877 355.052 85.0467 355.226 83.6672C355.361 82.6447 355.467 81.6028 355.564 80.5609C355.815 78.0238 355.979 75.4674 356.085 73.21C356.2 70.6845 355.517 68.1868 354.131 66.0721C352.746 63.9574 350.729 62.3335 348.367 61.4312C341.383 58.7494 330.8 56.6078 320.758 62.3187C318.936 63.349 317.414 64.8369 316.343 66.6353C315.272 68.4338 314.689 70.4805 314.651 72.5733C314.68 74.9175 314.719 77.8116 314.941 80.9082Z" fill="#FDBEAB"/>
<path d="M327.993 81.8056C327.993 83.0404 327.357 84.034 326.575 84.034C325.794 84.034 325.157 83.0693 325.157 81.8056C325.157 80.5418 325.794 79.5771 326.575 79.5771C327.357 79.5771 327.993 80.5804 327.993 81.8056Z" fill="#01305A"/>
<path d="M344.973 81.8056C344.973 83.0404 344.336 84.034 343.555 84.034C342.773 84.034 342.137 83.0693 342.137 81.8056C342.137 80.5418 342.764 79.5771 343.555 79.5771C344.346 79.5771 344.973 80.5804 344.973 81.8056Z" fill="#01305A"/>
<path d="M348.281 74.4545C348.281 74.4545 343.815 72.6795 340.361 74.1747L340.709 76.1041C340.709 76.1041 345.764 75.6797 348.31 76.7119C348.566 75.9793 348.555 75.1803 348.281 74.4545Z" fill="#01305A"/>
<path d="M321.751 74.4545C321.751 74.4545 326.227 72.6795 329.671 74.1747L329.324 76.1041C329.324 76.1041 324.269 75.6797 321.722 76.7119C321.467 75.9793 321.477 75.1803 321.751 74.4545Z" fill="#01305A"/>
<path d="M335.749 91.4716C335.072 91.5383 334.389 91.4795 333.733 91.298C333.664 91.2801 333.599 91.2486 333.542 91.2053C333.485 91.162 333.437 91.1078 333.401 91.0459C333.365 90.984 333.342 90.9155 333.333 90.8445C333.323 90.7735 333.328 90.7014 333.347 90.6324C333.364 90.5624 333.395 90.4965 333.438 90.4387C333.481 90.381 333.535 90.3326 333.597 90.2965C333.66 90.2604 333.728 90.2374 333.8 90.2288C333.871 90.2202 333.944 90.2262 334.013 90.2465C334.534 90.3815 335.749 90.5552 336.222 90.179C336.301 90.1149 336.362 90.0315 336.399 89.9368C336.437 89.8421 336.449 89.7394 336.434 89.6387C336.434 87.7094 335.093 81.41 335.084 81.3521C335.068 81.2817 335.067 81.2089 335.08 81.1381C335.093 81.0672 335.12 80.9997 335.16 80.9395C335.199 80.8792 335.251 80.8275 335.31 80.7874C335.37 80.7473 335.437 80.7195 335.508 80.7057C335.579 80.6903 335.651 80.689 335.722 80.7021C335.793 80.7151 335.861 80.7422 335.921 80.7818C335.981 80.8213 336.033 80.8725 336.073 80.9324C336.113 80.9922 336.141 81.0595 336.155 81.1302C336.763 83.9334 337.22 86.7672 337.524 89.6194C337.545 89.8906 337.498 90.1626 337.389 90.4116C337.28 90.6605 337.111 90.8788 336.897 91.0472C336.561 91.2908 336.164 91.4376 335.749 91.4716Z" fill="#FB9E82"/>
<path d="M328.254 94.7612C328.707 97.0186 330.183 101.167 335.209 101.167C340.235 101.167 341.644 97.3755 342.136 94.7612H328.254Z" fill="white"/>
<path d="M355.555 81.2266H353.066C353.346 78.728 352.439 75.7182 351.687 73.7117C349.989 69.1487 353.616 67.1421 350.722 64.8655C347.828 62.5888 340.525 63.5535 335.47 63.3895C330.415 63.2255 322.196 63.3027 320.219 63.7657C318.241 64.2288 319.312 67.5184 320.045 70.0844C320.778 72.6505 317.604 75.4674 317.074 78.1106C316.932 79.1445 316.932 80.1928 317.074 81.2266H315C314.758 78.0045 314.72 75.0043 314.768 72.5444C314.807 70.4518 315.39 68.4054 316.461 66.6071C317.532 64.8088 319.053 63.3208 320.875 62.2897C330.917 56.5981 341.509 58.7204 348.474 61.4022C350.836 62.3045 352.853 63.9285 354.239 66.0432C355.624 68.1579 356.308 70.6556 356.192 73.1811C356.018 75.67 355.854 78.4579 355.555 81.2266Z" fill="#01305A"/>
<path d="M297.973 130.3L261.209 182.316L269.264 203.279L294.703 171.772C294.703 171.772 299.507 149.97 297.973 130.3Z" fill="#1E8FCE"/>
<path d="M418.607 158.469C416.919 161.479 412.819 162.135 407.629 161.498C404.114 160.998 400.65 160.188 397.278 159.077C385.046 155.218 372.36 150.771 372.36 150.771L361.083 121.097C361.083 121.097 373.421 126.779 390.024 134.072C392.31 135.037 394.538 136.002 396.67 136.966C398.088 137.564 399.449 138.133 400.751 138.664L402.362 139.31L402.507 138.732C402.979 136.754 404.6 129.963 406.539 121.415C409.038 110.37 411.15 93.343 411.15 93.343L420.46 95.8126C420.46 95.8126 424.858 147.327 418.607 158.469Z" fill="#1E8FCE"/>
<path d="M403.683 145.533C403.579 145.564 403.469 145.574 403.361 145.563C403.252 145.551 403.147 145.519 403.051 145.467C402.955 145.415 402.871 145.345 402.802 145.26C402.733 145.175 402.682 145.078 402.651 144.973L400.722 138.606L402.333 139.253L402.477 138.674L404.214 144.462C404.251 144.567 404.268 144.678 404.261 144.79C404.255 144.901 404.226 145.01 404.176 145.11C404.127 145.21 404.057 145.299 403.973 145.372C403.888 145.444 403.79 145.499 403.683 145.533Z" fill="#19478B"/>
<path d="M416.195 97.173C414.757 97.4525 413.272 97.38 411.868 96.9617C410.464 96.5435 409.181 95.7918 408.13 94.7709C407.364 94.0247 406.771 93.119 406.394 92.118C405.072 88.404 401.001 80.7444 404.571 78.6124C405.873 77.831 406.076 82.0467 408.796 84.2269C410.224 81.7246 411.456 79.1153 412.481 76.4226C413.542 73.3452 416.253 67.6728 417.517 65.0489C417.591 64.8961 417.713 64.7714 417.864 64.6931C418.014 64.6148 418.186 64.5872 418.354 64.6142C418.522 64.6413 418.676 64.7216 418.795 64.8433C418.913 64.965 418.99 65.1217 419.012 65.2901C419.099 66.5635 418.713 68.8208 416.986 72.7857C416.986 72.7857 421.617 63.4282 423.508 63.4861C425.398 63.544 419.398 75.1492 419.398 75.1492C419.398 75.1492 424.945 66.795 426.344 67.4992C427.202 67.9237 422.717 77.4934 422.717 77.4934C422.717 77.4934 428.601 70.0749 428.408 72.7664C428.35 73.5574 419.996 87.1113 420.459 95.7839C419.108 96.4392 417.673 96.9066 416.195 97.173Z" fill="#FDBEAB"/>
<path d="M40.5849 285.2H403.182C405.034 285.2 406.811 285.936 408.121 287.246C409.431 288.555 410.166 290.332 410.166 292.184V292.811C410.166 294.664 409.431 296.44 408.121 297.75C406.811 299.06 405.034 299.796 403.182 299.796H40.5849C38.7326 299.796 36.9561 299.06 35.6462 297.75C34.3364 296.44 33.6006 294.664 33.6006 292.811V292.146C33.6133 290.301 34.3545 288.536 35.6626 287.235C36.9708 285.934 38.74 285.202 40.5849 285.2Z" fill="#19478B"/>
<path d="M410.166 292.184V292.522H33.6484V292.184C33.6484 290.332 34.3843 288.555 35.6941 287.246C37.0039 285.936 38.7804 285.2 40.6328 285.2H403.182C405.034 285.2 406.811 285.936 408.12 287.246C409.43 288.555 410.166 290.332 410.166 292.184Z" fill="#1E8FCE"/>
<path d="M369.291 16.2164C368.074 16.2164 366.884 15.8554 365.872 15.1791C364.86 14.5029 364.071 13.5416 363.605 12.417C363.139 11.2924 363.017 10.0549 363.255 8.86097C363.492 7.66707 364.079 6.5704 364.939 5.70965C365.8 4.8489 366.897 4.26273 368.091 4.02525C369.285 3.78777 370.522 3.90964 371.647 4.37548C372.771 4.84132 373.733 5.63018 374.409 6.64232C375.085 7.65445 375.446 8.84441 375.446 10.0617C375.446 11.694 374.798 13.2595 373.643 14.4137C372.489 15.568 370.924 16.2164 369.291 16.2164ZM369.291 5.846C368.455 5.84601 367.638 6.09406 366.943 6.55877C366.248 7.02349 365.706 7.68397 365.387 8.45661C365.067 9.22925 364.984 10.0793 365.148 10.8992C365.312 11.7191 365.715 12.472 366.307 13.0625C366.899 13.6531 367.653 14.0547 368.473 14.2167C369.293 14.3786 370.143 14.2935 370.915 13.9723C371.687 13.651 372.346 13.1079 372.809 12.4118C373.272 11.7157 373.519 10.8978 373.517 10.0617C373.517 9.50727 373.407 8.95828 373.195 8.44618C372.983 7.93408 372.671 7.46893 372.279 7.07734C371.886 6.68575 371.42 6.37542 370.908 6.16413C370.395 5.95284 369.846 5.84474 369.291 5.846Z" fill="#1E8FCE"/>
<path d="M391.431 37.777C390.216 37.777 389.028 37.4165 388.017 36.7413C387.007 36.0661 386.219 35.1064 385.754 33.9835C385.289 32.8606 385.167 31.6251 385.404 30.433C385.641 29.241 386.227 28.1461 387.086 27.2867C387.945 26.4273 389.04 25.842 390.232 25.6049C391.424 25.3678 392.66 25.4895 393.783 25.9546C394.906 26.4197 395.865 27.2073 396.541 28.2179C397.216 29.2284 397.576 30.4165 397.576 31.6319C397.574 33.2609 396.925 34.8224 395.774 35.9743C394.622 37.1262 393.06 37.7744 391.431 37.777ZM391.431 27.4162C390.597 27.4162 389.782 27.6634 389.089 28.1267C388.396 28.5899 387.856 29.2483 387.536 30.0186C387.217 30.7889 387.134 31.6366 387.297 32.4543C387.459 33.2721 387.861 34.0232 388.45 34.6128C389.04 35.2024 389.791 35.6039 390.609 35.7666C391.427 35.9292 392.274 35.8457 393.044 35.5267C393.815 35.2076 394.473 34.6673 394.936 33.974C395.4 33.2807 395.647 32.4657 395.647 31.6319C395.644 30.5146 395.199 29.4438 394.409 28.6538C393.619 27.8637 392.549 27.4187 391.431 27.4162Z" fill="#1E8FCE"/>
<path d="M399.023 57.7558C398.767 57.7558 398.522 57.6541 398.341 57.4732C398.16 57.2923 398.059 57.0469 398.059 56.7911V52.5465C398.059 52.2906 398.16 52.0453 398.341 51.8643C398.522 51.6834 398.767 51.5818 399.023 51.5818C399.279 51.5818 399.524 51.6834 399.705 51.8643C399.886 52.0453 399.988 52.2906 399.988 52.5465V56.7911C399.988 57.0469 399.886 57.2923 399.705 57.4732C399.524 57.6541 399.279 57.7558 399.023 57.7558Z" fill="#1E8FCE"/>
<path d="M399.023 65.2032C398.767 65.2032 398.522 65.1015 398.341 64.9206C398.16 64.7397 398.059 64.4943 398.059 64.2385V59.9842C398.059 59.7284 398.16 59.483 398.341 59.3021C398.522 59.1212 398.767 59.0195 399.023 59.0195C399.279 59.0195 399.524 59.1212 399.705 59.3021C399.886 59.483 399.988 59.7284 399.988 59.9842V64.2385C399.988 64.4943 399.886 64.7397 399.705 64.9206C399.524 65.1015 399.279 65.2032 399.023 65.2032Z" fill="#1E8FCE"/>
<path d="M404.995 59.3571H401.137C400.881 59.3571 400.635 59.2555 400.454 59.0746C400.273 58.8936 400.172 58.6483 400.172 58.3924C400.172 58.1366 400.273 57.8912 400.454 57.7103C400.635 57.5294 400.881 57.4277 401.137 57.4277H404.995C405.251 57.4277 405.497 57.5294 405.677 57.7103C405.858 57.8912 405.96 58.1366 405.96 58.3924C405.96 58.6483 405.858 58.8936 405.677 59.0746C405.497 59.2555 405.251 59.3571 404.995 59.3571Z" fill="#1E8FCE"/>
<path d="M396.872 59.3571H393.014C392.758 59.3571 392.512 59.2555 392.331 59.0746C392.15 58.8936 392.049 58.6483 392.049 58.3924C392.049 58.1366 392.15 57.8912 392.331 57.7103C392.512 57.5294 392.758 57.4277 393.014 57.4277H396.872C397.128 57.4277 397.374 57.5294 397.554 57.7103C397.735 57.8912 397.837 58.1366 397.837 58.3924C397.837 58.6483 397.735 58.8936 397.554 59.0746C397.374 59.2555 397.128 59.3571 396.872 59.3571Z" fill="#1E8FCE"/>
<path d="M365.077 33.928C364.821 33.928 364.576 33.8264 364.395 33.6455C364.214 33.4646 364.112 33.2192 364.112 32.9633V28.7091C364.112 28.4532 364.214 28.2078 364.395 28.0269C364.576 27.846 364.821 27.7444 365.077 27.7444C365.333 27.7444 365.578 27.846 365.759 28.0269C365.94 28.2078 366.042 28.4532 366.042 28.7091V32.9633C366.042 33.2192 365.94 33.4646 365.759 33.6455C365.578 33.8264 365.333 33.928 365.077 33.928Z" fill="#19478B"/>
<path d="M365.077 41.3754C364.821 41.3754 364.576 41.2738 364.395 41.0929C364.214 40.9119 364.112 40.6666 364.112 40.4107V36.2047C364.112 35.9488 364.214 35.7035 364.395 35.5225C364.576 35.3416 364.821 35.24 365.077 35.24C365.333 35.24 365.578 35.3416 365.759 35.5225C365.94 35.7035 366.042 35.9488 366.042 36.2047V40.459C366.029 40.7064 365.922 40.9395 365.743 41.1101C365.563 41.2807 365.325 41.3757 365.077 41.3754Z" fill="#19478B"/>
<path d="M371.047 35.5197H367.188C366.932 35.5197 366.687 35.4181 366.506 35.2372C366.325 35.0562 366.224 34.8109 366.224 34.555C366.224 34.2992 366.325 34.0538 366.506 33.8729C366.687 33.692 366.932 33.5903 367.188 33.5903H371.047C371.303 33.5903 371.548 33.692 371.729 33.8729C371.91 34.0538 372.012 34.2992 372.012 34.555C372.012 34.8109 371.91 35.0562 371.729 35.2372C371.548 35.4181 371.303 35.5197 371.047 35.5197Z" fill="#19478B"/>
<path d="M362.925 35.5197H359.066C358.81 35.5197 358.565 35.4181 358.384 35.2372C358.203 35.0562 358.102 34.8109 358.102 34.555C358.102 34.2992 358.203 34.0538 358.384 33.8729C358.565 33.692 358.81 33.5903 359.066 33.5903H362.925C363.181 33.5903 363.426 33.692 363.607 33.8729C363.788 34.0538 363.89 34.2992 363.89 34.555C363.89 34.8109 363.788 35.0562 363.607 35.2372C363.426 35.4181 363.181 35.5197 362.925 35.5197Z" fill="#19478B"/>
<path d="M75.9209 6.82011C75.919 5.60201 76.2786 4.41073 76.9541 3.39712C77.6297 2.3835 78.5908 1.59314 79.7159 1.12611C80.8409 0.659082 82.0792 0.536382 83.274 0.773555C84.4688 1.01073 85.5663 1.59711 86.4276 2.45844C87.289 3.31977 87.8753 4.41732 88.1125 5.61211C88.3497 6.80691 88.227 8.04521 87.76 9.17023C87.2929 10.2952 86.5026 11.2564 85.489 11.9319C84.4754 12.6075 83.2841 12.9671 82.066 12.9652C80.437 12.9626 78.8754 12.3144 77.7236 11.1625C76.5717 10.0106 75.9235 8.4491 75.9209 6.82011ZM77.8503 6.82011C77.8503 7.65621 78.0983 8.47352 78.5631 9.16858C79.0278 9.86364 79.6882 10.4052 80.4609 10.7247C81.2335 11.0442 82.0836 11.1274 82.9035 10.9635C83.7234 10.7997 84.4763 10.3963 85.0668 9.80445C85.6573 9.21256 86.059 8.45878 86.2209 7.63851C86.3829 6.81824 86.2978 5.96836 85.9765 5.19645C85.6552 4.42454 85.1122 3.7653 84.4161 3.30218C83.7199 2.83906 82.9021 2.59287 82.066 2.59478C81.5115 2.59478 80.9626 2.70414 80.4505 2.9166C79.9384 3.12906 79.4732 3.44045 79.0816 3.83293C78.69 4.22542 78.3797 4.69129 78.1684 5.20388C77.9571 5.71646 77.849 6.26569 77.8503 6.82011Z" fill="#1E8FCE"/>
<path d="M51.2246 30.2525C51.2227 29.0348 51.5821 27.8439 52.2572 26.8305C52.9323 25.8171 53.8929 25.0267 55.0173 24.5594C56.1418 24.0921 57.3796 23.9688 58.5741 24.2052C59.7687 24.4416 60.8662 25.027 61.7279 25.8874C62.5897 26.7478 63.1768 27.8444 63.4151 29.0386C63.6533 30.2327 63.532 31.4707 63.0664 32.5959C62.6009 33.7211 61.812 34.6829 60.7997 35.3596C59.7874 36.0363 58.597 36.3975 57.3793 36.3976C55.7487 36.3976 54.1847 35.7504 53.0307 34.5983C51.8767 33.4462 51.2272 31.8832 51.2246 30.2525ZM53.154 30.2525C53.154 31.0882 53.4018 31.9051 53.8661 32.6C54.3304 33.2948 54.9903 33.8364 55.7624 34.1562C56.5344 34.476 57.384 34.5597 58.2036 34.3966C59.0233 34.2336 59.7762 33.8312 60.3671 33.2403C60.958 32.6493 61.3604 31.8964 61.5235 31.0768C61.6865 30.2572 61.6028 29.4076 61.283 28.6355C60.9632 27.8634 60.4216 27.2035 59.7268 26.7393C59.0319 26.275 58.215 26.0272 57.3793 26.0272C56.2587 26.0272 55.184 26.4723 54.3916 27.2647C53.5992 28.0571 53.154 29.1319 53.154 30.2525Z" fill="#1E8FCE"/>
<path d="M38.4715 38.8768C38.7274 38.8768 38.9727 38.7751 39.1537 38.5942C39.3346 38.4133 39.4362 38.1679 39.4362 37.9121V33.6578C39.4362 33.402 39.3346 33.1566 39.1537 32.9757C38.9727 32.7948 38.7274 32.6931 38.4715 32.6931C38.2157 32.6931 37.9703 32.7948 37.7894 32.9757C37.6085 33.1566 37.5068 33.402 37.5068 33.6578V37.9121C37.5068 38.1679 37.6085 38.4133 37.7894 38.5942C37.9703 38.7751 38.2157 38.8768 38.4715 38.8768Z" fill="#1E8FCE"/>
<path d="M38.4715 46.3243C38.7274 46.3243 38.9727 46.2226 39.1537 46.0417C39.3346 45.8608 39.4362 45.6154 39.4362 45.3596V41.1053C39.4362 40.8495 39.3346 40.6041 39.1537 40.4232C38.9727 40.2423 38.7274 40.1406 38.4715 40.1406C38.2157 40.1406 37.9703 40.2423 37.7894 40.4232C37.6085 40.6041 37.5068 40.8495 37.5068 41.1053V45.3596C37.5068 45.6154 37.6085 45.8608 37.7894 46.0417C37.9703 46.2226 38.2157 46.3243 38.4715 46.3243Z" fill="#1E8FCE"/>
<path d="M32.4813 40.4687H36.34C36.5959 40.4687 36.8413 40.367 37.0222 40.1861C37.2031 40.0052 37.3047 39.7598 37.3047 39.504C37.3047 39.2481 37.2031 39.0028 37.0222 38.8219C36.8413 38.6409 36.5959 38.5393 36.34 38.5393H32.4813C32.2254 38.5393 31.9801 38.6409 31.7992 38.8219C31.6182 39.0028 31.5166 39.2481 31.5166 39.504C31.5166 39.7598 31.6182 40.0052 31.7992 40.1861C31.9801 40.367 32.2254 40.4687 32.4813 40.4687Z" fill="#1E8FCE"/>
<path d="M40.5936 40.4687H44.4523C44.7082 40.4687 44.9536 40.367 45.1345 40.1861C45.3154 40.0052 45.417 39.7598 45.417 39.504C45.417 39.2481 45.3154 39.0028 45.1345 38.8219C44.9536 38.6409 44.7082 38.5393 44.4523 38.5393H40.5936C40.3377 38.5393 40.0924 38.6409 39.9115 38.8219C39.7305 39.0028 39.6289 39.2481 39.6289 39.504C39.6289 39.7598 39.7305 40.0052 39.9115 40.1861C40.0924 40.367 40.3377 40.4687 40.5936 40.4687Z" fill="#1E8FCE"/>
<path d="M60.659 6.18364C60.9149 6.18364 61.1602 6.08201 61.3412 5.90109C61.5221 5.72018 61.6237 5.47481 61.6237 5.21896V0.964688C61.6237 0.708837 61.5221 0.463464 61.3412 0.28255C61.1602 0.101636 60.9149 0 60.659 0C60.4032 0 60.1578 0.101636 59.9769 0.28255C59.796 0.463464 59.6943 0.708837 59.6943 0.964688V5.21896C59.6943 5.47481 59.796 5.72018 59.9769 5.90109C60.1578 6.08201 60.4032 6.18364 60.659 6.18364Z" fill="#19478B"/>
<path d="M60.659 13.6309C60.9149 13.6309 61.1602 13.5293 61.3412 13.3484C61.5221 13.1674 61.6237 12.9221 61.6237 12.6662V8.41195C61.6237 8.1561 61.5221 7.91073 61.3412 7.72982C61.1602 7.5489 60.9149 7.44727 60.659 7.44727C60.4032 7.44727 60.1578 7.5489 59.9769 7.72982C59.796 7.91073 59.6943 8.1561 59.6943 8.41195V12.6662C59.6943 12.9221 59.796 13.1674 59.9769 13.3484C60.1578 13.5293 60.4032 13.6309 60.659 13.6309Z" fill="#19478B"/>
<path d="M54.6981 7.78484H58.5568C58.8127 7.78484 59.0581 7.68321 59.239 7.50229C59.4199 7.32138 59.5215 7.07601 59.5215 6.82016C59.5215 6.56431 59.4199 6.31893 59.239 6.13802C59.0581 5.9571 58.8127 5.85547 58.5568 5.85547H54.6981C54.4422 5.85547 54.1969 5.9571 54.0159 6.13802C53.835 6.31893 53.7334 6.56431 53.7334 6.82016C53.7334 7.07601 53.835 7.32138 54.0159 7.50229C54.1969 7.68321 54.4422 7.78484 54.6981 7.78484Z" fill="#19478B"/>
<path d="M62.8202 7.78484H66.6789C66.9348 7.78484 67.1801 7.68321 67.361 7.50229C67.542 7.32138 67.6436 7.07601 67.6436 6.82016C67.6436 6.56431 67.542 6.31893 67.361 6.13802C67.1801 5.9571 66.9348 5.85547 66.6789 5.85547H62.8202C62.5643 5.85547 62.3189 5.9571 62.138 6.13802C61.9571 6.31893 61.8555 6.56431 61.8555 6.82016C61.8555 7.07601 61.9571 7.32138 62.138 7.50229C62.3189 7.68321 62.5643 7.78484 62.8202 7.78484Z" fill="#19478B"/>
<path d="M263.08 252.005C263.08 252.43 263.08 253.018 263.003 253.8C262.791 257.88 262.309 267.151 262.039 285.19H180.677C180.677 268.617 180.677 259.308 180.677 254.234C180.677 251.571 180.677 250.076 180.677 249.323C180.677 249.111 180.677 248.889 180.677 248.677C180.677 247.51 180.677 246.342 180.677 245.166C180.677 242.686 180.754 240.207 180.793 237.747C181.313 207.784 182.375 180.676 184.487 177.589C187.15 173.653 197.086 168.212 205.325 163.678C205.517 163.582 205.701 163.476 205.884 163.37L206.608 162.974L208.836 161.739C211.276 160.449 213.637 159.016 215.907 157.447C216.389 158.276 218.415 162.858 222.12 163.235C226.181 163.621 229.837 158.498 229.837 158.498V157.533C232.29 159.247 234.83 160.831 237.449 162.28L239.61 163.534L240.208 163.881L242.677 165.328C249.324 169.187 256.183 173.528 258.537 176.904C260.891 180.281 262.241 214.363 262.945 248.648C262.945 249.246 262.945 249.844 262.945 250.442C262.945 250.761 262.945 251.089 262.945 251.407C263.09 251.533 263.09 251.735 263.08 252.005Z" fill="#1E8FCE"/>
<path d="M187.575 237.429C184.299 242.571 181.976 248.26 180.716 254.224C180.716 251.562 180.716 250.067 180.716 249.314C180.716 249.102 180.716 248.88 180.716 248.668C181.267 246.933 181.911 245.23 182.645 243.565C183.705 241.175 184.943 238.87 186.35 236.667C186.453 236.514 186.612 236.406 186.793 236.368C186.932 236.323 187.081 236.323 187.22 236.368C187.359 236.412 187.48 236.5 187.566 236.617C187.653 236.734 187.7 236.876 187.702 237.022C187.703 237.167 187.659 237.31 187.575 237.429Z" fill="#19478B"/>
<path d="M263.08 252.005C263.08 252.43 263.08 253.018 263.002 253.799C261.736 247.977 259.45 242.425 256.25 237.4C256.177 237.285 256.14 237.151 256.143 237.015C256.145 236.88 256.188 236.747 256.265 236.636C256.342 236.524 256.45 236.437 256.576 236.386C256.702 236.335 256.84 236.322 256.973 236.348C257.151 236.387 257.307 236.494 257.407 236.647C258.814 238.85 260.052 241.156 261.112 243.545C261.85 245.189 262.494 246.873 263.041 248.59C263.041 249.188 263.041 249.786 263.041 250.384C263.08 250.847 263.08 251.33 263.08 252.005Z" fill="#19478B"/>
<path d="M196.382 179.654C196.382 179.654 182.21 163.129 192.069 151.417C201.928 139.706 225.39 140.806 233.107 141.964C240.825 143.121 263.437 156.607 247.269 175.679C231.101 194.751 196.382 179.654 196.382 179.654Z" fill="#1E8FCE"/>
<path d="M199.257 242.995C207.151 249.121 216.541 253.022 226.452 254.292C226.558 254.306 226.666 254.297 226.768 254.265C226.87 254.233 226.964 254.18 227.044 254.108C227.124 254.037 227.187 253.949 227.23 253.851C227.272 253.753 227.293 253.646 227.291 253.539C227.29 253.363 227.224 253.194 227.107 253.062C226.99 252.931 226.829 252.847 226.654 252.825C217 251.585 207.854 247.785 200.164 241.818C200.056 241.734 199.927 241.681 199.791 241.666C199.654 241.651 199.517 241.674 199.393 241.734C199.27 241.793 199.165 241.885 199.092 242.001C199.018 242.117 198.979 242.251 198.977 242.388C198.972 242.504 198.995 242.62 199.044 242.725C199.092 242.831 199.165 242.923 199.257 242.995Z" fill="#19478B"/>
<path d="M202.324 233.483C202.324 233.601 202.354 233.717 202.411 233.821C202.797 234.487 203.241 235.181 203.733 235.895C207.864 241.66 213.914 245.764 220.798 247.471H220.972C221.121 247.47 221.265 247.421 221.384 247.33C221.502 247.24 221.588 247.113 221.628 246.97C221.651 246.883 221.657 246.793 221.645 246.705C221.633 246.617 221.604 246.531 221.559 246.454C221.514 246.377 221.455 246.31 221.384 246.256C221.313 246.202 221.232 246.162 221.145 246.14C211.325 243.477 206.183 237.554 203.607 233.117C203.532 232.981 203.413 232.875 203.27 232.816C203.128 232.757 202.969 232.748 202.82 232.79C202.671 232.833 202.541 232.924 202.451 233.05C202.361 233.176 202.316 233.329 202.324 233.483Z" fill="#19478B"/>
<path d="M231.872 175.708C227.508 180.011 222.399 183.486 216.794 185.963C216.672 186.017 216.568 186.104 216.494 186.215C216.421 186.327 216.381 186.457 216.379 186.59C216.377 186.705 216.404 186.819 216.458 186.921C216.512 187.023 216.59 187.11 216.687 187.173C216.783 187.237 216.893 187.275 217.008 187.284C217.123 187.293 217.239 187.274 217.344 187.227C220.718 185.759 223.921 183.924 226.894 181.757C229.008 180.22 231.004 178.527 232.866 176.692C232.991 176.559 233.06 176.383 233.058 176.2C233.059 176.063 233.018 175.928 232.942 175.813C232.866 175.699 232.757 175.61 232.63 175.557C232.503 175.504 232.363 175.49 232.228 175.517C232.093 175.544 231.969 175.611 231.872 175.708Z" fill="#19478B"/>
<path d="M212.115 239.05C211.96 239.05 211.811 238.989 211.699 238.881C211.588 238.773 211.522 238.626 211.517 238.471C210.881 209.685 211.517 180.532 211.517 180.242C211.52 180.085 211.584 179.936 211.696 179.826C211.808 179.715 211.958 179.654 212.115 179.654C212.195 179.655 212.273 179.672 212.346 179.704C212.419 179.736 212.484 179.782 212.539 179.839C212.594 179.897 212.637 179.964 212.665 180.039C212.693 180.113 212.706 180.192 212.704 180.271C212.704 180.561 212.067 209.685 212.704 238.442C212.706 238.521 212.693 238.599 212.665 238.673C212.636 238.747 212.593 238.814 212.539 238.871C212.484 238.927 212.418 238.972 212.345 239.003C212.273 239.034 212.194 239.05 212.115 239.05Z" fill="white"/>
<path d="M234.758 239.05C234.679 239.048 234.601 239.032 234.529 239C234.457 238.969 234.392 238.924 234.337 238.868C234.283 238.811 234.24 238.745 234.211 238.672C234.182 238.598 234.168 238.52 234.169 238.442C234.806 209.685 234.169 180.561 234.169 180.271C234.166 180.112 234.227 179.957 234.337 179.842C234.447 179.726 234.598 179.659 234.758 179.654C234.914 179.654 235.065 179.715 235.177 179.826C235.289 179.936 235.353 180.085 235.356 180.242C235.356 180.532 235.992 209.685 235.356 238.471C235.351 238.626 235.285 238.773 235.174 238.881C235.062 238.989 234.913 239.05 234.758 239.05Z" fill="white"/>
<path d="M243.999 121.898C243.999 134.526 236.233 143.217 223.606 143.217C210.978 143.217 202.189 133.87 202.189 121.252C202.189 108.633 209.666 99.0637 222.284 99.0637C237.42 99.0637 243.999 109.28 243.999 121.898Z" fill="#01305A"/>
<path d="M203.838 130.194C202.321 129.668 200.957 128.776 199.865 127.599C198.774 126.421 197.988 124.994 197.577 123.441C195.986 117.943 199.69 120.74 200.336 115.946C200.983 111.151 195.609 107.601 200.336 105.334C205.063 103.067 202.208 98.0412 206.375 95.4462C210.543 92.8512 216.64 97.636 220.624 93.6518C224.608 89.6677 232.682 90.6613 234.969 93.6518C237.255 96.6424 238.268 95.9189 242.561 96.7195C246.854 97.5202 248.851 104.495 246.757 107.717C244.664 110.939 246.121 113.1 248.127 115.087C250.134 117.074 248.773 130.744 241.857 128.815C234.94 126.885 203.838 130.194 203.838 130.194Z" fill="#01305A"/>
<path d="M241.162 127.339C241.162 127.339 244.674 122.66 247.278 126.528C249.883 130.397 246.198 141.809 239.812 139.069L241.162 127.339Z" fill="#FB9E82"/>
<path d="M241.211 135.5C241.328 135.497 241.441 135.457 241.535 135.386C241.628 135.315 241.697 135.216 241.732 135.104C242.696 131.573 246.372 130.146 246.41 130.136C246.541 130.082 246.647 129.98 246.704 129.851C246.762 129.721 246.767 129.575 246.719 129.442C246.694 129.375 246.657 129.314 246.609 129.262C246.56 129.21 246.502 129.168 246.438 129.138C246.373 129.109 246.304 129.092 246.233 129.09C246.162 129.087 246.091 129.098 246.024 129.123C245.851 129.191 241.828 130.754 240.69 134.805C240.671 134.874 240.665 134.945 240.674 135.016C240.682 135.086 240.705 135.154 240.74 135.216C240.775 135.278 240.822 135.332 240.878 135.376C240.933 135.42 240.998 135.452 241.066 135.471L241.211 135.5Z" fill="#1E8FCE"/>
<path d="M244.915 133.715C245.017 133.718 245.117 133.692 245.204 133.638C245.325 133.559 245.409 133.436 245.44 133.295C245.471 133.155 245.445 133.008 245.368 132.886C244.848 132.174 244.149 131.611 243.342 131.255C243.212 131.197 243.063 131.192 242.93 131.243C242.796 131.293 242.687 131.395 242.629 131.525C242.572 131.656 242.569 131.804 242.62 131.937C242.67 132.07 242.77 132.178 242.899 132.239C243.517 132.51 244.055 132.936 244.461 133.474C244.512 133.548 244.579 133.609 244.658 133.651C244.737 133.693 244.825 133.715 244.915 133.715Z" fill="#1E8FCE"/>
<path d="M205.027 127.339C205.027 127.339 201.525 122.66 198.91 126.528C196.296 130.397 199.991 141.809 206.377 139.069L205.027 127.339Z" fill="#FB9E82"/>
<path d="M204.986 135.5C204.869 135.498 204.754 135.459 204.661 135.388C204.567 135.317 204.499 135.217 204.465 135.104C203.501 131.573 199.825 130.146 199.787 130.136C199.72 130.111 199.659 130.074 199.607 130.026C199.555 129.977 199.513 129.919 199.484 129.855C199.454 129.79 199.438 129.721 199.435 129.65C199.432 129.579 199.444 129.508 199.468 129.442C199.493 129.375 199.531 129.314 199.579 129.262C199.627 129.21 199.685 129.168 199.75 129.138C199.814 129.109 199.884 129.092 199.955 129.09C200.026 129.087 200.096 129.098 200.163 129.123C200.337 129.191 204.359 130.753 205.498 134.805C205.518 134.873 205.525 134.944 205.518 135.015C205.51 135.085 205.489 135.153 205.455 135.215C205.421 135.277 205.374 135.332 205.319 135.376C205.263 135.42 205.199 135.452 205.131 135.471L204.986 135.5Z" fill="#1E8FCE"/>
<path d="M201.292 133.715C201.19 133.717 201.09 133.691 201.003 133.638C200.884 133.558 200.801 133.435 200.771 133.295C200.74 133.155 200.764 133.008 200.839 132.886C201.359 132.174 202.058 131.611 202.865 131.255C202.929 131.209 203.003 131.178 203.082 131.164C203.16 131.15 203.24 131.154 203.317 131.174C203.393 131.195 203.465 131.232 203.525 131.283C203.586 131.334 203.635 131.398 203.668 131.47C203.701 131.542 203.718 131.621 203.717 131.7C203.717 131.78 203.699 131.858 203.664 131.93C203.63 132.001 203.58 132.064 203.519 132.115C203.457 132.165 203.385 132.201 203.308 132.22C202.693 132.495 202.155 132.919 201.746 133.455C201.699 133.534 201.633 133.599 201.553 133.645C201.474 133.69 201.384 133.715 201.292 133.715Z" fill="#1E8FCE"/>
<path d="M214.459 148.707V160.061C214.459 160.061 217.855 165.849 222.427 166.245C227 166.64 231.11 161.267 231.11 161.267V149.507L214.459 148.707Z" fill="#FDBEAB"/>
<path d="M214.459 148.707V153.752C217.536 157.157 222.996 158.006 231.071 156.82V149.507L214.459 148.707Z" fill="#FB9E82"/>
<path d="M243.043 126.972C242.857 129.48 242.535 131.976 242.078 134.449C240.554 142.822 237.129 151.051 229.74 153.742C213.003 159.723 207.021 145.369 204.658 137.005C204.388 136.04 204.156 135.076 203.944 133.937C203.568 131.94 203.269 129.722 203.037 127.484C202.767 124.763 202.584 122.014 202.478 119.592C202.362 117.113 203.03 114.659 204.388 112.581C205.745 110.503 207.723 108.906 210.041 108.016C216.9 105.383 227.319 103.299 237.197 108.894C238.993 109.906 240.493 111.369 241.548 113.139C242.604 114.909 243.179 116.924 243.217 118.985C243.284 121.194 243.246 123.991 243.043 126.972Z" fill="#FDBEAB"/>
<path d="M230.271 128.815C230.271 130.03 230.899 131.014 231.67 131.014C232.442 131.014 233.059 130.049 233.059 128.815C233.059 127.58 232.442 126.625 231.67 126.625C230.899 126.625 230.271 127.609 230.271 128.815Z" fill="#01305A"/>
<path d="M213.824 128.814C213.824 130.02 214.451 131.004 215.223 131.004C215.995 131.004 216.612 130.04 216.612 128.814C216.612 127.589 215.995 126.615 215.223 126.615C214.451 126.615 213.824 127.56 213.824 128.814Z" fill="#01305A"/>
<path d="M237.198 122.621C237.198 122.621 231.854 120.508 227.734 122.283L228.149 124.57C228.149 124.57 234.188 124.058 237.237 125.293C237.533 124.425 237.519 123.481 237.198 122.621Z" fill="#01305A"/>
<path d="M210.611 122.621C210.611 122.621 215.955 120.508 220.075 122.283L219.66 124.57C219.66 124.57 213.621 124.058 210.582 125.293C210.278 124.427 210.288 123.481 210.611 122.621Z" fill="#01305A"/>
<path d="M222.91 137.314C222.248 137.287 221.596 137.146 220.981 136.899C220.9 136.885 220.824 136.853 220.757 136.806C220.691 136.758 220.636 136.696 220.597 136.624C220.558 136.552 220.536 136.473 220.532 136.391C220.528 136.309 220.543 136.228 220.575 136.153C220.607 136.078 220.656 136.011 220.718 135.957C220.78 135.904 220.853 135.865 220.932 135.844C221.011 135.823 221.094 135.82 221.174 135.836C221.255 135.851 221.33 135.885 221.396 135.934C222.072 136.245 222.834 136.316 223.557 136.137C223.64 136.083 223.708 136.008 223.754 135.92C223.799 135.832 223.821 135.734 223.817 135.635C223.851 132.876 223.745 130.116 223.499 127.368C223.502 127.234 223.555 127.107 223.646 127.01C223.738 126.913 223.862 126.854 223.995 126.843C224.128 126.832 224.26 126.871 224.366 126.952C224.472 127.033 224.545 127.15 224.57 127.281C224.826 130.093 224.935 132.917 224.898 135.741C224.883 136.009 224.804 136.27 224.666 136.5C224.528 136.73 224.336 136.923 224.106 137.063C223.738 137.254 223.324 137.341 222.91 137.314Z" fill="#FB9E82"/>
<path d="M230.27 141.269C229.827 143.487 228.341 147.568 223.431 147.568C218.52 147.568 217.093 143.835 216.61 141.269H230.27Z" fill="white"/>
<path d="M203.067 127.435H205.508C205.238 124.975 204.852 120.682 206.868 120.036C213.235 118.107 204.939 113.573 207.833 111.354C210.727 109.135 217.856 110.061 222.834 109.907C227.811 109.752 235.896 109.81 237.844 110.264C239.793 110.717 238.732 113.968 238.018 116.486C237.304 119.004 240.41 121.782 240.912 124.387C241.044 125.405 241.044 126.436 240.912 127.454H242.986C243.227 124.281 243.266 121.329 243.217 118.936C243.183 116.873 242.609 114.854 241.553 113.08C240.497 111.307 238.996 109.84 237.198 108.826C227.319 103.231 216.939 105.315 210.032 107.948C207.715 108.839 205.736 110.436 204.377 112.514C203.018 114.592 202.347 117.045 202.459 119.525C202.604 121.965 202.787 124.715 203.067 127.435Z" fill="#01305A"/>
<path d="M270.479 285.191C267.681 273.132 264.999 261.131 264.971 255.459L263.408 250.182L257.697 230.888L248.773 200.655C248.773 200.655 250.23 180.802 258.633 176.875C258.633 176.875 267.951 195.677 273.103 213.649L275.708 222.91C279.344 235.943 282.769 248.812 284.39 256.443C286.01 264.074 287.014 274.772 287.679 285.191H270.479Z" fill="#1E8FCE"/>
<path d="M173.182 285.191C175.979 273.132 178.661 261.131 178.69 255.459L180.253 250.182L185.964 230.888L194.906 200.665C194.906 200.665 192.977 181.516 184.603 177.599C184.603 177.599 175.738 195.687 170.625 213.659C169.757 216.708 168.879 219.823 168.02 222.92C164.374 235.953 160.959 248.822 159.338 256.453C157.718 264.083 156.714 274.782 156.039 285.2L173.182 285.191Z" fill="#1E8FCE"/>
<path d="M109.319 285.191C109.483 282.384 109.627 279.702 109.763 277.222C110.312 267.084 110.669 260.157 110.669 260.157L106.965 260.012L104.901 259.906L79.9537 258.681C79.9537 258.681 79.5003 266.399 78.989 277.792C78.8732 280.117 78.7671 282.615 78.6514 285.191H109.319Z" fill="#01305A"/>
<path d="M106.965 260.012L110.641 260.186C110.641 260.186 110.284 267.112 109.734 277.251C99.5109 278.209 89.2307 278.399 78.9795 277.82C79.5101 266.447 79.9442 258.71 79.9442 258.71L104.881 259.906L106.965 260.012Z" fill="#001336"/>
<path d="M105.691 285.19C106.27 274.357 106.743 265.077 107.003 259.983L104.929 259.877C104.669 264.999 104.196 274.347 103.617 285.19H105.691Z" fill="#001336"/>
<path d="M117.364 285.191H148.013C147.897 282.596 147.791 280.117 147.675 277.792C147.144 266.418 146.71 258.681 146.71 258.681L121.773 259.877L119.709 259.983L116.033 260.157C116.033 260.157 116.39 267.084 116.94 277.222C117.056 279.702 117.2 282.384 117.364 285.191Z" fill="#01305A"/>
<path d="M119.689 260.012L116.014 260.186C116.014 260.186 116.371 267.112 116.92 277.251C127.143 278.209 137.423 278.399 147.675 277.82C147.144 266.447 146.71 258.71 146.71 258.71L121.773 259.906L119.689 260.012Z" fill="#001336"/>
<path d="M123.065 285.19C122.486 274.318 122.013 264.999 121.753 259.877L119.679 259.983C119.939 265.077 120.412 274.357 120.991 285.19H123.065Z" fill="#001336"/>
<path d="M113.612 47.6073C113.612 47.6073 93.2183 45.5621 87.7775 75.5832C82.3366 105.604 78.6805 124.474 79.9153 140.458C81.1501 156.443 133.571 152.228 141.694 144.25C149.817 136.272 140.951 82.5965 138.935 68.3288C136.919 54.061 121.725 46.1892 113.612 47.6073Z" fill="#01305A"/>
<path d="M81.3622 191.751C81.4586 193.574 81.5358 195.417 81.6033 197.269C81.9796 208.353 78.2366 224.28 76.9053 262.868C98.3792 269.321 126.191 268.415 150.82 262.791C149.498 224.155 146.768 208.344 147.144 197.259C147.279 193.314 147.492 189.426 147.733 185.625C148.63 171.956 150.115 159.521 151.099 150.105C152.064 140.536 152.595 134.072 151.427 132.596C150.061 131.042 148.483 129.688 146.739 128.574C143.201 126.252 139.539 124.123 135.771 122.197L133.561 121.097C129.037 118.743 124.879 116.611 122.458 115.029C120.007 116.248 117.322 116.926 114.586 117.017H114.162C111.428 116.927 108.747 116.249 106.299 115.029C103.762 116.718 99.0931 119.062 94.1443 121.657L91.53 123.027C89.0604 124.358 86.5908 125.718 84.3816 127.069C83.4169 127.647 82.5487 128.217 81.7191 128.786C79.9231 129.93 78.2991 131.323 76.8957 132.924C74.5418 135.895 79.346 158.903 81.1885 187.034C81.1885 188.625 81.285 190.159 81.3622 191.751Z" fill="#1E8FCE"/>
<path d="M139.977 225.563C125.072 225.496 112.348 218.714 104.283 213.022C99.1424 209.438 94.4354 205.268 90.2568 200.597C90.1429 200.456 90.0881 200.277 90.1044 200.097C90.1206 199.917 90.2064 199.75 90.3437 199.632C90.4859 199.523 90.6642 199.471 90.843 199.487C91.0218 199.503 91.1879 199.586 91.3084 199.719C95.4195 204.3 100.045 208.392 105.094 211.913C112.966 217.46 125.4 224.087 139.909 224.155C140.086 224.175 140.248 224.26 140.366 224.392C140.484 224.525 140.549 224.696 140.549 224.873C140.549 225.051 140.484 225.222 140.366 225.354C140.248 225.487 140.086 225.572 139.909 225.592L139.977 225.563Z" fill="#19478B"/>
<path d="M130.117 216.881C117.431 214.392 106.202 204.668 105.691 204.224C105.62 204.161 105.562 204.084 105.521 203.998C105.48 203.913 105.456 203.82 105.45 203.725C105.445 203.63 105.458 203.535 105.49 203.445C105.521 203.355 105.57 203.273 105.633 203.202C105.697 203.131 105.773 203.073 105.859 203.032C105.945 202.99 106.038 202.966 106.133 202.961C106.227 202.956 106.323 202.969 106.412 203C106.502 203.032 106.585 203.08 106.656 203.144C106.781 203.259 119.997 214.72 133.474 215.916C133.568 215.925 133.659 215.952 133.742 215.996C133.825 216.04 133.899 216.1 133.959 216.173C134.019 216.246 134.064 216.329 134.092 216.419C134.12 216.509 134.129 216.604 134.12 216.698C134.112 216.791 134.084 216.882 134.04 216.966C133.996 217.049 133.936 217.123 133.864 217.183C133.791 217.243 133.707 217.288 133.617 217.315C133.527 217.343 133.433 217.353 133.339 217.344C132.257 217.248 131.182 217.093 130.117 216.881Z" fill="#19478B"/>
<path d="M108.625 146.507C108.457 146.507 108.294 146.449 108.166 146.341C108.037 146.233 107.95 146.084 107.92 145.919C107.902 145.827 107.903 145.732 107.922 145.64C107.941 145.549 107.978 145.462 108.031 145.384C108.084 145.307 108.152 145.241 108.23 145.19C108.309 145.14 108.397 145.105 108.49 145.089C126.655 141.635 132.134 129.953 132.192 129.828C132.23 129.74 132.286 129.66 132.356 129.594C132.426 129.528 132.508 129.477 132.598 129.444C132.689 129.411 132.784 129.396 132.88 129.4C132.976 129.405 133.07 129.429 133.157 129.471C133.244 129.51 133.322 129.567 133.387 129.637C133.453 129.707 133.503 129.789 133.536 129.879C133.57 129.968 133.585 130.064 133.581 130.159C133.577 130.255 133.554 130.349 133.514 130.435C133.282 130.937 127.668 142.918 108.779 146.507H108.625Z" fill="#19478B"/>
<path d="M133.561 121.097C129.239 128.381 121.763 135.838 112.154 134.178C103.318 132.644 97.9058 126.982 94.1436 121.637C99.0924 119.042 103.79 116.698 106.299 115.01C108.746 116.23 111.428 116.908 114.161 116.997H114.585C117.321 116.907 120.006 116.229 122.457 115.01C124.84 116.573 129.036 118.705 133.561 121.097Z" fill="#FDBEAB"/>
<path d="M100.51 119.419C100.417 119.429 100.324 119.429 100.231 119.419L99.9605 119.341C99.8752 119.306 99.7942 119.261 99.7194 119.206C99.6391 119.157 99.5647 119.099 99.4975 119.033C99.2433 118.774 99.0953 118.43 99.0827 118.068C99.0727 117.975 99.0727 117.881 99.0827 117.788C99.0827 117.702 99.0827 117.605 99.1599 117.518C99.199 117.435 99.2442 117.354 99.2949 117.277C99.3927 117.115 99.5285 116.979 99.6904 116.882C99.7675 116.831 99.8481 116.786 99.9316 116.746L100.202 116.669C100.383 116.631 100.57 116.631 100.752 116.669L101.022 116.746C101.106 116.784 101.187 116.829 101.263 116.882C101.345 116.928 101.42 116.987 101.485 117.055C101.551 117.122 101.609 117.197 101.658 117.277C101.713 117.352 101.758 117.433 101.793 117.518C101.793 117.605 101.851 117.702 101.871 117.788C101.881 117.881 101.881 117.975 101.871 118.068C101.858 118.43 101.71 118.774 101.456 119.033C101.318 119.159 101.162 119.263 100.993 119.341L100.723 119.419C100.652 119.425 100.581 119.425 100.51 119.419Z" fill="white"/>
<path d="M115.126 156.154C115.052 156.523 114.835 156.847 114.522 157.057C114.21 157.266 113.827 157.344 113.458 157.273C113.091 157.2 112.767 156.987 112.556 156.678C112.345 156.37 112.264 155.991 112.329 155.623C112.135 155.941 111.824 156.169 111.463 156.259C111.102 156.349 110.72 156.294 110.399 156.105C110.077 155.916 109.843 155.608 109.745 155.247C109.648 154.886 109.696 154.502 109.879 154.176C109.604 154.423 109.245 154.553 108.876 154.54C108.508 154.528 108.158 154.373 107.901 154.109C107.658 153.846 107.522 153.502 107.522 153.144C107.522 152.786 107.658 152.441 107.901 152.179C107.583 152.368 107.205 152.426 106.845 152.342C106.485 152.257 106.172 152.036 105.972 151.726C105.77 151.421 105.693 151.051 105.758 150.691C105.823 150.332 106.024 150.011 106.319 149.796C105.984 149.934 105.609 149.938 105.27 149.809C104.932 149.68 104.655 149.427 104.496 149.102C104.34 148.778 104.312 148.408 104.418 148.064C104.523 147.721 104.754 147.43 105.065 147.25C104.721 147.35 104.351 147.316 104.031 147.155C103.71 146.994 103.463 146.718 103.338 146.381C103.209 146.049 103.211 145.68 103.343 145.348C103.476 145.017 103.729 144.748 104.052 144.597C103.705 144.671 103.343 144.613 103.036 144.435C102.729 144.256 102.5 143.97 102.393 143.632C102.29 143.291 102.32 142.925 102.476 142.605C102.631 142.285 102.901 142.035 103.232 141.905C102.879 141.959 102.52 141.879 102.223 141.681C101.927 141.482 101.716 141.181 101.63 140.834C101.548 140.483 101.602 140.114 101.781 139.801C101.96 139.488 102.251 139.254 102.595 139.146C102.243 139.185 101.89 139.09 101.605 138.881C101.319 138.672 101.122 138.364 101.052 138.018C100.976 137.672 101.033 137.31 101.211 137.004C101.39 136.698 101.678 136.471 102.016 136.368C101.662 136.397 101.31 136.29 101.031 136.07C100.752 135.85 100.566 135.533 100.511 135.181C100.454 134.833 100.53 134.475 100.722 134.179C100.915 133.883 101.211 133.669 101.553 133.58C101.2 133.591 100.855 133.471 100.584 133.243C100.314 133.015 100.137 132.695 100.087 132.345C100.034 131.99 100.117 131.628 100.319 131.331C100.521 131.035 100.827 130.825 101.177 130.744C100.824 130.746 100.482 130.617 100.218 130.382C99.9547 130.146 99.7875 129.822 99.7493 129.47C99.7088 129.118 99.8024 128.764 100.012 128.478C100.221 128.192 100.53 127.995 100.878 127.927C100.524 127.919 100.186 127.78 99.9278 127.538C99.6697 127.296 99.51 126.967 99.4792 126.615C99.452 126.263 99.5563 125.913 99.7719 125.633C99.9875 125.354 100.299 125.164 100.647 125.1C100.292 125.087 99.9562 124.942 99.7031 124.694C99.4499 124.446 99.2979 124.113 99.2766 123.759C99.2581 123.404 99.3722 123.054 99.5967 122.778C99.8213 122.502 100.14 122.319 100.492 122.264C100.138 122.245 99.8034 122.094 99.5552 121.84C99.3069 121.587 99.1628 121.249 99.1512 120.894C99.1448 120.708 99.1751 120.522 99.2405 120.348C99.3059 120.173 99.405 120.013 99.5322 119.877C99.6595 119.741 99.8123 119.631 99.982 119.554C100.152 119.477 100.335 119.434 100.521 119.428C100.898 119.415 101.265 119.552 101.542 119.808C101.818 120.065 101.982 120.421 101.997 120.798C102.006 121.147 101.887 121.487 101.664 121.755C101.44 122.023 101.127 122.201 100.782 122.255C101.131 122.273 101.462 122.42 101.709 122.668C101.957 122.915 102.104 123.246 102.122 123.595C102.142 123.942 102.034 124.283 101.819 124.555C101.604 124.827 101.297 125.011 100.955 125.071C101.303 125.087 101.633 125.229 101.883 125.47C102.134 125.712 102.288 126.037 102.315 126.383C102.332 126.723 102.226 127.058 102.017 127.327C101.808 127.596 101.51 127.781 101.177 127.85C101.523 127.855 101.855 127.986 102.111 128.219C102.367 128.451 102.529 128.77 102.566 129.114C102.604 129.459 102.514 129.807 102.313 130.091C102.112 130.376 101.815 130.577 101.476 130.657C101.824 130.654 102.16 130.777 102.423 131.005C102.686 131.232 102.857 131.547 102.904 131.892C102.946 132.235 102.863 132.582 102.67 132.869C102.477 133.157 102.186 133.364 101.852 133.455C102.198 133.441 102.537 133.553 102.805 133.772C103.074 133.991 103.253 134.3 103.309 134.641C103.367 134.978 103.302 135.325 103.124 135.617C102.947 135.91 102.67 136.129 102.344 136.233C102.689 136.21 103.031 136.312 103.306 136.521C103.581 136.731 103.77 137.033 103.84 137.371C103.906 137.714 103.844 138.069 103.667 138.369C103.489 138.67 103.207 138.895 102.875 139.002C103.217 138.966 103.56 139.054 103.842 139.251C104.123 139.447 104.325 139.739 104.409 140.072C104.492 140.406 104.452 140.759 104.296 141.065C104.14 141.372 103.879 141.612 103.56 141.741C103.895 141.688 104.239 141.755 104.529 141.932C104.819 142.109 105.036 142.383 105.142 142.706C105.24 143.032 105.217 143.383 105.079 143.694C104.942 144.005 104.697 144.257 104.389 144.404C104.721 144.334 105.067 144.385 105.364 144.547C105.662 144.71 105.891 144.974 106.01 145.291C106.131 145.607 106.135 145.955 106.022 146.274C105.909 146.592 105.686 146.859 105.393 147.028C105.717 146.932 106.064 146.954 106.373 147.09C106.682 147.226 106.933 147.467 107.081 147.771C107.224 148.068 107.259 148.406 107.18 148.727C107.101 149.047 106.912 149.33 106.647 149.526C106.953 149.405 107.292 149.392 107.606 149.491C107.92 149.589 108.191 149.792 108.374 150.067C108.551 150.336 108.631 150.657 108.602 150.978C108.572 151.299 108.434 151.6 108.21 151.832C108.486 151.673 108.808 151.61 109.124 151.653C109.44 151.697 109.733 151.845 109.956 152.073C110.166 152.295 110.3 152.579 110.338 152.882C110.377 153.186 110.317 153.494 110.168 153.761C110.392 153.559 110.675 153.433 110.975 153.404C111.276 153.374 111.578 153.442 111.837 153.597C112.088 153.744 112.288 153.964 112.41 154.228C112.533 154.492 112.572 154.787 112.522 155.073C112.671 154.826 112.892 154.63 113.156 154.513C113.42 154.395 113.714 154.362 113.998 154.417C114.282 154.473 114.543 154.613 114.746 154.82C114.949 155.027 115.085 155.29 115.136 155.575C115.192 155.294 115.332 155.037 115.537 154.838C115.742 154.638 116.002 154.505 116.284 154.456C116.559 154.41 116.841 154.445 117.096 154.556C117.351 154.667 117.568 154.85 117.721 155.083C117.666 154.809 117.695 154.524 117.803 154.266C117.912 154.008 118.095 153.789 118.329 153.636C118.575 153.471 118.866 153.387 119.162 153.395C119.458 153.404 119.743 153.505 119.979 153.684C119.813 153.434 119.732 153.137 119.746 152.837C119.759 152.537 119.868 152.249 120.056 152.015C120.253 151.768 120.527 151.593 120.834 151.518C121.141 151.443 121.465 151.472 121.754 151.6C121.51 151.394 121.343 151.111 121.28 150.797C121.217 150.484 121.261 150.158 121.407 149.874C121.557 149.58 121.804 149.347 122.107 149.215C122.409 149.083 122.748 149.06 123.066 149.15C122.781 148.981 122.565 148.718 122.454 148.406C122.343 148.094 122.344 147.753 122.458 147.443C122.575 147.128 122.798 146.864 123.088 146.697C123.379 146.53 123.719 146.469 124.05 146.526C123.743 146.388 123.495 146.145 123.352 145.841C123.209 145.537 123.179 145.191 123.268 144.867C123.354 144.538 123.555 144.251 123.835 144.058C124.115 143.865 124.455 143.779 124.793 143.815C124.474 143.7 124.207 143.473 124.041 143.178C123.874 142.882 123.819 142.537 123.886 142.204C123.952 141.869 124.137 141.569 124.406 141.358C124.675 141.148 125.011 141.041 125.352 141.056C125.03 140.952 124.756 140.737 124.579 140.448C124.402 140.16 124.334 139.818 124.387 139.484C124.439 139.144 124.612 138.834 124.875 138.613C125.137 138.391 125.471 138.272 125.815 138.278C125.48 138.194 125.187 137.991 124.99 137.707C124.793 137.423 124.706 137.078 124.744 136.735C124.784 136.393 124.945 136.077 125.198 135.845C125.452 135.613 125.78 135.48 126.124 135.471C125.786 135.399 125.486 135.207 125.28 134.93C125.074 134.653 124.976 134.31 125.005 133.966C125.034 133.621 125.187 133.299 125.435 133.058C125.683 132.817 126.01 132.674 126.355 132.654C126.015 132.595 125.708 132.413 125.492 132.143C125.277 131.873 125.169 131.533 125.188 131.188C125.206 130.843 125.347 130.517 125.586 130.268C125.826 130.02 126.147 129.867 126.49 129.837C126.149 129.785 125.838 129.611 125.616 129.346C125.394 129.082 125.276 128.745 125.285 128.4C125.293 128.052 125.427 127.72 125.664 127.466C125.9 127.212 126.222 127.053 126.568 127.02C126.224 126.975 125.909 126.806 125.681 126.545C125.454 126.284 125.33 125.948 125.333 125.602C125.332 125.257 125.457 124.924 125.685 124.665C125.912 124.406 126.226 124.238 126.568 124.194C126.226 124.154 125.91 123.991 125.679 123.735C125.448 123.48 125.318 123.149 125.314 122.804C125.305 122.46 125.423 122.125 125.646 121.862C125.868 121.599 126.179 121.426 126.519 121.377C126.177 121.344 125.858 121.188 125.622 120.938C125.386 120.688 125.249 120.36 125.236 120.017C125.227 119.83 125.255 119.643 125.319 119.468C125.383 119.292 125.481 119.131 125.607 118.994C125.734 118.856 125.887 118.746 126.057 118.668C126.226 118.59 126.41 118.547 126.597 118.541C126.783 118.533 126.969 118.562 127.144 118.626C127.319 118.69 127.48 118.788 127.617 118.915C127.754 119.041 127.865 119.193 127.943 119.362C128.021 119.531 128.065 119.714 128.073 119.901C128.086 120.25 127.971 120.593 127.749 120.863C127.526 121.134 127.213 121.313 126.867 121.367C127.215 121.4 127.539 121.56 127.777 121.816C128.016 122.072 128.152 122.407 128.159 122.756C128.165 123.107 128.041 123.447 127.811 123.712C127.582 123.977 127.263 124.149 126.915 124.194C127.264 124.232 127.586 124.398 127.819 124.66C128.053 124.922 128.181 125.261 128.179 125.612C128.176 125.963 128.043 126.301 127.806 126.561C127.57 126.821 127.245 126.985 126.896 127.02C127.243 127.067 127.561 127.241 127.789 127.508C128.017 127.775 128.138 128.116 128.13 128.467C128.122 128.819 127.983 129.155 127.74 129.41C127.498 129.665 127.169 129.82 126.818 129.847C127.168 129.901 127.484 130.083 127.707 130.358C127.93 130.632 128.043 130.979 128.024 131.332C128.006 131.684 127.858 132.017 127.608 132.267C127.359 132.516 127.026 132.664 126.674 132.683C127.02 132.744 127.332 132.932 127.548 133.21C127.763 133.488 127.868 133.837 127.841 134.188C127.815 134.539 127.659 134.867 127.404 135.11C127.149 135.352 126.813 135.491 126.462 135.5C126.807 135.574 127.111 135.775 127.317 136.062C127.522 136.349 127.612 136.702 127.571 137.053C127.532 137.405 127.364 137.73 127.098 137.964C126.832 138.198 126.488 138.324 126.134 138.317C126.478 138.402 126.778 138.612 126.976 138.906C127.174 139.2 127.255 139.557 127.204 139.908C127.152 140.259 126.97 140.576 126.696 140.8C126.421 141.023 126.072 141.135 125.719 141.114C126.054 141.223 126.337 141.451 126.515 141.755C126.693 142.06 126.753 142.418 126.683 142.764C126.613 143.112 126.415 143.422 126.127 143.631C125.839 143.84 125.484 143.933 125.13 143.893C125.466 144.013 125.745 144.256 125.911 144.572C126.077 144.888 126.118 145.255 126.027 145.6C125.932 145.946 125.711 146.243 125.408 146.434C125.104 146.625 124.74 146.696 124.387 146.632C124.716 146.779 124.976 147.045 125.116 147.376C125.256 147.707 125.264 148.079 125.14 148.417C125.019 148.756 124.773 149.037 124.451 149.2C124.13 149.363 123.759 149.397 123.413 149.295C123.738 149.481 123.977 149.788 124.079 150.149C124.18 150.51 124.135 150.896 123.953 151.224C123.786 151.548 123.5 151.795 123.155 151.914C122.81 152.032 122.433 152.013 122.101 151.861C122.38 152.104 122.555 152.445 122.589 152.813C122.623 153.181 122.514 153.549 122.284 153.838C122.054 154.117 121.726 154.297 121.368 154.342C121.009 154.387 120.647 154.293 120.355 154.08C120.564 154.396 120.638 154.781 120.562 155.152C120.486 155.523 120.266 155.849 119.95 156.057C119.639 156.253 119.263 156.32 118.903 156.245C118.543 156.169 118.227 155.957 118.021 155.652C118.085 156.024 117.999 156.407 117.782 156.716C117.565 157.025 117.235 157.236 116.863 157.302H116.612C116.268 157.322 115.927 157.217 115.654 157.006C115.381 156.795 115.193 156.492 115.126 156.154Z" fill="white"/>
<path d="M126.48 118.618C126.387 118.628 126.293 118.628 126.2 118.618L125.93 118.541C125.845 118.505 125.764 118.46 125.689 118.406C125.609 118.357 125.534 118.298 125.467 118.232C125.213 117.974 125.065 117.63 125.052 117.268C125.042 117.175 125.042 117.081 125.052 116.988C125.072 116.896 125.098 116.806 125.13 116.718C125.169 116.634 125.214 116.554 125.265 116.477C125.314 116.396 125.372 116.322 125.438 116.255C125.508 116.191 125.582 116.133 125.66 116.081C125.735 116.03 125.816 115.988 125.901 115.956C125.988 115.917 126.078 115.887 126.171 115.869C126.353 115.83 126.54 115.83 126.721 115.869C126.814 115.887 126.905 115.917 126.991 115.956C127.077 115.986 127.159 116.028 127.233 116.081C127.312 116.131 127.387 116.189 127.454 116.255C127.521 116.322 127.579 116.396 127.628 116.477C127.682 116.551 127.728 116.632 127.763 116.718C127.795 116.806 127.82 116.896 127.84 116.988C127.85 117.081 127.85 117.175 127.84 117.268C127.828 117.63 127.68 117.974 127.426 118.232C127.288 118.358 127.132 118.462 126.962 118.541L126.692 118.618C126.622 118.624 126.551 118.624 126.48 118.618Z" fill="white"/>
<path d="M96.3539 82.5097C96.3539 82.5097 91.8971 77.445 89.4564 80.9855C87.0157 84.5259 90.479 95.4558 96.3925 92.9765L96.3539 82.5097Z" fill="#FB9E82"/>
<path d="M95.003 89.2624C94.8949 89.2617 94.79 89.2255 94.7045 89.1592C94.6191 89.0929 94.5579 89.0004 94.5303 88.8958C94.1826 87.8686 93.6223 86.9261 92.886 86.1299C92.1496 85.3338 91.2538 84.7017 90.2567 84.275C90.1934 84.2515 90.1353 84.2159 90.0857 84.17C90.0362 84.1241 89.9962 84.0689 89.9679 84.0075C89.9397 83.9461 89.9239 83.8798 89.9213 83.8123C89.9187 83.7448 89.9294 83.6775 89.9529 83.6142C89.9763 83.5508 90.012 83.4927 90.0579 83.4432C90.1038 83.3936 90.159 83.3536 90.2203 83.3254C90.2817 83.2971 90.348 83.2813 90.4155 83.2787C90.483 83.2761 90.5503 83.2869 90.6137 83.3103C91.752 83.7905 92.7726 84.5118 93.6053 85.4244C94.438 86.3371 95.063 87.4194 95.4371 88.5968C95.456 88.6595 95.4619 88.7254 95.4545 88.7905C95.4472 88.8555 95.4266 88.9184 95.3941 88.9753C95.3616 89.0321 95.3179 89.0818 95.2655 89.1212C95.2132 89.1606 95.1534 89.189 95.0898 89.2045L95.003 89.2624Z" fill="#1E8FCE"/>
<path d="M91.6163 87.6128C91.5213 87.6097 91.4286 87.5832 91.3462 87.5357C91.2369 87.4611 91.1608 87.3471 91.1338 87.2175C91.1068 87.088 91.1311 86.9531 91.2015 86.8411C91.6989 86.1809 92.3656 85.6676 93.1309 85.3555C93.2512 85.3017 93.3878 85.298 93.5108 85.345C93.6339 85.392 93.7332 85.486 93.7869 85.6063C93.8406 85.7265 93.8444 85.8632 93.7973 85.9862C93.7503 86.1092 93.6563 86.2085 93.5361 86.2623C92.9612 86.5019 92.4615 86.8918 92.089 87.3909C92.0375 87.467 91.9663 87.5277 91.8832 87.5668C91.8 87.6058 91.7078 87.6217 91.6163 87.6128Z" fill="#1E8FCE"/>
<path d="M131.766 82.5097C131.766 82.5097 136.223 77.445 138.654 80.9855C141.085 84.5259 137.689 95.4558 131.728 92.9765L131.766 82.5097Z" fill="#FB9E82"/>
<path d="M133.137 89.2624C133.245 89.2617 133.35 89.2255 133.436 89.1592C133.521 89.0929 133.582 89.0004 133.61 88.8958C133.958 87.8686 134.518 86.9261 135.254 86.1299C135.991 85.3337 136.886 84.7017 137.883 84.275C138.011 84.2276 138.115 84.1314 138.172 84.0075C138.229 83.8836 138.235 83.7421 138.187 83.6142C138.14 83.4862 138.044 83.3823 137.92 83.3254C137.796 83.2684 137.654 83.2629 137.527 83.3103C136.379 83.7858 135.348 84.5048 134.505 85.4175C133.663 86.3302 133.028 87.4149 132.645 88.5968C132.613 88.7247 132.632 88.8601 132.699 88.9739C132.766 89.0876 132.875 89.1705 133.002 89.2045L133.137 89.2624Z" fill="#1E8FCE"/>
<path d="M136.524 87.6129C136.616 87.6111 136.706 87.5844 136.784 87.5357C136.839 87.4996 136.887 87.453 136.924 87.3985C136.961 87.3441 136.987 87.2829 137 87.2184C137.014 87.1539 137.014 87.0874 137.002 87.0226C136.99 86.9579 136.965 86.8962 136.929 86.8411C136.451 86.182 135.8 85.6679 135.048 85.3555C134.988 85.3283 134.924 85.3132 134.859 85.311C134.793 85.3089 134.728 85.3199 134.667 85.3432C134.606 85.3666 134.55 85.4019 134.503 85.4471C134.456 85.4922 134.418 85.5464 134.392 85.6063C134.34 85.7279 134.338 85.865 134.387 85.9879C134.436 86.1107 134.531 86.2093 134.652 86.2623C135.225 86.5056 135.724 86.8948 136.099 87.391C136.146 87.4598 136.21 87.516 136.284 87.5547C136.358 87.5934 136.44 87.6134 136.524 87.6129Z" fill="#1E8FCE"/>
<path d="M122.515 103.733V114.991C122.515 114.991 119.158 120.721 114.624 121.117C110.09 121.512 106.058 116.177 106.058 116.177V104.524L122.515 103.733Z" fill="#FDBEAB"/>
<path d="M122.515 103.733V108.73C119.467 112.116 114.065 113.312 106.058 112.126V104.524L122.515 103.733Z" fill="#FB9E82"/>
<path d="M134.381 74.7922C134.206 79.5587 133.719 84.3086 132.924 89.0117C132.712 90.1018 132.481 91.1243 132.22 92.0408C129.847 100.337 123.924 114.566 107.331 108.643C100.009 106.019 96.6136 97.8675 95.0991 89.5615C94.2384 84.4636 93.8669 79.2951 93.9897 74.1265C94.0412 72.0941 94.6183 70.1098 95.6648 68.3667C96.7113 66.6237 98.1915 65.1815 99.9611 64.1806C109.753 58.6337 120.075 60.6981 126.886 63.3124C129.182 64.1968 131.142 65.7816 132.487 67.842C133.832 69.9025 134.495 72.334 134.381 74.7922Z" fill="#FDBEAB"/>
<path d="M111.461 63.5536C111.461 63.5536 104.129 76.0945 96.2763 78.1975C95.8904 80.2909 95.1862 83.021 94.2408 82.8956C93.2954 82.7702 93.1218 79.9533 93.1893 78.4001C85.8095 77.1171 93.3244 60.2254 104.901 59.9939L111.461 63.5536Z" fill="#01305A"/>
<path d="M135.2 75.892C135.2 75.892 134.322 83.1368 132.808 82.8956C131.293 82.6545 131.843 77.3776 131.843 77.3776L132.094 77.2619C102.69 75.4579 104.938 60.2158 104.938 60.2158C136.001 53.463 134.901 69.5251 135.22 75.236L135.2 75.892Z" fill="#01305A"/>
<path d="M106.656 83.2139C106.656 84.4101 106.039 85.3844 105.267 85.3844C104.495 85.3844 103.888 84.4197 103.888 83.2139C103.888 82.008 104.505 81.0337 105.267 81.0337C106.029 81.0337 106.656 82.008 106.656 83.2139Z" fill="#01305A"/>
<path d="M123.74 83.2139C123.74 84.4101 123.113 85.3844 122.351 85.3844C121.589 85.3844 120.972 84.4197 120.972 83.2139C120.972 82.008 121.589 81.0337 122.351 81.0337C123.113 81.0337 123.74 82.008 123.74 83.2139Z" fill="#01305A"/>
<path d="M102.527 76.7216C104.455 76.1706 106.446 75.8723 108.451 75.8341C108.602 75.8317 108.752 75.8628 108.889 75.9252C109.027 75.9877 109.149 76.0799 109.247 76.1952C109.345 76.3105 109.416 76.4461 109.455 76.5922C109.494 76.7383 109.5 76.8912 109.473 77.04C109.425 77.2833 109.292 77.5014 109.097 77.6553C108.903 77.8091 108.66 77.8885 108.412 77.8793C106.743 77.8021 102.373 78.0336 100.309 78.8439C100.315 78.4294 100.485 78.0341 100.781 77.7442C101.253 77.2425 101.859 76.8874 102.527 76.7216Z" fill="#01305A"/>
<path d="M124.879 76.7795C122.955 76.2275 120.967 75.9291 118.966 75.892C118.815 75.8895 118.665 75.9206 118.527 75.9831C118.389 76.0455 118.267 76.1377 118.169 76.2531C118.072 76.3684 118.001 76.504 117.962 76.6501C117.922 76.7961 117.916 76.9491 117.943 77.0978C117.986 77.3448 118.117 77.5676 118.313 77.7241C118.508 77.8806 118.754 77.9598 119.004 77.9468C120.664 77.8599 125.043 78.1011 127.108 78.9115C127.099 78.4973 126.93 78.1028 126.635 77.8117C126.163 77.3035 125.553 76.9447 124.879 76.7795Z" fill="#01305A"/>
<path d="M114.142 93.1213C113.739 93.1333 113.339 93.0367 112.985 92.8415C112.759 92.7035 112.57 92.513 112.434 92.2863C112.298 92.0595 112.219 91.8032 112.203 91.5392C112.16 88.7377 112.27 85.936 112.531 83.1464C112.537 83.0767 112.557 83.0089 112.588 82.9467C112.62 82.8845 112.664 82.8292 112.718 82.784C112.771 82.7387 112.833 82.7044 112.899 82.683C112.966 82.6616 113.036 82.6535 113.105 82.6592C113.175 82.6649 113.243 82.6843 113.305 82.7162C113.367 82.7482 113.423 82.792 113.468 82.8453C113.513 82.8986 113.547 82.9603 113.569 83.0269C113.59 83.0934 113.598 83.1636 113.593 83.2332C113.347 85.9561 113.241 88.6897 113.274 91.4234C113.27 91.5225 113.292 91.6209 113.338 91.7089C113.384 91.7969 113.451 91.8714 113.535 91.9251C114.251 92.1041 115.007 92.0326 115.676 91.7225C115.742 91.6812 115.815 91.6546 115.891 91.6445C115.968 91.6345 116.046 91.6413 116.119 91.6644C116.193 91.6875 116.261 91.7263 116.318 91.7783C116.375 91.8302 116.42 91.894 116.45 91.9651C116.48 92.0363 116.494 92.1131 116.491 92.1902C116.488 92.2673 116.468 92.3428 116.433 92.4116C116.398 92.4803 116.348 92.5406 116.288 92.5882C116.227 92.6358 116.157 92.6696 116.082 92.6872C115.466 92.9466 114.81 93.0936 114.142 93.1213Z" fill="#FB9E82"/>
<path d="M107.351 96.5171C107.756 98.5429 109.106 102.305 113.631 102.305C118.155 102.305 119.419 98.8902 119.872 96.5171H107.351Z" fill="white"/>
<path d="M113.564 105.411C112.68 105.377 111.819 105.125 111.056 104.678C110.951 104.597 110.88 104.48 110.856 104.349C110.832 104.218 110.857 104.083 110.926 103.97C110.995 103.856 111.104 103.772 111.231 103.734C111.358 103.696 111.495 103.706 111.615 103.762C112.203 104.106 112.865 104.305 113.545 104.341C114.285 104.315 115.008 104.106 115.648 103.733C115.708 103.696 115.775 103.672 115.844 103.661C115.914 103.651 115.985 103.654 116.053 103.671C116.121 103.688 116.185 103.719 116.241 103.761C116.298 103.803 116.345 103.856 116.381 103.916C116.418 103.976 116.442 104.043 116.452 104.112C116.463 104.182 116.46 104.253 116.443 104.321C116.426 104.389 116.395 104.453 116.353 104.51C116.311 104.566 116.258 104.614 116.198 104.649C115.397 105.12 114.492 105.382 113.564 105.411Z" fill="#FB9E82"/>
<path d="M92.8317 72.6797C92.8317 72.8051 92.7353 73.4129 92.6484 74.2811C92.6691 73.7434 92.7304 73.2081 92.8317 72.6797Z" fill="#01305A"/>
<path d="M116.226 84.3521C116.226 83.0661 116.607 81.809 117.321 80.7398C118.036 79.6705 119.051 78.8371 120.239 78.345C121.427 77.8529 122.735 77.7242 123.996 77.975C125.257 78.2259 126.416 78.8452 127.325 79.7545C128.234 80.6638 128.854 81.8224 129.105 83.0836C129.356 84.3449 129.227 85.6522 128.735 86.8403C128.243 88.0284 127.409 89.0438 126.34 89.7583C125.271 90.4727 124.014 90.8541 122.728 90.8541C121.003 90.8541 119.349 90.1691 118.13 88.9497C116.911 87.7303 116.226 86.0765 116.226 84.3521ZM117.238 84.3521C117.238 85.4377 117.56 86.499 118.164 87.4017C118.767 88.3043 119.624 89.0079 120.627 89.4233C121.63 89.8388 122.734 89.9475 123.798 89.7357C124.863 89.5239 125.841 89.0011 126.609 88.2335C127.377 87.4658 127.899 86.4877 128.111 85.423C128.323 84.3582 128.214 83.2545 127.799 82.2515C127.383 81.2485 126.68 80.3912 125.777 79.7881C124.874 79.1849 123.813 78.863 122.728 78.863C121.272 78.863 119.876 79.4413 118.846 80.4707C117.817 81.5001 117.238 82.8963 117.238 84.3521Z" fill="white"/>
<path d="M98.4551 84.3521C98.4551 83.0661 98.8364 81.809 99.5509 80.7398C100.265 79.6705 101.281 78.8371 102.469 78.345C103.657 77.8529 104.964 77.7242 106.226 77.975C107.487 78.2259 108.645 78.8452 109.555 79.7545C110.464 80.6638 111.083 81.8224 111.334 83.0836C111.585 84.3449 111.456 85.6522 110.964 86.8403C110.472 88.0284 109.639 89.0438 108.569 89.7583C107.5 90.4727 106.243 90.8541 104.957 90.8541C103.233 90.8541 101.579 90.1691 100.359 88.9497C99.1401 87.7303 98.4551 86.0765 98.4551 84.3521ZM99.4198 84.3521C99.4198 85.4377 99.7417 86.499 100.345 87.4017C100.948 88.3043 101.805 89.0079 102.808 89.4233C103.811 89.8388 104.915 89.9475 105.98 89.7357C107.044 89.5239 108.023 89.0011 108.79 88.2335C109.558 87.4658 110.081 86.4877 110.292 85.423C110.504 84.3582 110.396 83.2545 109.98 82.2515C109.565 81.2485 108.861 80.3912 107.958 79.7881C107.056 79.1849 105.994 78.863 104.909 78.863C103.461 78.8757 102.078 79.4597 101.059 80.4877C100.04 81.5157 99.4679 82.9046 99.468 84.3521H99.4198Z" fill="white"/>
<path d="M99.1415 81.2845C97.042 79.9673 94.7317 79.021 92.3115 78.4869C92.2241 78.4714 92.1344 78.4752 92.0486 78.4981C91.9629 78.521 91.8831 78.5624 91.8151 78.6194C91.7471 78.6764 91.6923 78.7477 91.6548 78.8281C91.6172 78.9085 91.5977 78.9962 91.5977 79.085C91.5991 79.2233 91.6476 79.357 91.7353 79.464C91.823 79.571 91.9446 79.6449 92.08 79.6734C94.3448 80.1854 96.5092 81.0688 98.4855 82.2878C98.5815 82.3556 98.696 82.3926 98.8135 82.3939C98.9421 82.3907 99.0663 82.3469 99.1683 82.2687C99.2704 82.1905 99.345 82.0819 99.3815 81.9586C99.4179 81.8353 99.4143 81.7036 99.3712 81.5825C99.3281 81.4613 99.2477 81.357 99.1415 81.2845Z" fill="white"/>
<path d="M128.284 81.4485C130.379 80.1227 132.691 79.1757 135.114 78.651C135.201 78.6338 135.29 78.6362 135.376 78.6578C135.462 78.6795 135.542 78.7199 135.61 78.7762C135.679 78.8325 135.734 78.9033 135.771 78.9834C135.809 79.0635 135.828 79.1509 135.828 79.2394C135.828 79.3782 135.78 79.5129 135.692 79.6202C135.604 79.7276 135.482 79.801 135.346 79.8279C133.078 80.3363 130.913 81.2234 128.94 82.4518C128.843 82.5168 128.729 82.5505 128.612 82.5483C128.483 82.5488 128.357 82.5074 128.253 82.4304C128.15 82.3534 128.074 82.2449 128.037 82.1211C128 81.9973 128.004 81.8649 128.049 81.7437C128.093 81.6224 128.176 81.5189 128.284 81.4485Z" fill="white"/>
<path d="M111.103 82.8954C111.43 82.4424 111.848 82.062 112.329 81.7781C112.811 81.4942 113.346 81.313 113.901 81.2458C114.436 81.3117 114.951 81.4923 115.411 81.7753C115.87 82.0583 116.263 82.4371 116.563 82.8858L117.412 82.3359C117.024 81.7427 116.506 81.2452 115.898 80.881C115.29 80.5167 114.607 80.2951 113.901 80.2329C113.184 80.2996 112.49 80.5182 111.865 80.8741C111.239 81.2301 110.697 81.7153 110.273 82.2973L111.103 82.8954Z" fill="white"/>
<path d="M160.022 188.77C156.472 198.928 140.584 198.195 122.486 192.629H122.4L122.236 192.581L119.747 191.79L118.714 191.442C116.785 190.786 114.798 190.082 112.82 189.33C106.3 186.841 99.9152 184.014 93.6904 180.86V180.754L95.533 175.93L96.1697 174.29C96.1697 174.29 129.731 177.946 146.604 174.416L147.443 174.232C147.375 173.856 147.346 173.48 147.25 173.123C138.307 142.687 148.08 136.851 151.359 132.606C151.427 132.606 166.775 169.592 160.022 188.77Z" fill="#1E8FCE"/>
<path d="M154.573 179.355C154.476 179.401 154.371 179.424 154.264 179.422C154.129 179.423 153.997 179.385 153.882 179.313C153.768 179.241 153.676 179.139 153.618 179.017C152.344 176.403 148.003 174.85 146.672 174.415L147.511 174.232C147.444 173.856 147.376 173.489 147.318 173.123C149.006 173.682 153.434 175.39 154.901 178.39C154.943 178.475 154.969 178.567 154.975 178.662C154.982 178.756 154.97 178.851 154.939 178.941C154.909 179.031 154.86 179.114 154.798 179.185C154.735 179.256 154.658 179.314 154.573 179.355Z" fill="#19478B"/>
<path d="M107.572 178.072C100.723 178.072 95.1662 177.686 94.6839 177.647C94.5901 177.641 94.4985 177.616 94.4144 177.574C94.3302 177.533 94.255 177.475 94.1932 177.404C94.1314 177.333 94.0841 177.251 94.0541 177.162C94.0241 177.073 94.0119 176.979 94.0182 176.885C94.0246 176.791 94.0493 176.7 94.091 176.616C94.1328 176.531 94.1907 176.456 94.2614 176.395C94.3322 176.333 94.4144 176.285 94.5035 176.255C94.5925 176.225 94.6866 176.213 94.7803 176.22C95.0408 176.22 120.21 178.014 130.136 173.991C130.313 173.921 130.51 173.923 130.685 173.998C130.859 174.074 130.997 174.215 131.067 174.391C131.137 174.568 131.135 174.765 131.06 174.94C130.985 175.114 130.843 175.252 130.667 175.322C125.178 177.551 115.511 178.072 107.572 178.072Z" fill="#19478B"/>
<path d="M119.767 191.77C125.506 190.178 130.725 188.635 133.745 187.67C137.932 186.329 141.395 182.104 142.967 178.506C143.004 178.416 143.058 178.335 143.128 178.267C143.197 178.199 143.279 178.146 143.37 178.112C143.46 178.078 143.557 178.062 143.654 178.067C143.75 178.072 143.845 178.096 143.932 178.139C144.021 178.177 144.101 178.232 144.168 178.301C144.235 178.371 144.287 178.453 144.321 178.543C144.356 178.633 144.371 178.729 144.367 178.826C144.364 178.922 144.34 179.017 144.299 179.104C142.591 182.963 138.81 187.583 134.198 189.069C132.008 189.773 128.671 190.767 124.812 191.876C123.165 192.343 121.418 192.316 119.786 191.799L119.767 191.77Z" fill="#19478B"/>
<path d="M135.24 186.85C83.3784 204.311 67.4128 192.88 67.4128 192.88C63.9206 161.305 76.7799 132.915 76.7799 132.915C80.5808 139.185 84.8833 150.125 84.8833 150.125L86.0216 174.329L85.9348 174.994V175.313L85.7129 176.972L86.0409 177.049C101.736 180.358 130.417 176.653 130.417 176.653L135.24 186.85Z" fill="#1E8FCE"/>
<path d="M86.0225 177.049C83.1215 179.469 80.4976 182.203 78.1989 185.201C78.0864 185.343 77.9242 185.437 77.7451 185.464C77.566 185.49 77.3833 185.448 77.2342 185.345C77.0941 185.232 77.0016 185.07 76.9748 184.891C76.948 184.713 76.9889 184.531 77.0895 184.381C79.6661 181.019 82.6396 177.98 85.9453 175.332L85.7234 176.991L86.0225 177.049Z" fill="#19478B"/>
<path d="M130.405 176.682C130.405 176.682 136.145 163.64 144.876 164.807L147.509 174.232C142.686 176.268 142.03 184.458 135.248 186.85L130.405 176.682Z" fill="#FDBEAB"/>
<path d="M96.2374 174.29C94.9498 171.629 93.1091 169.273 90.8383 167.38C88.5676 165.487 85.9189 164.1 83.0694 163.312C73.5286 160.842 67.4511 165.338 66.8048 167.036C66.1584 168.734 70.403 167.103 70.403 167.103C68.6116 167.698 67.0789 168.89 66.062 170.48C64.4799 173.075 69.9207 170.277 69.9207 170.277C69.9207 170.277 66.062 171.985 65.5217 173.576C64.9815 175.168 70.1715 172.477 71.1362 172.534C71.1362 172.534 66.5443 174.358 66.5732 175.988C66.6022 177.618 71.8501 174.956 75.7667 175.168C79.1375 175.522 82.4736 176.151 85.7416 177.049C88.7233 177.657 91.7436 178.056 94.7807 178.245L96.2374 174.29Z" fill="#FDBEAB"/>
<path d="M278.332 191.683H165.444C161.582 191.683 158.45 194.815 158.45 198.677V255.883C158.45 259.746 161.582 262.877 165.444 262.877H278.332C282.195 262.877 285.326 259.746 285.326 255.883V198.677C285.326 194.815 282.195 191.683 278.332 191.683Z" fill="#001336"/>
<path d="M278.332 195.532H165.444C161.582 195.532 158.45 198.664 158.45 202.526V255.893C158.45 259.756 161.582 262.887 165.444 262.887H278.332C282.195 262.887 285.326 259.756 285.326 255.893V202.526C285.326 198.664 282.195 195.532 278.332 195.532Z" fill="#01305A"/>
<path d="M231.709 262.8H212.059V285.2H231.709V262.8Z" fill="#001336"/>
<path d="M231.409 228.177C231.409 230.106 230.837 231.992 229.766 233.596C228.694 235.2 227.171 236.45 225.389 237.188C223.607 237.926 221.645 238.119 219.754 237.743C217.862 237.367 216.124 236.438 214.76 235.074C213.396 233.71 212.467 231.972 212.091 230.08C211.714 228.188 211.908 226.227 212.646 224.445C213.384 222.663 214.634 221.14 216.238 220.068C217.842 218.996 219.727 218.424 221.656 218.424C222.937 218.424 224.205 218.677 225.389 219.167C226.572 219.657 227.647 220.375 228.553 221.281C229.458 222.187 230.177 223.262 230.667 224.445C231.157 225.628 231.409 226.897 231.409 228.177Z" fill="#1E8FCE"/>
<path d="M202.121 277.251H241.056C242.619 277.251 244.118 277.872 245.224 278.977C246.329 280.083 246.95 281.582 246.95 283.145V285.2H196.227V283.165C196.224 282.389 196.375 281.62 196.67 280.903C196.965 280.186 197.399 279.534 197.946 278.984C198.494 278.435 199.144 277.999 199.861 277.701C200.577 277.404 201.345 277.251 202.121 277.251Z" fill="#01305A"/>
<path d="M62.2699 286.377H45.6676C44.5673 286.377 43.4953 286.029 42.6048 285.382C41.7143 284.736 41.0508 283.825 40.7091 282.779L33.6476 261.102C33.5796 260.895 33.5598 260.674 33.5897 260.458C33.6197 260.242 33.6986 260.035 33.8204 259.854C33.9422 259.672 34.1038 259.521 34.2928 259.411C34.4819 259.302 34.6934 259.237 34.9113 259.221C47.5839 258.228 60.3149 258.228 72.9875 259.221C73.2055 259.237 73.417 259.302 73.606 259.411C73.795 259.521 73.9566 259.672 74.0784 259.854C74.2003 260.035 74.2792 260.242 74.3091 260.458C74.3391 260.674 74.3193 260.895 74.2513 261.102L67.2091 282.779C66.8671 283.821 66.2062 284.729 65.3198 285.375C64.4335 286.021 63.3665 286.371 62.2699 286.377Z" fill="#1E8FCE"/>
<path d="M54.0802 261.835C64.4162 261.835 72.7951 261.369 72.7951 260.794C72.7951 260.218 64.4162 259.752 54.0802 259.752C43.7442 259.752 35.3652 260.218 35.3652 260.794C35.3652 261.369 43.7442 261.835 54.0802 261.835Z" fill="#01305A"/>
<path d="M54.871 260.794V233.782C54.871 233.55 54.7785 233.326 54.6138 233.162C54.4492 232.997 54.2259 232.905 53.9931 232.905C53.7603 232.905 53.537 232.997 53.3724 233.162C53.2077 233.326 53.1152 233.55 53.1152 233.782V260.794C53.3774 260.961 53.682 261.05 53.9931 261.05C54.3042 261.05 54.6088 260.961 54.871 260.794Z" fill="#19478B"/>
<path d="M53.9648 240.12C53.9648 240.12 55.6338 228.177 70.9819 228.177C70.9819 228.177 68.3773 245.098 53.9648 240.12Z" fill="#1E8FCE"/>
<path d="M54.7554 243.806C54.7554 243.806 53.0865 231.815 37.7383 231.815C37.7383 231.815 40.4008 248.784 54.7554 243.806Z" fill="#1E8FCE"/>
<path d="M54.9292 254.456C54.9292 254.456 50.9932 243.005 35.9248 245.957C35.9248 245.957 41.7612 262.096 54.9292 254.456Z" fill="#1E8FCE"/>
<path d="M53.9541 254.359C53.9541 254.359 65.2409 258.748 72.7173 245.339C72.7173 245.339 56.6166 239.377 53.9541 254.359Z" fill="#1E8FCE"/>
</svg>
