<svg width="483" height="483" viewBox="0 0 483 483" fill="none" xmlns="http://www.w3.org/2000/svg">
<path d="M452.571 104.502C451.038 101.926 449.428 99.3789 447.741 96.8609C425.359 63.6884 386.825 40.9971 348.919 30.7382C332.288 26.311 315.203 23.8151 298.001 23.3C185.346 19.4843 140.475 108.308 103.246 131.183C66.0162 154.058 8.69373 193.2 12.5577 275.31C16.4217 357.42 75.5602 434.7 190.118 439.53C304.676 444.36 312.317 392.756 376.276 373.658C418.606 361.023 448.726 318.345 463.409 278.913C483.483 225.155 482.536 155.342 452.571 104.502Z" fill="#1E8FCE"/>
<path opacity="0.7" d="M452.571 104.502C451.038 101.926 449.428 99.3789 447.741 96.8609C425.359 63.6884 386.825 40.9971 348.919 30.7382C332.288 26.311 315.203 23.8151 298.001 23.3C185.346 19.4843 140.475 108.308 103.246 131.183C66.0162 154.058 8.69373 193.2 12.5577 275.31C16.4217 357.42 75.5602 434.7 190.118 439.53C304.676 444.36 312.317 392.756 376.276 373.658C418.606 361.023 448.726 318.345 463.409 278.913C483.483 225.155 482.536 155.342 452.571 104.502Z" fill="white"/>
<path d="M25.8018 451.47H471.601" stroke="#263238" stroke-miterlimit="10" stroke-linecap="round"/>
<path d="M358.985 61.6599C358.987 59.6969 358.407 57.7775 357.317 56.1445C356.228 54.5116 354.679 53.2385 352.865 52.4864C351.052 51.7343 349.057 51.537 347.131 51.9195C345.206 52.302 343.437 53.2471 342.049 54.6351C340.661 56.0231 339.716 57.7918 339.334 59.7171C338.951 61.6425 339.149 63.638 339.901 65.4512C340.653 67.2644 341.926 68.8137 343.559 69.9031C345.192 70.9925 347.111 71.5729 349.074 71.571C351.702 71.5684 354.221 70.5234 356.079 68.6653C357.938 66.8071 358.983 64.2877 358.985 61.6599Z" stroke="#ABABAB" stroke-miterlimit="10"/>
<path d="M372.084 64.4902V58.8198H365.467C365.052 56.3844 364.094 54.0734 362.666 52.0578L367.341 47.3823L363.342 43.3734L358.657 48.0489C356.638 46.6266 354.328 45.6698 351.895 45.2475V38.64H346.225V45.2571C343.792 45.6813 341.483 46.6379 339.463 48.0585L334.777 43.3831L330.778 47.392L335.454 52.0674C334.033 54.0875 333.076 56.3966 332.652 58.8294H326.035V64.4998H332.652C333.075 66.9332 334.031 69.2427 335.454 71.2618L330.778 75.9469L334.777 79.9462L339.463 75.2707C341.478 76.6993 343.789 77.6567 346.225 78.0721V84.6892H351.895V78.0528C354.331 77.6396 356.642 76.682 358.657 75.2514L363.342 79.9269L367.341 75.9276L362.666 71.2425C364.096 69.228 365.054 66.9166 365.467 64.4805L372.084 64.4902Z" stroke="#ABABAB" stroke-miterlimit="10"/>
<path d="M381.995 97.7688C381.995 95.8086 381.414 93.8924 380.325 92.2625C379.236 90.6326 377.688 89.3623 375.877 88.6121C374.066 87.862 372.073 87.6657 370.15 88.0481C368.228 88.4305 366.462 89.3745 365.076 90.7606C363.69 92.1467 362.746 93.9127 362.363 95.8353C361.981 97.7578 362.177 99.7506 362.927 101.562C363.677 103.373 364.948 104.921 366.578 106.01C368.208 107.099 370.124 107.68 372.084 107.68C374.713 107.68 377.234 106.636 379.092 104.777C380.951 102.918 381.995 100.397 381.995 97.7688Z" stroke="#ABABAB" stroke-miterlimit="10"/>
<path d="M395.094 100.599V94.9385H388.477C388.06 92.5035 387.103 90.1928 385.675 88.1765L390.361 83.5011L386.4 79.4922L381.715 84.1773C379.7 82.7467 377.389 81.7891 374.953 81.3759V74.7588H369.292V81.3759C366.857 81.791 364.546 82.7484 362.53 84.1773L357.855 79.4922L353.846 83.5011L358.521 88.1765C357.101 90.1958 356.147 92.5055 355.729 94.9385H349.112V100.599H355.729C356.147 103.032 357.101 105.342 358.521 107.361L353.807 112.056L357.816 116.065L362.491 111.38C364.507 112.809 366.818 113.766 369.253 114.181V120.75H374.914V114.133C377.35 113.72 379.662 112.762 381.676 111.332L386.361 116.017L390.361 112.056L385.675 107.381C387.103 105.364 388.06 103.054 388.477 100.619L395.094 100.599Z" stroke="#ABABAB" stroke-miterlimit="10"/>
<path d="M95.6339 269.755H52.8594V300.861H95.6339V269.755Z" stroke="#ABABAB" stroke-miterlimit="10"/>
<path d="M95.6339 287.771L88.4275 278.594L76.9514 290.264L67.3204 284.951L52.8594 300.861H95.6339V287.771Z" stroke="#ABABAB" stroke-miterlimit="10"/>
<path d="M61.9692 281.637C64.3646 281.637 66.3065 279.695 66.3065 277.3C66.3065 274.905 64.3646 272.963 61.9692 272.963C59.5737 272.963 57.6318 274.905 57.6318 277.3C57.6318 279.695 59.5737 281.637 61.9692 281.637Z" stroke="#ABABAB" stroke-miterlimit="10"/>
<path d="M68.7696 232.304H25.9951V263.409H68.7696V232.304Z" stroke="#ABABAB" stroke-miterlimit="10"/>
<path d="M68.7599 250.32L61.5632 241.143L50.0775 252.812L40.4561 247.499L25.9951 263.419H68.7599V250.32Z" stroke="#ABABAB" stroke-miterlimit="10"/>
<path d="M39.4325 239.848C39.4325 238.99 39.1781 238.152 38.7015 237.439C38.2249 236.725 37.5475 236.169 36.755 235.841C35.9624 235.513 35.0903 235.427 34.249 235.594C33.4076 235.762 32.6348 236.175 32.0282 236.781C31.4216 237.388 31.0085 238.161 30.8412 239.002C30.6738 239.843 30.7597 240.715 31.088 241.508C31.4163 242.301 31.9722 242.978 32.6855 243.455C33.3987 243.931 34.2373 244.186 35.0952 244.186C36.2455 244.186 37.3487 243.729 38.1621 242.915C38.9755 242.102 39.4325 240.999 39.4325 239.848Z" stroke="#ABABAB" stroke-miterlimit="10"/>
<path d="M443.133 143.75H392.138V153.951H443.133V143.75Z" stroke="#ABABAB" stroke-miterlimit="10"/>
<path d="M443.133 156.502H392.138V166.703H443.133V156.502Z" stroke="#ABABAB" stroke-miterlimit="10"/>
<path d="M443.133 169.263H392.138V179.464H443.133V169.263Z" stroke="#ABABAB" stroke-miterlimit="10"/>
<path d="M443.133 182.014H392.138V192.215H443.133V182.014Z" stroke="#ABABAB" stroke-miterlimit="10"/>
<path d="M443.133 194.765H392.138V204.966H443.133V194.765Z" stroke="#ABABAB" stroke-miterlimit="10"/>
<path d="M428.103 149.141C428.104 148.769 427.996 148.406 427.791 148.096C427.586 147.786 427.293 147.545 426.95 147.402C426.607 147.259 426.23 147.221 425.865 147.293C425.501 147.365 425.166 147.543 424.903 147.806C424.641 148.069 424.462 148.403 424.39 148.768C424.318 149.132 424.356 149.51 424.499 149.853C424.642 150.196 424.884 150.488 425.193 150.693C425.503 150.899 425.867 151.007 426.238 151.005C426.733 151.005 427.207 150.809 427.556 150.459C427.906 150.109 428.103 149.635 428.103 149.141Z" stroke="#ABABAB" stroke-miterlimit="10"/>
<path d="M434.632 149.141C434.632 148.772 434.523 148.412 434.318 148.105C434.113 147.798 433.822 147.559 433.481 147.418C433.141 147.277 432.766 147.24 432.404 147.312C432.042 147.384 431.71 147.562 431.449 147.822C431.189 148.083 431.011 148.415 430.939 148.777C430.867 149.139 430.904 149.514 431.045 149.854C431.186 150.195 431.425 150.486 431.732 150.691C432.038 150.896 432.399 151.005 432.768 151.005C433.013 151.006 433.256 150.959 433.483 150.866C433.709 150.773 433.915 150.635 434.089 150.462C434.262 150.289 434.4 150.082 434.493 149.856C434.586 149.629 434.633 149.386 434.632 149.141Z" stroke="#ABABAB" stroke-miterlimit="10"/>
<path d="M426.237 163.447C427.267 163.447 428.102 162.613 428.102 161.583C428.102 160.553 427.267 159.719 426.237 159.719C425.208 159.719 424.373 160.553 424.373 161.583C424.373 162.613 425.208 163.447 426.237 163.447Z" stroke="#ABABAB" stroke-miterlimit="10"/>
<path d="M432.768 163.447C433.797 163.447 434.632 162.613 434.632 161.583C434.632 160.553 433.797 159.719 432.768 159.719C431.738 159.719 430.903 160.553 430.903 161.583C430.903 162.613 431.738 163.447 432.768 163.447Z" stroke="#ABABAB" stroke-miterlimit="10"/>
<path d="M426.237 175.899C427.267 175.899 428.102 175.064 428.102 174.035C428.102 173.005 427.267 172.17 426.237 172.17C425.208 172.17 424.373 173.005 424.373 174.035C424.373 175.064 425.208 175.899 426.237 175.899Z" stroke="#ABABAB" stroke-miterlimit="10"/>
<path d="M432.768 175.899C433.797 175.899 434.632 175.064 434.632 174.035C434.632 173.005 433.797 172.17 432.768 172.17C431.738 172.17 430.903 173.005 430.903 174.035C430.903 175.064 431.738 175.899 432.768 175.899Z" stroke="#ABABAB" stroke-miterlimit="10"/>
<path d="M428.103 186.438C428.104 186.067 427.996 185.703 427.791 185.393C427.586 185.084 427.293 184.842 426.95 184.699C426.607 184.556 426.23 184.518 425.865 184.59C425.501 184.662 425.166 184.841 424.903 185.103C424.641 185.366 424.462 185.701 424.39 186.065C424.318 186.43 424.356 186.807 424.499 187.15C424.642 187.493 424.884 187.785 425.193 187.991C425.503 188.196 425.867 188.304 426.238 188.302C426.733 188.302 427.207 188.106 427.556 187.756C427.906 187.407 428.103 186.932 428.103 186.438Z" stroke="#ABABAB" stroke-miterlimit="10"/>
<path d="M434.633 186.438C434.62 186.072 434.499 185.719 434.286 185.421C434.074 185.124 433.778 184.895 433.436 184.764C433.095 184.634 432.722 184.606 432.365 184.686C432.008 184.765 431.682 184.948 431.428 185.211C431.174 185.474 431.003 185.806 430.936 186.166C430.87 186.526 430.91 186.897 431.053 187.234C431.196 187.571 431.435 187.858 431.74 188.06C432.045 188.262 432.403 188.37 432.768 188.37C433.019 188.372 433.268 188.322 433.5 188.225C433.731 188.127 433.94 187.984 434.114 187.803C434.289 187.623 434.424 187.408 434.514 187.174C434.603 186.939 434.643 186.689 434.633 186.438Z" stroke="#ABABAB" stroke-miterlimit="10"/>
<path d="M426.237 200.783C427.267 200.783 428.102 199.948 428.102 198.919C428.102 197.889 427.267 197.054 426.237 197.054C425.208 197.054 424.373 197.889 424.373 198.919C424.373 199.948 425.208 200.783 426.237 200.783Z" stroke="#ABABAB" stroke-miterlimit="10"/>
<path d="M432.768 200.783C433.797 200.783 434.632 199.948 434.632 198.919C434.632 197.889 433.797 197.054 432.768 197.054C431.738 197.054 430.903 197.889 430.903 198.919C430.903 199.948 431.738 200.783 432.768 200.783Z" stroke="#ABABAB" stroke-miterlimit="10"/>
<path d="M426.054 312.907C448.462 312.907 466.626 294.742 466.626 272.335C466.626 249.927 448.462 231.763 426.054 231.763C403.647 231.763 385.482 249.927 385.482 272.335C385.482 294.742 403.647 312.907 426.054 312.907Z" stroke="#ABABAB" stroke-miterlimit="10"/>
<path d="M426.054 312.907C436.191 312.907 444.408 294.742 444.408 272.335C444.408 249.927 436.191 231.763 426.054 231.763C415.918 231.763 407.7 249.927 407.7 272.335C407.7 294.742 415.918 312.907 426.054 312.907Z" stroke="#ABABAB" stroke-miterlimit="10"/>
<path d="M396.62 245.422H455.73" stroke="#ABABAB" stroke-miterlimit="10"/>
<path d="M396.62 299.421H455.73" stroke="#ABABAB" stroke-miterlimit="10"/>
<path d="M385.676 272.064H466.675" stroke="#ABABAB" stroke-miterlimit="10"/>
<path d="M77.4156 393.162C83.0121 393.162 87.5489 381.264 87.5489 366.587C87.5489 351.911 83.0121 340.013 77.4156 340.013C71.8191 340.013 67.2822 351.911 67.2822 366.587C67.2822 381.264 71.8191 393.162 77.4156 393.162Z" fill="#1E8FCE" stroke="#263238" stroke-miterlimit="10"/>
<path d="M108.891 350.224C112.06 340.254 111.113 331.053 106.776 329.675C102.439 328.297 96.3542 335.262 93.1856 345.233C90.0169 355.204 90.9641 364.404 95.3012 365.782C99.6383 367.16 105.723 360.195 108.891 350.224Z" fill="#1E8FCE" stroke="#263238" stroke-miterlimit="10"/>
<path d="M34.5441 410.318C24.2272 408.57 16.4896 403.556 17.2431 399.026C17.9965 394.495 26.99 392.312 37.2972 394.06C47.6044 395.809 55.3614 400.822 54.5983 405.353C53.8351 409.883 44.861 412.067 34.5441 410.318Z" fill="#1E8FCE" stroke="#263238" stroke-miterlimit="10"/>
<path d="M118.429 385.76C127.043 377.217 130.832 367.07 126.891 363.097C122.951 359.123 112.773 362.826 104.158 371.369C95.5439 379.912 91.7551 390.058 95.6958 394.032C99.6365 398.006 109.814 394.302 118.429 385.76Z" fill="#1E8FCE" stroke="#263238" stroke-miterlimit="10"/>
<path d="M64.6418 390.749C69.9085 387.119 67.4252 374.38 59.0953 362.296C50.7654 350.212 39.7432 343.359 34.4766 346.99C29.2099 350.62 31.6932 363.359 40.0231 375.443C48.353 387.527 59.3751 394.38 64.6418 390.749Z" fill="#1E8FCE" stroke="#263238" stroke-miterlimit="10"/>
<path d="M78.1201 391.848L78.9122 428.382" stroke="#263238" stroke-miterlimit="10" stroke-linecap="round"/>
<path d="M77.1836 356.705L78.1206 391.848" stroke="#263238" stroke-miterlimit="10" stroke-linecap="round"/>
<path d="M77.2512 350.977L77.1836 353.672" stroke="#263238" stroke-miterlimit="10" stroke-linecap="round"/>
<path d="M64.5771 389.047C70.3915 401.048 73.7918 414.075 74.5849 427.387" stroke="#263238" stroke-miterlimit="10" stroke-linecap="round"/>
<path d="M47.1797 362.414C54.13 370.482 59.9772 379.438 64.5677 389.047" stroke="#263238" stroke-miterlimit="10" stroke-linecap="round"/>
<path d="M41.7021 356.628C41.7021 356.628 42.7454 357.594 44.4746 359.42" stroke="#263238" stroke-miterlimit="10" stroke-linecap="round"/>
<path d="M96.3292 392.795C89.2246 402.761 83.6865 413.756 79.9072 425.397" stroke="#263238" stroke-miterlimit="10" stroke-linecap="round"/>
<path d="M107.989 379.396C103.699 383.495 99.7963 387.98 96.3291 392.795" stroke="#263238" stroke-miterlimit="10" stroke-linecap="round"/>
<path d="M120.441 369.91C117.274 371.701 114.3 373.811 111.563 376.209" stroke="#263238" stroke-miterlimit="10" stroke-linecap="round"/>
<path d="M95.9044 363.284C90.2919 380.952 82.7571 407.053 79.2119 429.715" stroke="#263238" stroke-miterlimit="10" stroke-linecap="round"/>
<path d="M99.3239 352.812C98.3579 355.788 97.1601 359.323 95.9043 363.284" stroke="#263238" stroke-miterlimit="10" stroke-linecap="round"/>
<path d="M102.83 342.669C102.83 342.669 101.864 345.374 100.271 350.011" stroke="#263238" stroke-miterlimit="10" stroke-linecap="round"/>
<path d="M54.0957 402.909C58.1106 404.315 61.749 406.625 64.7302 409.66C67.7114 412.695 69.9559 416.373 71.2905 420.413" stroke="#263238" stroke-miterlimit="10" stroke-linecap="round"/>
<path d="M41.123 400.272C45.5555 400.494 49.9291 401.383 54.0964 402.909" stroke="#263238" stroke-miterlimit="10" stroke-linecap="round"/>
<path d="M32.7285 400.484C32.7285 400.484 33.9747 400.301 36.0322 400.224" stroke="#263238" stroke-miterlimit="10" stroke-linecap="round"/>
<path d="M122.807 410.318C133.124 408.57 140.872 403.556 140.108 399.026C139.345 394.495 130.371 392.312 120.054 394.06C109.737 395.809 102 400.822 102.763 405.353C103.526 409.883 112.5 412.067 122.807 410.318Z" fill="#1E8FCE" stroke="#263238" stroke-miterlimit="10"/>
<path d="M103.497 402.822C96.4069 405.459 89.4517 410.598 86.1094 420.413" stroke="#263238" stroke-miterlimit="10" stroke-linecap="round"/>
<path d="M117.321 400.224C112.605 400.359 107.94 401.236 103.497 402.822" stroke="#263238" stroke-miterlimit="10" stroke-linecap="round"/>
<path d="M124.614 400.484C124.614 400.484 123.793 400.359 122.383 400.272" stroke="#263238" stroke-miterlimit="10" stroke-linecap="round"/>
<path d="M103.362 451.47C106.491 444.935 108.14 437.791 108.192 430.546C108.192 426.21 107.541 421.899 106.26 417.756H52.2513C50.971 421.899 50.3197 426.21 50.3193 430.546C50.3713 437.791 52.0204 444.935 55.1493 451.47H103.362Z" fill="#263238"/>
<path d="M50.8691 423.736C50.7146 424.702 50.5987 425.716 50.5117 426.731H107.969C107.882 425.716 107.767 424.721 107.612 423.736H50.8691Z" fill="#7A7A7A"/>
<path d="M107.362 439.018C107.545 438.052 107.7 437.028 107.816 436.023H50.667C50.7829 436.989 50.9375 438.023 51.121 439.018H107.362Z" fill="#7A7A7A"/>
<path d="M57.3124 430.71C57.3124 431.171 57.1758 431.621 56.92 432.004C56.6642 432.387 56.3006 432.685 55.8752 432.861C55.4498 433.037 54.9817 433.084 54.5301 432.994C54.0785 432.904 53.6637 432.682 53.3381 432.357C53.0125 432.031 52.7908 431.616 52.701 431.165C52.6112 430.713 52.6573 430.245 52.8335 429.819C53.0097 429.394 53.3081 429.03 53.6909 428.775C54.0738 428.519 54.5239 428.382 54.9843 428.382C55.6017 428.382 56.1939 428.628 56.6305 429.064C57.0671 429.501 57.3124 430.093 57.3124 430.71Z" fill="#8C8C8C"/>
<path d="M68.9432 430.71C68.9432 431.173 68.8056 431.624 68.548 432.008C68.2905 432.391 67.9246 432.69 67.4969 432.865C67.0693 433.04 66.5992 433.084 66.1466 432.991C65.694 432.898 65.2793 432.672 64.9553 432.343C64.6313 432.013 64.4126 431.595 64.3272 431.14C64.2418 430.686 64.2935 430.217 64.4756 429.792C64.6578 429.368 64.9622 429.007 65.35 428.756C65.7379 428.505 66.1918 428.375 66.6538 428.382C67.2645 428.393 67.8468 428.642 68.2751 429.078C68.7033 429.513 68.9433 430.1 68.9432 430.71Z" fill="#8C8C8C"/>
<path d="M80.5741 430.71C80.5741 431.171 80.4376 431.621 80.1817 432.004C79.9259 432.387 79.5623 432.685 79.1369 432.861C78.7115 433.037 78.2434 433.084 77.7918 432.994C77.3402 432.904 76.9254 432.682 76.5998 432.357C76.2743 432.031 76.0525 431.616 75.9627 431.165C75.8729 430.713 75.919 430.245 76.0952 429.819C76.2714 429.394 76.5698 429.03 76.9526 428.775C77.3355 428.519 77.7856 428.382 78.246 428.382C78.8635 428.382 79.4556 428.628 79.8922 429.064C80.3288 429.501 80.5741 430.093 80.5741 430.71Z" fill="#8C8C8C"/>
<path d="M92.1952 430.71C92.1952 431.171 92.0584 431.622 91.8022 432.005C91.5459 432.388 91.1818 432.686 90.7558 432.862C90.3298 433.038 89.8612 433.084 89.4094 432.993C88.9575 432.902 88.5427 432.68 88.2175 432.353C87.8923 432.027 87.6714 431.611 87.5826 431.159C87.4939 430.706 87.5414 430.238 87.7191 429.813C87.8968 429.388 88.1966 429.025 88.5808 428.77C88.9649 428.515 89.4159 428.38 89.8768 428.382C90.4925 428.385 91.0822 428.631 91.5167 429.068C91.9512 429.504 92.1952 430.095 92.1952 430.71Z" fill="#8C8C8C"/>
<path d="M103.826 430.71C103.826 431.171 103.69 431.621 103.434 432.004C103.178 432.387 102.814 432.685 102.389 432.861C101.963 433.037 101.495 433.084 101.044 432.994C100.592 432.904 100.177 432.682 99.8518 432.357C99.5262 432.031 99.3045 431.616 99.2147 431.165C99.1248 430.713 99.1709 430.245 99.3471 429.819C99.5233 429.394 99.8217 429.03 100.205 428.775C100.587 428.519 101.038 428.382 101.498 428.382C102.115 428.382 102.708 428.628 103.144 429.064C103.581 429.501 103.826 430.093 103.826 430.71Z" fill="#8C8C8C"/>
<path d="M159.312 266.336H400.377C403.641 266.336 406.772 267.632 409.08 269.94C411.388 272.248 412.684 275.379 412.684 278.643V438.776H147.034V278.633C147.037 275.376 148.33 272.252 150.632 269.947C152.933 267.642 156.055 266.343 159.312 266.336Z" fill="#263238" stroke="#263238" stroke-linecap="round" stroke-linejoin="round"/>
<path d="M371.746 430.479H189.162V439.472H371.746V430.479Z" fill="#263238" stroke="#263238" stroke-linecap="round" stroke-linejoin="round"/>
<path d="M371.746 434.806H189.162V439.472H371.746V434.806Z" fill="white" stroke="#263238" stroke-linecap="round" stroke-linejoin="round"/>
<path d="M125.521 444.804C125.521 444.804 128.516 448.465 137.519 451.47H423.388C423.388 451.47 430.043 449.799 433.048 445.133L125.521 444.804Z" fill="#263238" stroke="#263238" stroke-linecap="round" stroke-linejoin="round"/>
<path d="M430.188 445.239H128.42C127.96 445.24 127.504 445.151 127.078 444.976C126.653 444.801 126.266 444.543 125.941 444.218C125.615 443.893 125.357 443.508 125.18 443.083C125.004 442.658 124.913 442.202 124.913 441.742C124.913 440.812 125.283 439.92 125.94 439.263C126.598 438.605 127.49 438.236 128.42 438.236H430.188C431.118 438.238 432.008 438.608 432.665 439.265C433.322 439.923 433.692 440.813 433.695 441.742C433.692 442.671 433.322 443.56 432.665 444.215C432.007 444.871 431.117 445.239 430.188 445.239Z" fill="white" stroke="#263238" stroke-linecap="round" stroke-linejoin="round"/>
<path d="M282.12 271.552C282.122 271.089 281.986 270.637 281.73 270.251C281.475 269.865 281.11 269.564 280.683 269.386C280.256 269.207 279.786 269.159 279.332 269.249C278.878 269.338 278.46 269.56 278.132 269.886C277.805 270.213 277.581 270.629 277.49 271.083C277.399 271.537 277.445 272.007 277.621 272.435C277.798 272.863 278.098 273.228 278.482 273.486C278.867 273.743 279.319 273.88 279.782 273.88C280.4 273.88 280.994 273.635 281.432 273.199C281.87 272.763 282.117 272.171 282.12 271.552Z" fill="#949494"/>
<path d="M149.507 314.858C149.331 314.858 149.161 314.788 149.036 314.663C148.911 314.538 148.841 314.368 148.841 314.191V294.871C148.841 294.695 148.911 294.525 149.036 294.4C149.161 294.275 149.331 294.205 149.507 294.205C149.684 294.205 149.854 294.275 149.979 294.4C150.104 294.525 150.174 294.695 150.174 294.871V314.191C150.175 314.279 150.159 314.367 150.126 314.448C150.093 314.53 150.044 314.604 149.982 314.666C149.919 314.728 149.845 314.777 149.764 314.81C149.683 314.843 149.595 314.859 149.507 314.858Z" fill="#263238" stroke="white" stroke-width="0.691688" stroke-linejoin="round"/>
<path d="M401.904 279.802H157.786V417.756H401.904V279.802Z" fill="white" stroke="#263238" stroke-linecap="round" stroke-linejoin="round"/>
<path d="M211.409 384.816H269.929" stroke="#263238" stroke-linecap="round" stroke-linejoin="round"/>
<path d="M211.409 392.843H269.929" stroke="#263238" stroke-linecap="round" stroke-linejoin="round"/>
<path d="M211.409 400.88H269.929" stroke="#263238" stroke-linecap="round" stroke-linejoin="round"/>
<path d="M211.409 408.908H269.929" stroke="#263238" stroke-linecap="round" stroke-linejoin="round"/>
<path d="M338.525 382.99H278.517V410.782H338.525V382.99Z" fill="white" stroke="#263238" stroke-linecap="round" stroke-linejoin="round"/>
<path d="M338.525 399.084L328.41 390.882L312.307 401.305L304.724 395.934L278.517 410.782H338.525V399.084Z" fill="white" stroke="#263238" stroke-linecap="round" stroke-linejoin="round"/>
<path d="M287.829 395.625C290.011 395.625 291.78 393.856 291.78 391.674C291.78 389.492 290.011 387.723 287.829 387.723C285.647 387.723 283.878 389.492 283.878 391.674C283.878 393.856 285.647 395.625 287.829 395.625Z" fill="white" stroke="#263238" stroke-linecap="round" stroke-linejoin="round"/>
<path d="M401.904 279.802H157.786V374.769H401.904V279.802Z" fill="white" stroke="#263238" stroke-linecap="round" stroke-linejoin="round"/>
<path d="M401.904 279.802H157.786V290.235H401.904V279.802Z" fill="#949494" stroke="#263238" stroke-linecap="round" stroke-linejoin="round"/>
<path d="M401.895 289.877H394.041V417.766H401.895V289.877Z" fill="#949494" stroke="#263238" stroke-linecap="round" stroke-linejoin="round"/>
<path d="M401.895 311.892H394.041V349.914H401.895V311.892Z" fill="#696969" stroke="#263238" stroke-linecap="round" stroke-linejoin="round"/>
<path d="M161.998 371.688L227.087 331.937L296.881 370.364L349.334 327.165L393.848 365.515" stroke="#263238" stroke-miterlimit="10"/>
<path d="M198.629 349.199L210.289 345.934L219.156 351.991L229.415 345.471L237.81 349.663L243.413 345.471L252.174 345.77" stroke="#263238" stroke-miterlimit="10"/>
<path d="M329.231 344.07L340.891 349.199L347.885 341.732L355.342 347.799L363.747 339.868" stroke="#263238" stroke-miterlimit="10"/>
<path d="M183.404 325.841H228.159C228.159 325.841 228.159 323.127 226.797 322.113C226.519 321.928 226.207 321.799 225.879 321.736C224.618 321.486 223.43 320.958 222.4 320.189C221.37 319.42 220.526 318.43 219.929 317.292C219.558 316.51 219.002 315.829 218.308 315.311C217.614 314.792 216.804 314.451 215.949 314.317C210.529 313.303 211.206 318.046 208.153 318.384C205.1 318.722 203.062 312.588 197.981 312.588C192.9 312.588 191.219 320.731 191.219 320.731C191.219 320.731 187.828 317.003 184.776 321.069C181.723 325.136 183.404 325.841 183.404 325.841Z" fill="white" stroke="#263238" stroke-miterlimit="10"/>
<path d="M278.932 325.841H299.817C299.817 325.841 299.817 324.576 299.18 324.103C299.051 324.017 298.906 323.957 298.754 323.929C298.165 323.813 297.609 323.566 297.128 323.206C296.646 322.847 296.251 322.384 295.972 321.852C295.8 321.487 295.541 321.169 295.217 320.926C294.894 320.684 294.517 320.524 294.118 320.461C291.587 319.987 291.906 322.2 290.476 322.393C289.046 322.586 288.109 319.698 285.733 319.698C283.356 319.698 282.564 323.504 282.564 323.504C282.382 323.273 282.146 323.089 281.878 322.967C281.61 322.846 281.316 322.79 281.022 322.805C280.728 322.821 280.442 322.906 280.188 323.054C279.933 323.203 279.718 323.41 279.56 323.658C278.14 325.542 278.932 325.841 278.932 325.841Z" fill="white" stroke="#263238" stroke-miterlimit="10"/>
<path d="M166.944 325.841H187.829C187.829 325.841 187.829 324.576 187.191 324.103C187.063 324.017 186.918 323.957 186.766 323.929C186.177 323.813 185.621 323.566 185.139 323.206C184.658 322.847 184.263 322.384 183.984 321.852C183.812 321.487 183.552 321.169 183.229 320.926C182.906 320.684 182.528 320.524 182.129 320.461C179.598 319.987 179.917 322.2 178.488 322.393C177.058 322.586 176.121 319.698 173.745 319.698C171.368 319.698 170.576 323.504 170.576 323.504C170.393 323.273 170.158 323.089 169.89 322.967C169.622 322.846 169.328 322.79 169.034 322.805C168.74 322.821 168.454 322.906 168.199 323.054C167.945 323.203 167.73 323.41 167.572 323.658C166.152 325.542 166.944 325.841 166.944 325.841Z" fill="white" stroke="#263238" stroke-miterlimit="10"/>
<path d="M336.264 340.583C336.264 352.648 332.97 362.434 328.913 362.434C324.856 362.434 321.562 352.648 321.562 340.583C321.562 328.517 324.856 306.889 328.913 306.889C332.97 306.889 336.264 328.517 336.264 340.583Z" fill="#1E8FCE" stroke="#263238" stroke-miterlimit="10"/>
<path d="M327.734 374.325L328.613 321.871L330.381 374.769L327.734 374.325Z" fill="#263238"/>
<path d="M266.732 349.354C266.732 358.328 264.278 365.592 261.264 365.592C258.251 365.592 255.797 358.328 255.797 349.354C255.797 340.38 258.251 324.306 261.264 324.306C264.278 324.306 266.732 340.38 266.732 349.354Z" fill="#1E8FCE" stroke="#263238" stroke-miterlimit="10"/>
<path d="M260.385 374.441L261.042 335.443L262.355 374.769L260.385 374.441Z" fill="#263238"/>
<path d="M386.592 349.354C386.592 358.328 384.148 365.592 381.135 365.592C378.121 365.592 375.667 358.328 375.667 349.354C375.667 340.38 378.111 324.306 381.135 324.306C384.158 324.306 386.592 340.38 386.592 349.354Z" fill="#1E8FCE" stroke="#263238" stroke-miterlimit="10"/>
<path d="M380.256 374.441L380.913 335.443L382.217 374.769L380.256 374.441Z" fill="#263238"/>
<path d="M401.904 289.877H157.786V301.402H401.904V289.877Z" fill="#1E8FCE" stroke="#263238" stroke-miterlimit="10"/>
<path d="M186.621 301.643V289.935" stroke="#263238" stroke-miterlimit="10"/>
<path d="M217.62 301.643V289.935" stroke="#263238" stroke-miterlimit="10"/>
<path d="M248.629 301.643V289.935" stroke="#263238" stroke-miterlimit="10"/>
<path d="M279.628 301.643V289.935" stroke="#263238" stroke-miterlimit="10"/>
<path d="M310.637 301.643V289.935" stroke="#263238" stroke-miterlimit="10"/>
<path d="M341.645 301.643V289.935" stroke="#263238" stroke-miterlimit="10"/>
<path d="M372.644 301.643V289.935" stroke="#263238" stroke-miterlimit="10"/>
<path d="M264.896 281.927H176.024V286.747H264.896V281.927Z" fill="white" stroke="#263238" stroke-linecap="round" stroke-linejoin="round"/>
<path d="M380.468 284.332C380.468 284.715 380.355 285.088 380.143 285.406C379.931 285.723 379.629 285.971 379.276 286.117C378.923 286.264 378.534 286.302 378.16 286.227C377.785 286.153 377.441 285.969 377.17 285.699C376.9 285.428 376.716 285.084 376.642 284.709C376.567 284.335 376.605 283.946 376.752 283.593C376.898 283.24 377.145 282.938 377.463 282.726C377.781 282.514 378.154 282.4 378.536 282.4C379.049 282.4 379.54 282.604 379.903 282.966C380.265 283.329 380.468 283.82 380.468 284.332Z" fill="white" stroke="#263238" stroke-linecap="round" stroke-linejoin="round"/>
<path d="M388.786 284.332C388.786 284.715 388.673 285.088 388.46 285.406C388.248 285.723 387.946 285.971 387.593 286.117C387.24 286.264 386.852 286.302 386.477 286.227C386.102 286.153 385.758 285.969 385.488 285.699C385.218 285.428 385.034 285.084 384.959 284.709C384.884 284.335 384.923 283.946 385.069 283.593C385.215 283.24 385.463 282.938 385.781 282.726C386.098 282.514 386.472 282.4 386.854 282.4C387.366 282.4 387.858 282.604 388.22 282.966C388.582 283.329 388.786 283.82 388.786 284.332Z" fill="white" stroke="#263238" stroke-linecap="round" stroke-linejoin="round"/>
<path d="M397.103 284.332C397.103 284.715 396.99 285.088 396.778 285.406C396.565 285.723 396.264 285.971 395.911 286.117C395.558 286.264 395.169 286.302 394.794 286.227C394.42 286.153 394.075 285.969 393.805 285.699C393.535 285.428 393.351 285.084 393.276 284.709C393.202 284.335 393.24 283.946 393.386 283.593C393.533 283.24 393.78 282.938 394.098 282.726C394.416 282.514 394.789 282.4 395.171 282.4C395.684 282.4 396.175 282.604 396.537 282.966C396.9 283.329 397.103 283.82 397.103 284.332Z" fill="white" stroke="#263238" stroke-linecap="round" stroke-linejoin="round"/>
<path d="M340.651 197.421V188.022L329.909 186.892C329.448 185.178 328.779 183.527 327.919 181.975L334.768 173.513L328.122 166.877L319.727 173.639C318.19 172.756 316.552 172.062 314.849 171.571L313.709 160.752H304.29L303.16 171.484C301.444 171.943 299.792 172.615 298.243 173.484L289.781 166.625L283.135 173.271L289.897 181.666C289.014 183.186 288.32 184.808 287.83 186.496L277.001 187.636V197.035L287.743 198.165C288.204 199.879 288.872 201.53 289.733 203.082L282.884 211.535L289.52 218.181L297.915 211.419C299.453 212.306 301.095 213 302.803 213.486L303.943 224.315H313.332L314.462 213.583C316.177 213.12 317.828 212.448 319.379 211.583L327.842 218.432L334.478 211.796L327.716 203.401C328.603 201.863 329.297 200.221 329.783 198.513L340.651 197.421ZM308.86 207.487C305.907 207.489 303.021 206.615 300.565 204.977C298.11 203.338 296.195 201.008 295.064 198.281C293.933 195.554 293.636 192.552 294.211 189.657C294.786 186.761 296.206 184.101 298.293 182.013C300.38 179.924 303.039 178.502 305.935 177.925C308.83 177.349 311.832 177.644 314.559 178.773C317.287 179.902 319.618 181.815 321.259 184.27C322.899 186.724 323.775 189.61 323.775 192.562C323.775 196.519 322.204 200.314 319.407 203.112C316.61 205.911 312.816 207.485 308.86 207.487Z" fill="#263238"/>
<path d="M377.571 165.737V158.81L369.649 157.97C369.307 156.708 368.814 155.492 368.181 154.348L373.233 148.107L368.336 143.21L362.144 148.223C361.009 147.569 359.799 147.056 358.54 146.697L357.7 138.708H350.774L349.933 146.629C348.671 146.971 347.455 147.464 346.311 148.098L340.032 143.045L335.202 147.943L340.215 154.135C339.558 155.268 339.045 156.478 338.689 157.738L330.7 158.579V165.505L338.621 166.345C338.937 167.623 339.411 168.856 340.032 170.016L334.98 176.256L339.877 181.154L346.069 176.141C347.202 176.798 348.412 177.311 349.672 177.667L350.513 185.656H357.439L358.28 177.734C359.542 177.392 360.758 176.899 361.902 176.266L368.142 181.318L373.04 176.421L368.046 170.18C368.703 169.048 369.216 167.837 369.572 166.577L377.571 165.737ZM354.116 173.165C351.938 173.165 349.809 172.519 347.998 171.309C346.187 170.099 344.775 168.379 343.942 166.367C343.108 164.355 342.89 162.141 343.315 160.004C343.74 157.868 344.789 155.906 346.329 154.366C347.869 152.826 349.831 151.777 351.968 151.352C354.104 150.927 356.318 151.145 358.33 151.979C360.343 152.812 362.062 154.224 363.273 156.035C364.483 157.846 365.128 159.975 365.128 162.153C365.13 163.599 364.846 165.032 364.293 166.369C363.74 167.705 362.929 168.92 361.906 169.943C360.883 170.965 359.668 171.777 358.332 172.33C356.995 172.883 355.563 173.166 354.116 173.165Z" fill="#263238"/>
<path d="M269.021 120.895H270.47" stroke="#263238" stroke-miterlimit="10"/>
<path d="M273.33 120.895H317.544" stroke="#263238" stroke-miterlimit="10" stroke-dasharray="2.95 2.95"/>
<path d="M318.974 120.885H320.423V122.334" stroke="#263238" stroke-miterlimit="10"/>
<path d="M320.422 125.358V166.123" stroke="#263238" stroke-miterlimit="10" stroke-dasharray="3.13 3.13"/>
<path d="M320.422 167.64V169.089" stroke="#263238" stroke-miterlimit="10"/>
<path d="M320.422 225.889V227.338" stroke="#263238" stroke-miterlimit="10"/>
<path d="M320.422 230.604V248.619" stroke="#263238" stroke-miterlimit="10" stroke-dasharray="3.39 3.39"/>
<path d="M320.422 250.252V251.701" stroke="#263238" stroke-miterlimit="10"/>
<path d="M320.499 261.834L330.198 245.036H310.801L320.499 261.834Z" fill="#263238"/>
<path d="M262.984 56.994H102.377V250.996H262.984V56.994Z" fill="#263238"/>
<path d="M262.984 56.994H102.377V67.9291H262.984V56.994Z" fill="#263238"/>
<path opacity="0.3" d="M262.984 56.994H102.377V67.9291H262.984V56.994Z" fill="white"/>
<path d="M120.808 72.537H104.686V185.366H120.808V72.537Z" fill="#263238"/>
<path opacity="0.3" d="M120.808 72.537H104.686V185.366H120.808V72.537Z" fill="white"/>
<path opacity="0.3" d="M261.071 69.098H251.17V248.909H261.071V69.098Z" fill="white"/>
<path d="M229.658 78.0721H131.976V218.78H229.658V78.0721Z" fill="white"/>
<path d="M229.658 78.0721H131.976V123.397H229.658V78.0721Z" fill="white" stroke="#263238" stroke-miterlimit="10"/>
<path d="M229.658 119.958H131.976V123.397H229.658V119.958Z" fill="#263238"/>
<path d="M146.281 131.859H169.079" stroke="#263238" stroke-miterlimit="10"/>
<path d="M146.281 137.462H169.079" stroke="#263238" stroke-miterlimit="10"/>
<path d="M146.281 143.065H169.079" stroke="#263238" stroke-miterlimit="10"/>
<path d="M146.281 148.658H169.079" stroke="#263238" stroke-miterlimit="10"/>
<path d="M146.281 154.26H169.079" stroke="#263238" stroke-miterlimit="10"/>
<path d="M146.281 159.854H169.079" stroke="#263238" stroke-miterlimit="10"/>
<path d="M146.281 165.457H169.079" stroke="#263238" stroke-miterlimit="10"/>
<path d="M146.281 171.059H169.079" stroke="#263238" stroke-miterlimit="10"/>
<path d="M142.408 199.431H165.215" stroke="#263238" stroke-miterlimit="10"/>
<path d="M142.408 205.024H165.215" stroke="#263238" stroke-miterlimit="10"/>
<path d="M142.408 210.627H165.215" stroke="#263238" stroke-miterlimit="10"/>
<path d="M169.417 199.431H192.224" stroke="#263238" stroke-miterlimit="10"/>
<path d="M169.417 205.024H192.224" stroke="#263238" stroke-miterlimit="10"/>
<path d="M169.417 210.627H192.224" stroke="#263238" stroke-miterlimit="10"/>
<path d="M196.427 199.431H219.234" stroke="#263238" stroke-miterlimit="10"/>
<path d="M196.427 205.024H219.234" stroke="#263238" stroke-miterlimit="10"/>
<path d="M196.427 210.627H219.234" stroke="#263238" stroke-miterlimit="10"/>
<path d="M229.658 78.0721H131.976V81.8395H229.658V78.0721Z" fill="#1E8FCE" stroke="#263238" stroke-miterlimit="10"/>
<path d="M144.533 78.3812V81.6366" stroke="#263238" stroke-miterlimit="10"/>
<path d="M156.531 78.3812V81.6366" stroke="#263238" stroke-miterlimit="10"/>
<path d="M168.519 78.3812V81.6366" stroke="#263238" stroke-miterlimit="10"/>
<path d="M180.517 78.3812V81.6366" stroke="#263238" stroke-miterlimit="10"/>
<path d="M192.515 78.3812V81.6366" stroke="#263238" stroke-miterlimit="10"/>
<path d="M204.512 78.3812V81.6366" stroke="#263238" stroke-miterlimit="10"/>
<path d="M216.51 78.3812V81.6366" stroke="#263238" stroke-miterlimit="10"/>
<path d="M131.976 119.958L229.658 81.8396" stroke="#263238" stroke-miterlimit="10"/>
<path d="M131.976 81.8396L229.658 119.958" stroke="#263238" stroke-miterlimit="10"/>
<path d="M207.574 127.734H172.286V146.639H207.574V127.734Z" fill="white" stroke="#263238" stroke-miterlimit="10"/>
<path d="M207.574 148.967H172.286V167.872H207.574V148.967Z" fill="white" stroke="#263238" stroke-miterlimit="10"/>
<path d="M207.574 170.19H172.286V189.095H207.574V170.19Z" fill="white" stroke="#263238" stroke-miterlimit="10"/>
<path d="M172.286 127.734L207.564 146.639" stroke="#263238" stroke-miterlimit="10"/>
<path d="M207.564 127.734L172.286 146.639" stroke="#263238" stroke-miterlimit="10"/>
<path d="M172.286 148.967L207.564 167.862" stroke="#263238" stroke-miterlimit="10"/>
<path d="M207.564 148.967L172.286 167.862" stroke="#263238" stroke-miterlimit="10"/>
<path d="M172.286 170.19L207.564 189.095" stroke="#263238" stroke-miterlimit="10"/>
<path d="M207.564 170.19L172.286 189.095" stroke="#263238" stroke-miterlimit="10"/>
<path d="M254.126 102.937H214.404V138.051H254.126V102.937Z" fill="#263238"/>
<path opacity="0.3" d="M240.196 102.937V106.985H214.404V138.051H254.126V102.937H240.196Z" fill="white"/>
<path opacity="0.18" d="M240.187 102.937H214.404V106.985H240.187V102.937Z" fill="white"/>
<path d="M220.065 109.09H215.824V113.331H220.065V109.09Z" fill="white"/>
<path d="M224.702 109.09H220.461V113.331H224.702V109.09Z" fill="#263238"/>
<path d="M229.338 109.09H225.098V113.331H229.338V109.09Z" fill="white"/>
<path d="M233.965 109.09H229.725V113.331H233.965V109.09Z" fill="#263238"/>
<path d="M238.602 109.09H234.361V113.331H238.602V109.09Z" fill="white"/>
<path d="M243.239 109.09H238.998V113.331H243.239V109.09Z" fill="#1E8FCE"/>
<path d="M247.866 109.09H243.625V113.331H247.866V109.09Z" fill="white"/>
<path d="M220.065 113.804H215.824V118.045H220.065V113.804Z" fill="white"/>
<path d="M224.702 113.804H220.461V118.045H224.702V113.804Z" fill="#1E8FCE"/>
<path d="M229.338 113.804H225.098V118.045H229.338V113.804Z" fill="white"/>
<path d="M233.965 113.804H229.725V118.045H233.965V113.804Z" fill="#1E8FCE"/>
<path d="M238.602 113.804H234.361V118.045H238.602V113.804Z" fill="white"/>
<path d="M243.239 113.804H238.998V118.045H243.239V113.804Z" fill="white"/>
<path d="M247.866 113.804H243.625V118.045H247.866V113.804Z" fill="white"/>
<path d="M220.065 118.519H215.824V122.759H220.065V118.519Z" fill="#263238"/>
<path d="M224.702 118.519H220.461V122.759H224.702V118.519Z" fill="white"/>
<path d="M229.338 118.519H225.098V122.759H229.338V118.519Z" fill="#263238"/>
<path d="M233.965 118.519H229.725V122.759H233.965V118.519Z" fill="white"/>
<path d="M238.602 118.519H234.361V122.759H238.602V118.519Z" fill="#1E8FCE"/>
<path d="M243.239 118.519H238.998V122.759H243.239V118.519Z" fill="white"/>
<path d="M247.866 118.519H243.625V122.759H247.866V118.519Z" fill="#263238"/>
<path d="M220.065 123.223H215.824V127.464H220.065V123.223Z" fill="white"/>
<path d="M224.702 123.223H220.461V127.464H224.702V123.223Z" fill="#263238"/>
<path d="M229.338 123.223H225.098V127.464H229.338V123.223Z" fill="white"/>
<path d="M233.965 123.223H229.725V127.464H233.965V123.223Z" fill="#1E8FCE"/>
<path d="M238.602 123.223H234.361V127.464H238.602V123.223Z" fill="white"/>
<path d="M243.239 123.223H238.998V127.464H243.239V123.223Z" fill="#263238"/>
<path d="M247.866 123.223H243.625V127.464H247.866V123.223Z" fill="white"/>
<path d="M220.065 127.937H215.824V132.178H220.065V127.937Z" fill="#263238"/>
<path d="M224.702 127.937H220.461V132.178H224.702V127.937Z" fill="white"/>
<path d="M229.338 127.937H225.098V132.178H229.338V127.937Z" fill="white"/>
<path d="M233.965 127.937H229.725V132.178H233.965V127.937Z" fill="white"/>
<path d="M238.602 127.937H234.361V132.178H238.602V127.937Z" fill="white"/>
<path d="M243.239 127.937H238.998V132.178H243.239V127.937Z" fill="white"/>
<path d="M247.866 127.937H243.625V132.178H247.866V127.937Z" fill="#1E8FCE"/>
<path d="M253.238 109.042H250.311V132.545H253.238V109.042Z" fill="#263238"/>
<path d="M97.5652 120.895H96.1162" stroke="#263238" stroke-miterlimit="10"/>
<path d="M93.3538 120.895H72.6621" stroke="#263238" stroke-miterlimit="10" stroke-dasharray="2.86 2.86"/>
<path d="M71.281 120.885H69.832V119.436" stroke="#263238" stroke-miterlimit="10"/>
<path d="M69.832 116.509V106.27" stroke="#263238" stroke-miterlimit="10" stroke-dasharray="3.03 3.03"/>
<path d="M69.832 104.801V103.352" stroke="#263238" stroke-miterlimit="10"/>
<path d="M99.2274 120.566L82.4287 110.868V130.265L99.2274 120.566Z" fill="#263238"/>
<path d="M70.7108 88.6015H33.1914V38.582H66.0354L70.7108 45.2474V88.6015Z" fill="white" stroke="#263238" stroke-linecap="round" stroke-linejoin="round"/>
<path d="M66.0352 38.582V45.8367H70.7106L66.0352 38.582Z" fill="white" stroke="#263238" stroke-linecap="round" stroke-linejoin="round"/>
<path d="M38.9492 52.8982H65.1568" stroke="#263238" stroke-linecap="round" stroke-linejoin="round"/>
<path d="M38.9492 59.9692H65.1568" stroke="#263238" stroke-linecap="round" stroke-linejoin="round"/>
<path d="M38.9492 67.0308H65.1568" stroke="#263238" stroke-linecap="round" stroke-linejoin="round"/>
<path d="M38.9492 74.1018H65.1568" stroke="#263238" stroke-linecap="round" stroke-linejoin="round"/>
<path d="M70.4595 52.3088H50.1445V88.5242H70.4595V52.3088Z" fill="#263238" stroke="#263238" stroke-linecap="round" stroke-linejoin="round"/>
<path d="M91.6055 100.087H54.0957V50.0677H86.9397L91.6055 56.7331V100.087Z" fill="white" stroke="#263238" stroke-linecap="round" stroke-linejoin="round"/>
<path d="M86.9395 50.0677V57.3224H91.6052L86.9395 50.0677Z" fill="white" stroke="#263238" stroke-linecap="round" stroke-linejoin="round"/>
<path d="M59.8525 64.3839H86.0601" stroke="#263238" stroke-linecap="round" stroke-linejoin="round"/>
<path d="M59.8525 71.455H86.0601" stroke="#263238" stroke-linecap="round" stroke-linejoin="round"/>
<path d="M59.8525 78.5165H86.0601" stroke="#263238" stroke-linecap="round" stroke-linejoin="round"/>
<path d="M59.8525 85.5779H86.0601" stroke="#263238" stroke-linecap="round" stroke-linejoin="round"/>
</svg>
