<svg width="483" height="483" viewBox="0 0 483 483" fill="none" xmlns="http://www.w3.org/2000/svg">
<path d="M422.084 405.623H62.7898C62.7898 405.623 51.3814 386.4 43.4698 347.76C35.5583 309.12 73.2613 323.224 82.9019 289.916C92.5426 256.608 50.483 263.631 53.9896 218.055C57.4961 172.479 115.331 171.61 143.374 177.744C171.417 183.878 167.91 162.848 200.368 127.792C232.825 92.736 281.869 96.2426 306.405 123.416C330.942 150.59 323.05 178.623 353.739 178.623C384.429 178.623 412.482 184.786 430.836 243.5C449.19 302.213 415.602 329.049 416.211 355.556C416.713 372.384 418.678 389.136 422.084 405.623Z" fill="#1E8FCE"/>
<path opacity="0.7" d="M422.084 405.623H62.7898C62.7898 405.623 51.3814 386.4 43.4698 347.76C35.5583 309.12 73.2613 323.224 82.9019 289.916C92.5426 256.608 50.483 263.631 53.9896 218.055C57.4961 172.479 115.331 171.61 143.374 177.744C171.417 183.878 167.91 162.848 200.368 127.792C232.825 92.736 281.869 96.2426 306.405 123.416C330.942 150.59 323.05 178.623 353.739 178.623C384.429 178.623 412.482 184.786 430.836 243.5C449.19 302.213 415.602 329.049 416.211 355.556C416.713 372.384 418.678 389.136 422.084 405.623Z" fill="white"/>
<path d="M208.086 405.623C199.286 392.225 161.718 335.888 150.725 334.381C140.012 332.913 101.942 389.878 91.6445 405.623H208.086Z" fill="#2E353A" stroke="#2E353A" stroke-linecap="round" stroke-linejoin="round"/>
<path d="M256.261 76.4395V206.357" stroke="#2E353A" stroke-width="3" stroke-linecap="round" stroke-linejoin="round"/>
<path d="M271.697 79.9268V206.357" stroke="#2E353A" stroke-width="3" stroke-linecap="round" stroke-linejoin="round"/>
<path d="M288.622 149.112V271.571" stroke="#2E353A" stroke-width="3" stroke-linecap="round" stroke-linejoin="round"/>
<path d="M306.541 79.9268V271.572" stroke="#2E353A" stroke-width="3" stroke-linecap="round" stroke-linejoin="round"/>
<path d="M324.46 79.9268V209.844" stroke="#2E353A" stroke-width="3" stroke-linecap="round" stroke-linejoin="round"/>
<path d="M242.823 93.8564H324.962" stroke="#2E353A" stroke-width="3" stroke-linecap="round" stroke-linejoin="round"/>
<path d="M242.823 122.73H331.898" stroke="#2E353A" stroke-width="3" stroke-linecap="round" stroke-linejoin="round"/>
<path d="M241.336 149.112H340.39" stroke="#2E353A" stroke-width="3" stroke-linecap="round" stroke-linejoin="round"/>
<path d="M239.839 178.488H340.39" stroke="#2E353A" stroke-width="3" stroke-linecap="round" stroke-linejoin="round"/>
<path d="M258.753 210.337H334.912" stroke="#2E353A" stroke-width="3" stroke-linecap="round" stroke-linejoin="round"/>
<path d="M278.662 241.2H328.44" stroke="#2E353A" stroke-width="3" stroke-linecap="round" stroke-linejoin="round"/>
<path d="M147.614 88.7754L165.186 102.531" stroke="#2E353A" stroke-width="2" stroke-linecap="round" stroke-linejoin="round"/>
<path d="M182.758 74.2661L188.873 83.4335" stroke="#2E353A" stroke-width="2" stroke-linecap="round" stroke-linejoin="round"/>
<path d="M214.085 52.106L219.437 68.9144" stroke="#2E353A" stroke-width="2" stroke-linecap="round" stroke-linejoin="round"/>
<path d="M314.336 268.104H285.356V199.199H246.04V77.1641C229.47 77.3277 213.221 81.7509 198.854 90.0086C184.488 98.2663 172.487 110.081 164.006 124.316C155.525 138.552 150.848 154.73 150.425 171.295C150.002 187.86 153.848 204.256 161.592 218.905C164.741 226.237 172.141 244.195 179.55 267.418C186.399 288.853 189.973 310.405 189.973 313.66C189.973 313.979 189.973 314.307 189.973 314.626C189.939 315.595 190.101 316.561 190.449 317.466C190.796 318.371 191.322 319.198 191.995 319.895C192.669 320.593 193.475 321.148 194.368 321.527C195.26 321.906 196.22 322.102 197.189 322.103H296.929C297.898 322.101 298.857 321.904 299.748 321.524C300.64 321.145 301.447 320.59 302.12 319.892C302.793 319.195 303.319 318.369 303.667 317.465C304.014 316.56 304.177 315.595 304.145 314.626C304.145 314.278 304.145 313.95 304.145 313.66C304.125 310.443 307.632 289.307 314.336 268.104Z" fill="#1E8FCE" stroke="#2E353A" stroke-width="2" stroke-linecap="round" stroke-linejoin="round"/>
<path d="M213.303 92.7359C216.098 91.4756 218.966 90.3821 221.89 89.4612" stroke="#2E353A" stroke-width="2" stroke-linecap="round" stroke-linejoin="round"/>
<path d="M181.135 117.214C181.135 117.214 189.008 104.656 206.309 96.2039" stroke="#2E353A" stroke-width="2" stroke-linecap="round" stroke-linejoin="round"/>
<path d="M183.202 256.241C186.786 267.949 191.529 284.168 193.171 293.229C195.953 308.511 194.137 316.413 200.126 317.775" stroke="#2E353A" stroke-width="2" stroke-linecap="round" stroke-linejoin="round"/>
<path d="M178.816 242.273C178.816 242.273 179.782 245.412 181.338 250.223" stroke="#2E353A" stroke-width="2" stroke-linecap="round" stroke-linejoin="round"/>
<path d="M240.94 321.166V228.816C240.94 228.816 244.804 204.666 232.246 204.666C219.688 204.666 220.654 217.224 235.144 230.748C249.634 244.272 271.852 231.714 274.75 221.088C277.648 210.462 269.92 205.632 265.09 214.326C260.26 223.02 265.09 321.552 265.09 321.552" stroke="#2E353A" stroke-width="2" stroke-linecap="round" stroke-linejoin="round"/>
<path d="M299.45 321.543H195.209V345.731H299.45V321.543Z" fill="white" stroke="#2E353A" stroke-width="2" stroke-linecap="round" stroke-linejoin="round"/>
<path d="M299.45 351.489H195.209V375.677H299.45V351.489Z" fill="white" stroke="#2E353A" stroke-width="2" stroke-linecap="round" stroke-linejoin="round"/>
<path d="M299.45 345.731H195.209V351.489H299.45V345.731Z" fill="#2E353A" stroke="#2E353A" stroke-linecap="round" stroke-linejoin="round"/>
<path d="M299.45 381.435H195.209V405.623H299.45V381.435Z" fill="white" stroke="#2E353A" stroke-width="2" stroke-linecap="round" stroke-linejoin="round"/>
<path d="M288.544 342.495H296.291" stroke="#2E353A" stroke-linecap="round" stroke-linejoin="round"/>
<path d="M199.306 342.495H284.816" stroke="#2E353A" stroke-linecap="round" stroke-linejoin="round"/>
<path d="M268.451 372.915H293.422" stroke="#2E353A" stroke-linecap="round" stroke-linejoin="round"/>
<path d="M214.78 372.915H265.582" stroke="#2E353A" stroke-linecap="round" stroke-linejoin="round"/>
<path d="M206.463 372.915H210.762" stroke="#2E353A" stroke-linecap="round" stroke-linejoin="round"/>
<path d="M299.45 375.677H195.209V381.435H299.45V375.677Z" fill="#2E353A" stroke="#2E353A" stroke-linecap="round" stroke-linejoin="round"/>
<path d="M244.465 386.738H208.781V405.314H244.465V386.738Z" fill="#1E8FCE" stroke="#2E353A" stroke-linecap="round" stroke-linejoin="round"/>
<path d="M290.902 386.738H255.218V405.314H290.902V386.738Z" fill="#1E8FCE" stroke="#2E353A" stroke-linecap="round" stroke-linejoin="round"/>
<path d="M323.001 405.623C316.162 399.625 286.96 374.402 278.459 373.745C270.132 373.079 240.573 398.591 232.574 405.623H323.001Z" fill="#2E353A" stroke="#2E353A" stroke-linecap="round" stroke-linejoin="round"/>
<path d="M435.743 405.624H444.128" stroke="#2E353A" stroke-linecap="round" stroke-linejoin="round"/>
<path d="M51.9131 405.624H427.359" stroke="#2E353A" stroke-linecap="round" stroke-linejoin="round"/>
<path d="M38.8721 405.624H45.3926" stroke="#2E353A" stroke-linecap="round" stroke-linejoin="round"/>
<path d="M418.867 350.494H393.799V385.656H404.183H418.867H429.261V368.075L418.867 350.494Z" fill="#2E353A" stroke="#2E353A" stroke-linecap="round" stroke-linejoin="round"/>
<path d="M429.261 385.656H417.775V393.645H429.261V385.656Z" fill="white" stroke="#2E353A" stroke-linecap="round" stroke-linejoin="round"/>
<path d="M375.165 385.26C375.165 385.26 387.723 378.498 383.376 344.688L367.437 335.994L339.906 331.647L315.273 332.613V346.62C315.273 346.62 329.28 358.695 330.729 362.559C331.638 365.204 332.127 367.974 332.178 370.77V384.294L375.165 385.26Z" fill="#1E8FCE" stroke="#2E353A" stroke-linecap="round" stroke-linejoin="round"/>
<path d="M383.376 344.688L375.165 385.26" stroke="#2E353A" stroke-linecap="round" stroke-linejoin="round"/>
<path d="M367.437 335.994L358.26 385.26" stroke="#2E353A" stroke-linecap="round" stroke-linejoin="round"/>
<path d="M339.906 331.647L333.144 368.355" stroke="#2E353A" stroke-linecap="round" stroke-linejoin="round"/>
<path d="M316.239 344.688C316.239 344.688 332.178 351.45 338.457 355.797C344.736 360.144 343.77 369.321 343.77 369.321" stroke="#2E353A" stroke-linecap="round" stroke-linejoin="round"/>
<path d="M394.021 385.907H319.127V392.186H394.021V385.907Z" fill="white" stroke="#2E353A" stroke-linecap="round" stroke-linejoin="round"/>
<path d="M408.975 369.804H424.614L416.22 355.314H408.975V369.804Z" fill="white" stroke="#2E353A" stroke-linecap="round" stroke-linejoin="round"/>
<path d="M406.56 355.314H399.798V369.804H406.56V355.314Z" fill="white" stroke="#2E353A" stroke-linecap="round" stroke-linejoin="round"/>
<path d="M365.119 385.656H319.523V396.543H365.119V385.656Z" fill="white" stroke="#2E353A" stroke-linecap="round" stroke-linejoin="round"/>
<path d="M408.312 405.447C413.525 404.505 416.988 399.515 416.046 394.302C415.105 389.089 410.115 385.626 404.901 386.568C399.688 387.509 396.225 392.499 397.167 397.713C398.109 402.926 403.099 406.389 408.312 405.447Z" fill="#2E353A" stroke="#2E353A" stroke-linecap="round" stroke-linejoin="round"/>
<path d="M406.589 401.634C409.678 401.634 412.182 399.13 412.182 396.041C412.182 392.952 409.678 390.448 406.589 390.448C403.5 390.448 400.996 392.952 400.996 396.041C400.996 399.13 403.5 401.634 406.589 401.634Z" fill="white" stroke="#2E353A" stroke-linecap="round" stroke-linejoin="round"/>
<path d="M334.382 405.467C339.598 404.544 343.079 399.566 342.155 394.349C341.231 389.133 336.254 385.653 331.037 386.576C325.821 387.5 322.341 392.477 323.264 397.694C324.188 402.911 329.165 406.391 334.382 405.467Z" fill="#2E353A" stroke="#2E353A" stroke-linecap="round" stroke-linejoin="round"/>
<path d="M332.69 401.634C335.779 401.634 338.283 399.13 338.283 396.041C338.283 392.952 335.779 390.448 332.69 390.448C329.601 390.448 327.097 392.952 327.097 396.041C327.097 399.13 329.601 401.634 332.69 401.634Z" fill="white" stroke="#2E353A" stroke-linecap="round" stroke-linejoin="round"/>
<path d="M362.337 403.065C366.239 399.482 366.498 393.414 362.915 389.512C359.332 385.609 353.263 385.351 349.361 388.934C345.459 392.517 345.201 398.585 348.784 402.487C352.367 406.389 358.435 406.648 362.337 403.065Z" fill="#2E353A" stroke="#2E353A" stroke-linecap="round" stroke-linejoin="round"/>
<path d="M355.845 401.634C358.934 401.634 361.438 399.13 361.438 396.041C361.438 392.952 358.934 390.448 355.845 390.448C352.756 390.448 350.252 392.952 350.252 396.041C350.252 399.13 352.756 401.634 355.845 401.634Z" fill="white" stroke="#2E353A" stroke-linecap="round" stroke-linejoin="round"/>
<path d="M352.706 368.838H328.556C326.822 368.838 325.416 370.244 325.416 371.978V382.121C325.416 383.855 326.822 385.26 328.556 385.26H352.706C354.439 385.26 355.845 383.855 355.845 382.121V371.978C355.845 370.244 354.439 368.838 352.706 368.838Z" fill="#2E353A" stroke="#2E353A" stroke-linecap="round" stroke-linejoin="round"/>
<path d="M313.341 385.26V337.491H323.001V385.26" stroke="#2E353A" stroke-linecap="round" stroke-linejoin="round"/>
<path d="M313.408 343.819H322.894" stroke="#2E353A" stroke-linecap="round" stroke-linejoin="round"/>
<path d="M313.408 351.276H322.894" stroke="#2E353A" stroke-linecap="round" stroke-linejoin="round"/>
<path d="M313.408 358.734H322.894" stroke="#2E353A" stroke-linecap="round" stroke-linejoin="round"/>
<path d="M313.408 366.201H322.894" stroke="#2E353A" stroke-linecap="round" stroke-linejoin="round"/>
<path d="M313.408 373.658H322.894" stroke="#2E353A" stroke-linecap="round" stroke-linejoin="round"/>
<path d="M313.408 381.116H322.894" stroke="#2E353A" stroke-linecap="round" stroke-linejoin="round"/>
<path d="M120.131 406.56H102.743V103.236L120.131 123.455V406.56Z" stroke="#2E353A" stroke-linecap="round" stroke-linejoin="round"/>
<path d="M102.917 342.804H119.967L102.917 326.315H119.967L102.917 342.804Z" stroke="#2E353A" stroke-linecap="round" stroke-linejoin="round"/>
<path d="M102.917 325.899H119.967L102.917 309.41H119.967L102.917 325.899Z" stroke="#2E353A" stroke-linecap="round" stroke-linejoin="round"/>
<path d="M102.917 308.994H119.967L102.917 292.505H119.967L102.917 308.994Z" stroke="#2E353A" stroke-linecap="round" stroke-linejoin="round"/>
<path d="M102.917 292.089H119.967L102.917 275.6H119.967L102.917 292.089Z" stroke="#2E353A" stroke-linecap="round" stroke-linejoin="round"/>
<path d="M102.917 275.184H119.967L102.917 258.695H119.967L102.917 275.184Z" stroke="#2E353A" stroke-linecap="round" stroke-linejoin="round"/>
<path d="M102.917 258.279H119.967L102.917 241.79H119.967L102.917 258.279Z" stroke="#2E353A" stroke-linecap="round" stroke-linejoin="round"/>
<path d="M102.917 241.374H119.967L102.917 224.885H119.967L102.917 241.374Z" stroke="#2E353A" stroke-linecap="round" stroke-linejoin="round"/>
<path d="M102.917 224.469H119.967L102.917 207.98H119.967L102.917 224.469Z" stroke="#2E353A" stroke-linecap="round" stroke-linejoin="round"/>
<path d="M102.917 207.564H119.967L102.917 191.075H119.967L102.917 207.564Z" stroke="#2E353A" stroke-linecap="round" stroke-linejoin="round"/>
<path d="M102.917 190.659H119.967L102.917 174.17H119.967L102.917 190.659Z" stroke="#2E353A" stroke-linecap="round" stroke-linejoin="round"/>
<path d="M102.917 173.754H119.967L102.917 157.265H119.967L102.917 173.754Z" stroke="#2E353A" stroke-linecap="round" stroke-linejoin="round"/>
<path d="M102.917 156.849H119.967L102.917 140.36H119.967L102.917 156.849Z" stroke="#2E353A" stroke-linecap="round" stroke-linejoin="round"/>
<path d="M102.917 139.944H119.967L102.917 123.455H119.967L102.917 139.944Z" stroke="#2E353A" stroke-linecap="round" stroke-linejoin="round"/>
<path d="M200.86 140.398L192.436 135.095H132.322L124.98 140.398H200.86Z" stroke="#2E353A" stroke-linecap="round" stroke-linejoin="round"/>
<path d="M202.251 139.944H55.4189V143.808H202.251V139.944Z" fill="#2E353A" stroke="#2E353A" stroke-linecap="round" stroke-linejoin="round"/>
<path d="M192.436 135.095L102.743 103.236L132.322 135.095" stroke="#2E353A" stroke-linecap="round" stroke-linejoin="round"/>
<path d="M102.753 103.236L55.4189 139.944" stroke="#2E353A" stroke-linecap="round" stroke-linejoin="round"/>
<path d="M132.699 148.155H96.4736V171.339H132.699V148.155Z" fill="#2E353A" stroke="#2E353A" stroke-linecap="round" stroke-linejoin="round"/>
<path d="M125.145 152.985H104.019V159.747H125.145V152.985Z" fill="white" stroke="#2E353A" stroke-linecap="round" stroke-linejoin="round"/>
<path d="M202.251 143.808V185.462" stroke="#2E353A" stroke-linecap="round" stroke-linejoin="round"/>
<path d="M207.758 199.691H197.025V211.853H207.758V199.691Z" fill="#2E353A" stroke="#2E353A" stroke-linecap="round" stroke-linejoin="round"/>
<path d="M197.025 199.691L202.396 184.67L207.767 199.691" stroke="#2E353A" stroke-linecap="round" stroke-linejoin="round"/>
<path d="M173.299 346.456L196.483 383.106L202.279 378.865L185.22 344.746C184.453 343.212 183.274 341.923 181.815 341.022C180.356 340.121 178.675 339.644 176.961 339.646C176.173 339.66 175.404 339.884 174.732 340.294C174.06 340.704 173.51 341.286 173.137 341.979C172.764 342.673 172.583 343.453 172.611 344.24C172.64 345.026 172.877 345.791 173.299 346.456Z" fill="#1E8FCE" stroke="#2E353A" stroke-linecap="round" stroke-linejoin="round"/>
<path d="M200.242 374.093L176.392 391.056C176.392 391.056 178.517 400.059 192.292 399.528C206.067 398.996 205.545 384.69 205.545 384.69L200.242 374.093Z" fill="#2E353A" stroke="white" stroke-linecap="round" stroke-linejoin="round"/>
<path d="M133.993 362.965L177.193 343.5C178.617 342.859 180.219 342.725 181.73 343.12C183.242 343.516 184.572 344.417 185.5 345.673C186.043 346.407 186.432 347.242 186.647 348.129C186.861 349.016 186.895 349.937 186.747 350.838C186.6 351.738 186.273 352.6 185.787 353.372C185.3 354.144 184.664 354.811 183.916 355.333L136.65 388.419L133.993 362.965Z" fill="#1E8FCE" stroke="#2E353A" stroke-linecap="round" stroke-linejoin="round"/>
<path d="M127.637 386.815H83.1143V393.703H127.637V386.815Z" fill="white" stroke="#2E353A" stroke-linecap="round" stroke-linejoin="round"/>
<path d="M105.902 367.206H67.2139V383.106H105.902V367.206Z" fill="#2E353A" stroke="#2E353A" stroke-linecap="round" stroke-linejoin="round"/>
<path d="M100.87 349.18H133.714C134.482 349.18 135.219 349.485 135.763 350.029C136.306 350.572 136.612 351.309 136.612 352.078V383.087H97.9619V352.078C97.9619 351.697 98.0372 351.319 98.1834 350.967C98.3297 350.614 98.544 350.295 98.8141 350.025C99.0843 349.756 99.4049 349.543 99.7576 349.398C100.11 349.253 100.488 349.179 100.87 349.18Z" fill="#1E8FCE" stroke="#2E353A" stroke-linecap="round" stroke-linejoin="round"/>
<path d="M66.8179 405.623H130.159C132.159 405.623 134.078 404.828 135.493 403.414C136.908 401.999 137.703 400.08 137.703 398.079C137.703 396.077 136.908 394.157 135.494 392.741C134.079 391.324 132.16 390.527 130.159 390.525H66.8179C64.8161 390.527 62.8972 391.324 61.4826 392.741C60.068 394.157 59.2734 396.077 59.2734 398.079C59.2734 400.08 60.0683 401.999 61.4832 403.414C62.898 404.828 64.817 405.623 66.8179 405.623Z" fill="#2E353A" stroke="#2E353A" stroke-linecap="round" stroke-linejoin="round"/>
<path d="M76.3617 405.623H139.693C141.694 405.623 143.614 404.829 145.031 403.414C146.447 402 147.244 400.081 147.247 398.079C147.247 396.075 146.451 394.154 145.034 392.737C143.618 391.321 141.696 390.525 139.693 390.525H76.3617C74.3583 390.525 72.4368 391.321 71.0202 392.737C69.6035 394.154 68.8076 396.075 68.8076 398.079C68.8102 400.081 69.6072 402 71.0236 403.414C72.44 404.829 74.3599 405.623 76.3617 405.623Z" fill="white" stroke="#2E353A" stroke-linecap="round" stroke-linejoin="round"/>
<path d="M136.64 383.106H67.2139V388.409H136.64V383.106Z" fill="white" stroke="#2E353A" stroke-linecap="round" stroke-linejoin="round"/>
<path d="M81.5304 398.079C81.5304 399.023 81.2505 399.945 80.7262 400.73C80.2018 401.515 79.4565 402.127 78.5846 402.488C77.7126 402.849 76.7531 402.943 75.8274 402.759C74.9017 402.575 74.0514 402.121 73.384 401.453C72.7166 400.786 72.2622 399.936 72.078 399.01C71.8939 398.084 71.9884 397.125 72.3496 396.253C72.7108 395.381 73.3224 394.635 74.1072 394.111C74.8919 393.587 75.8145 393.307 76.7584 393.307C78.024 393.307 79.2378 393.81 80.1327 394.705C81.0276 395.6 81.5304 396.813 81.5304 398.079Z" fill="#2E353A" stroke="#2E353A" stroke-linecap="round" stroke-linejoin="round"/>
<path d="M89.48 402.851C92.1156 402.851 94.2521 400.714 94.2521 398.079C94.2521 395.443 92.1156 393.307 89.48 393.307C86.8445 393.307 84.708 395.443 84.708 398.079C84.708 400.714 86.8445 402.851 89.48 402.851Z" fill="#2E353A" stroke="#2E353A" stroke-linecap="round" stroke-linejoin="round"/>
<path d="M102.193 402.851C104.828 402.851 106.965 400.714 106.965 398.079C106.965 395.443 104.828 393.307 102.193 393.307C99.5574 393.307 97.4209 395.443 97.4209 398.079C97.4209 400.714 99.5574 402.851 102.193 402.851Z" fill="#2E353A" stroke="#2E353A" stroke-linecap="round" stroke-linejoin="round"/>
<path d="M119.687 398.079C119.687 399.023 119.407 399.945 118.882 400.73C118.358 401.515 117.613 402.127 116.741 402.488C115.869 402.849 114.909 402.943 113.984 402.759C113.058 402.575 112.208 402.121 111.54 401.453C110.873 400.786 110.418 399.936 110.234 399.01C110.05 398.084 110.145 397.125 110.506 396.253C110.867 395.381 111.479 394.635 112.263 394.111C113.048 393.587 113.971 393.307 114.915 393.307C116.18 393.307 117.394 393.81 118.289 394.705C119.184 395.6 119.687 396.813 119.687 398.079Z" fill="#2E353A" stroke="#2E353A" stroke-linecap="round" stroke-linejoin="round"/>
<path d="M132.409 398.079C132.409 399.023 132.129 399.945 131.605 400.73C131.081 401.515 130.335 402.127 129.463 402.488C128.591 402.849 127.632 402.943 126.706 402.759C125.781 402.575 124.93 402.121 124.263 401.453C123.596 400.786 123.141 399.936 122.957 399.01C122.773 398.084 122.867 397.125 123.228 396.253C123.59 395.381 124.201 394.635 124.986 394.111C125.771 393.587 126.693 393.307 127.637 393.307C128.903 393.307 130.117 393.81 131.012 394.705C131.907 395.6 132.409 396.813 132.409 398.079Z" fill="#2E353A" stroke="#2E353A" stroke-linecap="round" stroke-linejoin="round"/>
<path d="M145.122 398.079C145.122 399.023 144.842 399.946 144.317 400.731C143.793 401.516 143.047 402.128 142.174 402.489C141.302 402.85 140.342 402.943 139.416 402.759C138.49 402.574 137.639 402.118 136.972 401.45C136.305 400.782 135.852 399.93 135.669 399.004C135.486 398.078 135.581 397.118 135.944 396.246C136.307 395.374 136.92 394.63 137.706 394.106C138.492 393.583 139.416 393.305 140.36 393.307C140.986 393.307 141.606 393.43 142.185 393.67C142.763 393.91 143.288 394.262 143.731 394.705C144.173 395.148 144.524 395.675 144.762 396.253C145.001 396.832 145.123 397.453 145.122 398.079Z" fill="#2E353A" stroke="#2E353A" stroke-linecap="round" stroke-linejoin="round"/>
<path d="M182.226 349.18C182.226 348.654 182.07 348.14 181.778 347.703C181.485 347.266 181.07 346.925 180.584 346.725C180.098 346.524 179.563 346.472 179.048 346.575C178.532 346.678 178.059 346.932 177.688 347.305C177.317 347.677 177.064 348.152 176.963 348.668C176.862 349.184 176.916 349.718 177.118 350.203C177.321 350.688 177.663 351.103 178.101 351.393C178.539 351.684 179.053 351.838 179.579 351.836C179.928 351.836 180.273 351.768 180.594 351.634C180.916 351.5 181.208 351.305 181.454 351.058C181.7 350.811 181.895 350.518 182.027 350.196C182.16 349.874 182.227 349.528 182.226 349.18Z" fill="#2E353A" stroke="#2E353A" stroke-linecap="round" stroke-linejoin="round"/>
<path d="M130.815 353.421H102.724V370.384H130.815V353.421Z" fill="white" stroke="#2E353A" stroke-linecap="round" stroke-linejoin="round"/>
<path d="M130.815 353.421H115.446V370.384H130.815V353.421Z" fill="white" stroke="#2E353A" stroke-linecap="round" stroke-linejoin="round"/>
</svg>
