<svg width="483" height="483" viewBox="0 0 483 483" fill="none" xmlns="http://www.w3.org/2000/svg">
<path d="M322.644 33.4043C322.644 33.4043 247.876 6.82 174.489 49.1501C101.102 91.4803 64.0459 175.493 32.2452 242.795C0.444489 310.096 18.7212 378.566 74.7492 409.777C130.777 440.989 168.867 394.978 247.46 392.737C326.054 390.496 347.219 401.731 412.482 357.333C477.745 312.936 489.482 208.077 438.042 130.497C386.603 52.9175 322.644 33.4043 322.644 33.4043Z" fill="#1E8FCE"/>
<path opacity="0.7" d="M322.644 33.4043C322.644 33.4043 247.876 6.82 174.489 49.1501C101.102 91.4803 64.0459 175.493 32.2452 242.795C0.444489 310.096 18.7212 378.566 74.7492 409.777C130.777 440.989 168.867 394.978 247.46 392.737C326.054 390.496 347.219 401.731 412.482 357.333C477.745 312.936 489.482 208.077 438.042 130.497C386.603 52.9175 322.644 33.4043 322.644 33.4043Z" fill="white"/>
<path d="M39.5381 273.668C39.5381 273.668 41.3348 277.078 39.7409 280.275C38.147 283.473 36.1378 286.68 37.3356 288.284C38.5334 289.887 42.1656 291.887 41.7406 295.287C41.3155 298.687 36.5338 305.498 39.5381 309.304C42.5423 313.11 47.5462 312.907 47.7491 317.109C47.9519 321.311 42.9191 324.711 44.3391 328.517C45.7591 332.323 53.9991 333.125 53.9991 335.724C53.9991 338.322 50.792 341.133 53.4002 343.935C56.0084 346.736 68.5857 354.049 70.3438 351.045C72.102 348.04 75.7728 339.733 73.3867 327.938C72.981 325.958 70.1603 325.513 69.7642 322.712C69.3682 319.91 70.566 314.907 68.5664 312.086C66.5668 309.265 60.1525 308.28 59.7565 306.077C59.3604 303.875 62.1522 298.475 59.3508 295.075C56.5494 291.674 49.9419 290.09 49.9419 287.868C49.9419 285.646 51.9512 282.864 49.1498 279.86C46.3484 276.856 39.5381 273.668 39.5381 273.668Z" fill="#1E8FCE"/>
<path d="M49.1211 297.258C53.2942 309.816 60.5972 326.885 63.5628 335.125C67.166 345.133 70.3248 352.378 71.8994 362.385C73.474 372.393 74.382 439.424 74.382 439.424" stroke="#263238" stroke-linecap="round" stroke-linejoin="round"/>
<path d="M40.5713 274.875C40.5713 274.875 43.9716 277.677 46.9759 289.887C47.1691 290.669 47.3913 291.5 47.6328 292.379" stroke="#263238" stroke-linecap="round" stroke-linejoin="round"/>
<path d="M102.106 296.475C101.698 297.294 101.474 298.191 101.447 299.105C101.42 300.019 101.592 300.928 101.951 301.769C103.226 304.329 104.849 306.889 103.883 308.173C102.917 309.458 100.019 311.071 100.357 313.776C100.695 316.481 104.521 321.949 102.115 324.991C99.71 328.034 95.7108 327.889 95.5466 331.241C95.3824 334.593 99.4106 337.327 98.2707 340.37C97.1308 343.413 90.5427 344.06 90.5427 346.166C90.5427 348.272 93.1123 350.494 91.0257 352.735C88.9391 354.976 78.8927 360.801 77.4534 358.386C76.014 355.971 73.1161 349.335 75.0191 339.897C75.3379 338.313 77.5983 337.965 77.9171 335.714C78.2359 333.463 77.2795 329.464 78.8831 327.223C80.4866 324.982 85.6451 324.18 85.9252 322.393C86.2053 320.606 83.9932 316.307 86.244 313.583C88.4948 310.859 93.7788 309.574 93.7788 307.787C93.7788 306 92.1752 303.778 94.4163 301.373C96.6575 298.967 102.106 296.475 102.106 296.475Z" fill="#1E8FCE"/>
<path d="M94.4359 315.351C91.1032 325.426 85.2589 339.066 82.8439 345.654C79.9459 353.672 77.4537 359.468 76.1785 367.476C74.9034 375.484 74.1982 429.126 74.1982 429.126" stroke="#263238" stroke-linecap="round" stroke-linejoin="round"/>
<path d="M101.304 297.441C101.304 297.441 98.5803 299.682 96.1846 309.458C96.0301 310.086 95.8465 310.753 95.6533 311.448" stroke="#263238" stroke-linecap="round" stroke-linejoin="round"/>
<path d="M47.0245 341.838C47.3636 342.521 47.5512 343.269 47.5745 344.031C47.5979 344.793 47.4564 345.551 47.1597 346.253C46.0875 348.398 44.7447 350.532 45.5465 351.605C46.3483 352.677 48.7633 354.02 48.4928 356.29C48.2223 358.56 45.0152 363.119 47.0245 365.66C49.0338 368.201 52.3761 368.065 52.5114 370.876C52.6466 373.687 49.2656 375.967 50.2316 378.508C51.1976 381.048 56.6555 381.589 56.6555 383.338C56.6555 385.086 54.5207 386.951 56.2595 388.825C57.9983 390.699 66.4121 395.587 67.6196 393.577C68.8271 391.568 71.2518 386.014 69.6482 378.121C69.3874 376.798 67.5037 376.498 67.2332 374.624C66.9628 372.75 67.7645 369.408 66.4314 367.534C65.0984 365.66 60.8093 364.993 60.5388 363.515C60.2684 362.037 62.1424 358.434 60.2684 356.155C58.3943 353.875 53.9797 352.812 53.9797 351.325C53.9797 349.837 55.3225 347.972 53.4484 345.963C51.5744 343.954 47.0245 341.838 47.0245 341.838Z" fill="#1E8FCE"/>
<path d="M53.4287 357.613C56.2204 366.027 61.0987 377.416 63.0887 382.922C65.5037 389.617 67.5999 394.514 68.6625 401.151C69.7251 407.787 70.324 432.681 70.324 432.681" stroke="#263238" stroke-linecap="round" stroke-linejoin="round"/>
<path d="M47.6914 342.64C47.6914 342.64 49.9712 344.514 51.9708 352.677C52.106 353.208 52.2509 353.759 52.4151 354.339" stroke="#263238" stroke-linecap="round" stroke-linejoin="round"/>
<path d="M115.92 338.506C115.432 339.092 115.077 339.778 114.88 340.515C114.683 341.252 114.649 342.024 114.78 342.775C115.33 345.104 116.151 347.49 115.118 348.349C114.084 349.209 111.447 349.962 111.186 352.213C110.925 354.464 113.012 359.651 110.471 361.67C107.931 363.689 104.675 362.781 103.932 365.534C103.188 368.288 105.864 371.214 104.405 373.475C102.946 375.735 97.4497 375.001 97.0439 376.701C96.6382 378.402 98.3094 380.701 96.1842 382.13C94.059 383.56 84.7854 386.4 84.0416 384.149C83.2978 381.898 82.2448 375.958 85.5968 368.645C86.1668 367.418 88.0698 367.563 88.7557 365.795C89.4415 364.027 89.4319 360.598 91.161 359.082C92.8901 357.565 97.2178 357.884 97.8167 356.512C98.4157 355.14 97.411 351.199 99.7487 349.412C102.086 347.625 106.636 347.596 106.974 346.156C107.313 344.717 106.433 342.602 108.723 341.075C111.012 339.549 115.92 338.506 115.92 338.506Z" fill="#1E8FCE"/>
<path d="M106.115 352.387C101.478 359.941 94.1175 369.92 90.9297 374.827C87.0657 380.787 82.3999 384.603 81.3276 391.298C80.2554 397.992 79.6758 422.828 79.6758 422.828" stroke="#263238" stroke-linecap="round" stroke-linejoin="round"/>
<path d="M115.127 339.134C115.127 339.134 112.481 340.438 108.665 347.924C108.414 348.407 108.143 348.89 107.844 349.441" stroke="#263238" stroke-linecap="round" stroke-linejoin="round"/>
<path d="M68.4217 446.968H83.3077C91.142 442.93 96.7062 432.71 96.7062 420.722C96.8334 413.535 94.6381 406.498 90.4465 400.658H61.2829C57.105 406.503 54.9234 413.539 55.0619 420.722C55.0619 432.71 60.5874 442.93 68.4217 446.968Z" fill="white" stroke="#263238" stroke-linecap="round" stroke-linejoin="round"/>
<path d="M83.5784 446.968H68.4219V449.19H83.5784V446.968Z" fill="white" stroke="#263238" stroke-linecap="round" stroke-linejoin="round"/>
<path d="M290.167 72.45H52.8789V252.049H290.167V72.45Z" stroke="#263238" stroke-linecap="round" stroke-linejoin="round"/>
<path d="M284.622 77.2124H58.4141V247.296H284.622V77.2124Z" stroke="#263238" stroke-linecap="round" stroke-linejoin="round"/>
<path d="M127.367 102.174C127.367 102.174 90.408 99.498 87.2975 105.294C84.1869 111.09 86.3991 217.06 88.1862 218.393C89.9733 219.726 139.838 220.615 144.736 218.838C149.633 217.06 142.968 109.293 142.968 106.173C142.968 103.053 131.376 101.72 131.376 101.72" stroke="#263238" stroke-width="2" stroke-linecap="round" stroke-linejoin="round"/>
<path d="M91.1133 189.887C91.1906 203.855 91.49 214.095 92.1952 214.375C94.417 215.263 141.616 219.272 142.949 214.819C144.282 210.366 139.384 109.738 139.384 109.738" stroke="#263238" stroke-width="2" stroke-linecap="round" stroke-linejoin="round"/>
<path d="M137.607 109.293C137.607 109.293 92.6395 107.516 92.2048 109.738C91.915 111.158 91.0939 152.879 91.1036 183.212" stroke="#263238" stroke-width="2" stroke-linecap="round" stroke-linejoin="round"/>
<path d="M93.5283 117.311H137.163" stroke="#263238" stroke-width="2" stroke-linecap="round" stroke-linejoin="round"/>
<path d="M133.153 115.292C130.487 118.113 133.153 115.292 134.94 111.264C136.728 107.236 133.153 112.066 129.144 115.292C125.136 118.519 127.367 116.104 128.7 111.67C130.033 107.236 127.367 111.67 123.803 114.49C120.238 117.311 122.025 116.104 123.358 111.264C124.691 106.424 123.358 111.264 118.016 114.49C112.674 117.717 115.34 117.707 118.016 112.877C120.692 108.047 116.239 112.877 111.341 114.49C106.443 116.104 111.341 114.49 113.119 110.056C114.896 105.622 109.998 111.264 106.443 113.679C102.889 116.094 106.443 113.679 107.332 110.858C108.221 108.037 105.101 111.67 101.536 115.292C97.9717 118.915 101.536 115.292 101.981 112.066C102.425 108.839 97.9717 117.311 97.9717 117.311C97.9717 117.311 99.3047 109.245 98.416 111.264C97.8233 112.558 97.0739 113.775 96.1846 114.886" stroke="#1E8FCE" stroke-width="2" stroke-linecap="round" stroke-linejoin="round"/>
<path d="M117.572 124.875H95.75V147.585H117.572V124.875Z" stroke="#1E8FCE" stroke-width="2" stroke-linecap="round" stroke-linejoin="round"/>
<path d="M100.203 124.875L96.6484 128.884L104.212 126.217L96.6484 133.337L109.11 125.319L96.6484 138.679L113.563 126.217L95.75 142.688L117.128 127.995L95.75 147.585L117.128 133.337L101.99 146.697L117.572 138.235L107.777 146.252L117.128 143.132L115.34 146.252" stroke="#1E8FCE" stroke-width="2" stroke-linecap="round" stroke-linejoin="round"/>
<path d="M136.38 194.34H119.697V211.709H136.38V194.34Z" stroke="#1E8FCE" stroke-width="2" stroke-linecap="round" stroke-linejoin="round"/>
<path d="M123.098 194.34L120.373 197.402L126.16 195.364L120.373 200.812L129.908 194.678L120.373 204.898L133.308 195.364L119.697 207.96L136.032 196.726L119.697 211.709L136.032 200.812L124.46 211.023L136.38 204.55L128.884 210.685L136.032 208.299L134.67 210.685" stroke="#1E8FCE" stroke-width="2" stroke-linecap="round" stroke-linejoin="round"/>
<path d="M95.3057 156.048H138.051" stroke="#263238" stroke-width="2" stroke-linecap="round" stroke-linejoin="round"/>
<path d="M94.8613 160.057L137.162 160.501" stroke="#263238" stroke-width="2" stroke-linecap="round" stroke-linejoin="round"/>
<path d="M122.025 126.218H135.83" stroke="#263238" stroke-width="2" stroke-linecap="round" stroke-linejoin="round"/>
<path d="M122.025 131.559H135.83" stroke="#263238" stroke-width="2" stroke-linecap="round" stroke-linejoin="round"/>
<path d="M122.025 136.901H135.83" stroke="#263238" stroke-width="2" stroke-linecap="round" stroke-linejoin="round"/>
<path d="M122.025 142.243H135.83" stroke="#263238" stroke-width="2" stroke-linecap="round" stroke-linejoin="round"/>
<path d="M137.162 162.723H95.75V182.758H137.162V162.723Z" stroke="#1E8FCE" stroke-width="2" stroke-linecap="round" stroke-linejoin="round"/>
<path d="M95.3057 166.732L101.092 163.167L94.417 173.407L105.545 163.167L95.7501 177.87L113.119 162.723L97.9815 180.536L116.683 163.167L102.435 180.536L122.914 162.723L106.444 182.313L126.923 163.167L111.341 181.424L132.265 162.723L116.239 182.313L137.162 162.723L122.025 181.869L136.274 169.407L126.923 180.98L136.274 174.749L134.438 177.725L132.709 180.536" stroke="#1E8FCE" stroke-width="2" stroke-linecap="round" stroke-linejoin="round"/>
<path d="M97.5371 188.109H135.829" stroke="#263238" stroke-width="2" stroke-linecap="round" stroke-linejoin="round"/>
<path d="M96.6484 193.007H109.11" stroke="#263238" stroke-width="2" stroke-linecap="round" stroke-linejoin="round"/>
<path d="M144.736 111.969L175.301 108.211" stroke="#263238" stroke-width="2" stroke-linecap="round" stroke-linejoin="round"/>
<path d="M139.838 133.781H171.89" stroke="#263238" stroke-width="2" stroke-linecap="round" stroke-linejoin="round"/>
<path d="M89.0747 174.305L75.2705 179.203" stroke="#263238" stroke-width="2" stroke-linecap="round" stroke-linejoin="round"/>
<path d="M128.255 214.819C128.255 214.819 125.589 228.623 143.837 232.207" stroke="#263238" stroke-width="2" stroke-linecap="round" stroke-linejoin="round"/>
<path d="M141.171 228.623L145.624 232.632L139.384 234.41" stroke="#263238" stroke-width="2" stroke-linecap="round" stroke-linejoin="round"/>
<path d="M167.881 129.772L175.01 134.226L168.779 136.902" stroke="#263238" stroke-width="2" stroke-linecap="round" stroke-linejoin="round"/>
<path d="M169.514 106.878L177.077 107.767L171.735 112.665" stroke="#263238" stroke-width="2" stroke-linecap="round" stroke-linejoin="round"/>
<path d="M77.0482 174.749L69.4844 180.98L78.8353 181.424" stroke="#263238" stroke-width="2" stroke-linecap="round" stroke-linejoin="round"/>
<path d="M194.157 129.772H177.232V147.585H194.157V129.772Z" fill="#1E8FCE"/>
<path d="M181.241 133.781L191.036 134.226" stroke="#263238" stroke-width="2" stroke-linecap="round" stroke-linejoin="round"/>
<path d="M181.241 137.346L191.036 137.79" stroke="#263238" stroke-width="2" stroke-linecap="round" stroke-linejoin="round"/>
<path d="M181.241 140.91L191.036 141.355" stroke="#263238" stroke-width="2" stroke-linecap="round" stroke-linejoin="round"/>
<path d="M167.242 153.772L150.435 155.756L152.522 173.446L169.33 171.463L167.242 153.772Z" fill="#1E8FCE"/>
<path d="M154.879 159.274L164.655 158.569" stroke="#263238" stroke-width="2" stroke-linecap="round" stroke-linejoin="round"/>
<path d="M155.294 162.81L165.07 162.104" stroke="#263238" stroke-width="2" stroke-linecap="round" stroke-linejoin="round"/>
<path d="M155.71 166.345L165.496 165.64" stroke="#263238" stroke-width="2" stroke-linecap="round" stroke-linejoin="round"/>
<path d="M79.5372 184.052L62.7295 186.035L64.817 203.725L81.6247 201.742L79.5372 184.052Z" fill="#1E8FCE"/>
<path d="M67.1562 189.548L76.9418 188.843" stroke="#263238" stroke-width="2" stroke-linecap="round" stroke-linejoin="round"/>
<path d="M67.5723 193.094L77.3579 192.388" stroke="#263238" stroke-width="2" stroke-linecap="round" stroke-linejoin="round"/>
<path d="M67.9971 196.629L77.773 195.924" stroke="#263238" stroke-width="2" stroke-linecap="round" stroke-linejoin="round"/>
<path d="M166.989 221.113L150.159 219.324L148.276 237.037L165.105 238.827L166.989 221.113Z" fill="#1E8FCE"/>
<path d="M153.739 223.726L163.428 225.204" stroke="#263238" stroke-width="2" stroke-linecap="round" stroke-linejoin="round"/>
<path d="M153.362 227.271L163.051 228.749" stroke="#263238" stroke-width="2" stroke-linecap="round" stroke-linejoin="round"/>
<path d="M152.985 230.816L162.674 232.294" stroke="#263238" stroke-width="2" stroke-linecap="round" stroke-linejoin="round"/>
<path d="M290.158 252.049H52.8789V258.115H290.158V252.049Z" fill="#263238" stroke="#263238" stroke-linecap="round" stroke-linejoin="round"/>
<path d="M385.376 295.528V284.207H351.305V295.528C351.302 299.237 350.023 302.832 347.683 305.71L346.195 307.555H390.486L388.999 305.71C386.659 302.832 385.38 299.237 385.376 295.528Z" fill="#263238" stroke="#263238" stroke-linecap="round" stroke-linejoin="round"/>
<path d="M383.444 295.528V284.207H349.373V295.528C349.369 299.237 348.09 302.832 345.75 305.71L344.263 307.555H388.554L387.066 305.71C384.726 302.832 383.447 299.237 383.444 295.528Z" fill="white" stroke="#263238" stroke-linecap="round" stroke-linejoin="round"/>
<path d="M383.715 287.404H349.509V290.872H383.715V287.404Z" fill="#263238"/>
<path d="M426.682 187.22H306.125C301.601 187.22 297.934 190.888 297.934 195.412V279.58C297.934 284.104 301.601 287.771 306.125 287.771H426.682C431.206 287.771 434.874 284.104 434.874 279.58V195.412C434.874 190.888 431.206 187.22 426.682 187.22Z" fill="#263238" stroke="#263238" stroke-linecap="round" stroke-linejoin="round"/>
<path d="M430.363 187.22H309.806C305.282 187.22 301.614 190.888 301.614 195.412V279.58C301.614 284.104 305.282 287.771 309.806 287.771H430.363C434.887 287.771 438.554 284.104 438.554 279.58V195.412C438.554 190.888 434.887 187.22 430.363 187.22Z" fill="#263238" stroke="#263238" stroke-linecap="round" stroke-linejoin="round"/>
<path d="M297.934 272.141H434.883V279.58C434.883 281.752 434.02 283.836 432.484 285.372C430.948 286.908 428.864 287.771 426.692 287.771H306.135C303.962 287.771 301.879 286.908 300.343 285.372C298.806 283.836 297.943 281.752 297.943 279.58V272.141H297.934Z" fill="white" stroke="#263238" stroke-linecap="round" stroke-linejoin="round"/>
<path d="M427.986 193.48H304.821V264.52H427.986V193.48Z" fill="white"/>
<path d="M347.682 200.88H323.455C321.833 200.88 320.519 202.194 320.519 203.816V253.855C320.519 255.477 321.833 256.792 323.455 256.792H347.682C349.304 256.792 350.619 255.477 350.619 253.855V203.816C350.619 202.194 349.304 200.88 347.682 200.88Z" fill="#263238"/>
<path d="M348.098 205.565H323.05V252.087H348.098V205.565Z" fill="#1E8FCE"/>
<path d="M381.116 206.347H358.444V208.695H381.116V206.347Z" fill="#263238"/>
<path d="M369.398 211.438H358.84V222.383H369.398V211.438Z" fill="#1E8FCE"/>
<path d="M379.551 245.055H373.9V250.919H379.551V245.055Z" fill="#1E8FCE"/>
<path d="M380.604 230.198H359.101V241.143H380.604V230.198Z" fill="#1E8FCE"/>
<path d="M371.35 212.22H379.947" stroke="#263238" stroke-linecap="round" stroke-linejoin="round"/>
<path d="M371.35 214.954H379.947" stroke="#263238" stroke-linecap="round" stroke-linejoin="round"/>
<path d="M371.35 217.688H379.947" stroke="#263238" stroke-linecap="round" stroke-linejoin="round"/>
<path d="M371.35 220.422H379.947" stroke="#263238" stroke-linecap="round" stroke-linejoin="round"/>
<path d="M359.487 226.682H380.208" stroke="#263238" stroke-linecap="round" stroke-linejoin="round"/>
<path d="M359.487 243.886H380.208" stroke="#263238" stroke-linecap="round" stroke-linejoin="round"/>
<path d="M383.077 204.01H356.493V253.276H383.077V204.01Z" stroke="#263238" stroke-linecap="round" stroke-linejoin="round"/>
<path d="M415.525 204.01H390.506V222.383H415.525V204.01Z" fill="#BFBFBF"/>
<path d="M415.525 204.01H390.506V207.922H415.525V204.01Z" fill="#263238"/>
<path d="M398.987 210.762H392.447V217.089H398.987V210.762Z" stroke="#263238" stroke-linecap="round" stroke-linejoin="round"/>
<path d="M412.067 210.762H405.527V217.089H412.067V210.762Z" stroke="#263238" stroke-linecap="round" stroke-linejoin="round"/>
<path d="M413.119 206.231C413.119 206.422 413.063 206.609 412.957 206.768C412.851 206.927 412.7 207.051 412.523 207.124C412.347 207.197 412.152 207.216 411.965 207.179C411.778 207.142 411.606 207.05 411.47 206.914C411.335 206.779 411.243 206.607 411.206 206.42C411.169 206.232 411.188 206.038 411.261 205.862C411.334 205.685 411.458 205.534 411.617 205.428C411.776 205.322 411.962 205.265 412.153 205.265C412.41 205.265 412.655 205.367 412.837 205.548C413.018 205.729 413.119 205.975 413.119 206.231Z" fill="white"/>
<path d="M407.632 207.178C408.155 207.178 408.579 206.754 408.579 206.231C408.579 205.709 408.155 205.285 407.632 205.285C407.109 205.285 406.686 205.709 406.686 206.231C406.686 206.754 407.109 207.178 407.632 207.178Z" fill="white"/>
<path d="M413.525 232.342H394.369V246.417H413.525V232.342Z" fill="#BFBFBF"/>
<path d="M413.525 232.342H394.369V235.337H413.525V232.342Z" fill="#263238"/>
<path d="M411.69 234.042C411.692 234.188 411.65 234.331 411.571 234.453C411.491 234.575 411.377 234.671 411.243 234.728C411.11 234.785 410.962 234.801 410.819 234.773C410.676 234.746 410.544 234.677 410.44 234.575C410.337 234.472 410.266 234.342 410.237 234.199C410.207 234.056 410.221 233.908 410.277 233.773C410.332 233.639 410.426 233.524 410.547 233.442C410.668 233.361 410.81 233.318 410.956 233.318C411.149 233.318 411.334 233.394 411.472 233.53C411.609 233.665 411.687 233.849 411.69 234.042Z" fill="white"/>
<path d="M408.213 234.042C408.213 234.235 408.136 234.419 408 234.555C407.865 234.691 407.68 234.767 407.488 234.767C407.296 234.767 407.112 234.691 406.976 234.555C406.84 234.419 406.764 234.235 406.764 234.042C406.764 233.85 406.84 233.666 406.976 233.53C407.112 233.394 407.296 233.318 407.488 233.318C407.68 233.318 407.865 233.394 408 233.53C408.136 233.666 408.213 233.85 408.213 234.042Z" fill="white"/>
<path d="M316.926 197.209H308.879V260.318H316.926V197.209Z" fill="#BFBFBF"/>
<path d="M316.926 197.209H308.879V200.107H316.926V197.209Z" fill="#263238"/>
<path d="M314.675 202.039H310.811V206.55H314.675V202.039Z" stroke="#263238" stroke-linecap="round" stroke-linejoin="round"/>
<path d="M314.675 209.438H310.811V213.95H314.675V209.438Z" stroke="#263238" stroke-linecap="round" stroke-linejoin="round"/>
<path d="M314.675 216.848H310.811V221.359H314.675V216.848Z" stroke="#263238" stroke-linecap="round" stroke-linejoin="round"/>
<path d="M314.675 224.257H310.811V228.768H314.675V224.257Z" stroke="#263238" stroke-linecap="round" stroke-linejoin="round"/>
<path d="M314.675 231.656H310.811V236.168H314.675V231.656Z" stroke="#263238" stroke-linecap="round" stroke-linejoin="round"/>
<path d="M314.675 239.066H310.811V243.577H314.675V239.066Z" stroke="#263238" stroke-linecap="round" stroke-linejoin="round"/>
<path d="M314.675 246.475H310.811V250.986H314.675V246.475Z" stroke="#263238" stroke-linecap="round" stroke-linejoin="round"/>
<path d="M314.675 253.875H310.811V258.386H314.675V253.875Z" stroke="#263238" stroke-linecap="round" stroke-linejoin="round"/>
<path d="M424.48 196.562H322.084V199.141H424.48V196.562Z" fill="#BFBFBF"/>
<path d="M424.48 259.033H322.084V261.612H424.48V259.033Z" fill="#BFBFBF"/>
<path d="M388.563 307.555H344.263V309.574H388.563V307.555Z" fill="#263238" stroke="#263238" stroke-linecap="round" stroke-linejoin="round"/>
<path d="M417.525 305.903H314.675V309.574H417.525V305.903Z" fill="white" stroke="#263238" stroke-linecap="round" stroke-linejoin="round"/>
<path d="M222.508 449.19H218.326L216.229 321.031H224.605L222.508 449.19Z" fill="white" stroke="#263238" stroke-linecap="round" stroke-linejoin="round"/>
<path d="M222.508 449.19H220.663L220.914 321.031H224.604L222.508 449.19Z" fill="#263238" stroke="#263238" stroke-linecap="round" stroke-linejoin="round"/>
<path d="M282.139 449.19H277.957L275.86 321.031H284.236L282.139 449.19Z" fill="white" stroke="#263238" stroke-linecap="round" stroke-linejoin="round"/>
<path d="M282.14 449.19H280.295L280.546 321.031H284.236L282.14 449.19Z" fill="#263238" stroke="#263238" stroke-linecap="round" stroke-linejoin="round"/>
<path d="M260.791 449.19H256.598L254.512 321.031H262.877L260.791 449.19Z" fill="#263238" stroke="#263238" stroke-linecap="round" stroke-linejoin="round"/>
<path d="M260.791 449.19H258.946L259.188 321.031H262.878L260.791 449.19Z" fill="#263238" stroke="#263238" stroke-linecap="round" stroke-linejoin="round"/>
<path d="M301.083 449.19H296.89L294.804 321.031H303.169L301.083 449.19Z" fill="#263238" stroke="#263238" stroke-linecap="round" stroke-linejoin="round"/>
<path d="M301.083 449.19H299.229L299.48 321.031H303.17L301.083 449.19Z" fill="#263238" stroke="#263238" stroke-linecap="round" stroke-linejoin="round"/>
<path d="M304.222 322.992H238.554V403.17H304.222V322.992Z" fill="#263238" stroke="#263238" stroke-linecap="round" stroke-linejoin="round"/>
<path d="M286.091 322.992H220.422V403.17H286.091V322.992Z" fill="white" stroke="#263238" stroke-linecap="round" stroke-linejoin="round"/>
<path d="M418.722 449.19H414.54L412.443 321.031H420.819L418.722 449.19Z" fill="white" stroke="#263238" stroke-linecap="round" stroke-linejoin="round"/>
<path d="M418.722 449.19H416.877L417.128 321.031H420.818L418.722 449.19Z" fill="#263238" stroke="#263238" stroke-linecap="round" stroke-linejoin="round"/>
<path d="M457.005 449.19H452.812L450.726 321.031H459.091L457.005 449.19Z" fill="#263238" stroke="#263238" stroke-linecap="round" stroke-linejoin="round"/>
<path d="M457.005 449.19H455.16L455.402 321.031H459.092L457.005 449.19Z" fill="#263238" stroke="#263238" stroke-linecap="round" stroke-linejoin="round"/>
<path d="M461.739 316.201H210.714V325.02H461.739V316.201Z" fill="white" stroke="#263238" stroke-linecap="round" stroke-linejoin="round"/>
<path d="M461.739 316.201H210.714V320.606H461.739V316.201Z" fill="#263238" stroke="#263238" stroke-linecap="round" stroke-linejoin="round"/>
<path d="M461.738 316.201H424.683V325.02H461.738V316.201Z" fill="#263238" stroke="#263238" stroke-linecap="round" stroke-linejoin="round"/>
<path d="M469.853 309.12H203.903V317.939H469.853V309.12Z" fill="white" stroke="#263238" stroke-linecap="round" stroke-linejoin="round"/>
<path d="M469.853 309.12H432.797V317.94H469.853V309.12Z" fill="#263238" stroke="#263238" stroke-linecap="round" stroke-linejoin="round"/>
<path d="M282.072 330.691H224.595V358.705H282.072V330.691Z" fill="white" stroke="#263238" stroke-linecap="round" stroke-linejoin="round"/>
<path d="M259.613 341.8H247.055V346.147H259.613V341.8Z" fill="#263238" stroke="#263238" stroke-linecap="round" stroke-linejoin="round"/>
<path d="M282.072 365.95H224.595V393.964H282.072V365.95Z" fill="white" stroke="#263238" stroke-linecap="round" stroke-linejoin="round"/>
<path d="M259.613 377.059H247.055V381.406H259.613V377.059Z" fill="#263238" stroke="#263238" stroke-linecap="round" stroke-linejoin="round"/>
<path d="M370.547 374.296H387.723V339.752H370.547V374.296Z" fill="#263238"/>
<path d="M374.847 409.864H383.435V362.028H374.847V409.864Z" fill="#263238"/>
<path d="M382.633 406.184C382.633 406.184 389.849 414.376 408.396 417.225C418.191 418.732 428.392 420.606 437.241 425.291C442.931 428.305 454.262 434.903 454.262 442.438C454.27 443.544 454.008 444.636 453.496 445.618C452.984 446.599 452.24 447.44 451.327 448.066C450.415 448.692 449.363 449.085 448.264 449.21C447.164 449.335 446.051 449.189 445.021 448.783C443.991 448.377 443.077 447.725 442.358 446.883C441.639 446.042 441.138 445.037 440.898 443.957C440.659 442.876 440.688 441.754 440.983 440.687C441.278 439.621 441.831 438.643 442.592 437.84C437.959 430.87 430.776 425.996 422.587 424.267C408.483 421.195 398.185 422.451 378.344 409.256L382.633 406.184Z" fill="#263238"/>
<path d="M376.498 406.184C376.498 406.184 369.282 414.376 350.735 417.225C340.94 418.732 330.739 420.606 321.89 425.291C316.191 428.305 304.869 434.903 304.869 442.438C304.859 443.545 305.121 444.639 305.632 445.621C306.143 446.604 306.887 447.446 307.8 448.074C308.713 448.701 309.766 449.095 310.866 449.22C311.967 449.346 313.081 449.199 314.112 448.792C315.142 448.386 316.057 447.733 316.776 446.89C317.495 446.047 317.996 445.041 318.234 443.959C318.473 442.877 318.442 441.754 318.145 440.687C317.848 439.62 317.293 438.642 316.529 437.84C321.165 430.872 328.347 425.999 336.535 424.267C350.648 421.195 360.946 422.451 380.787 409.256L376.498 406.184Z" fill="#263238"/>
<path d="M376.209 449.19H382.691C383.043 449.19 383.328 448.905 383.328 448.553V437.154C383.328 436.802 383.043 436.516 382.691 436.516H376.209C375.857 436.516 375.571 436.802 375.571 437.154V448.553C375.571 448.905 375.857 449.19 376.209 449.19Z" fill="#263238"/>
<path d="M377.61 449.19H381.29V407.333H377.61V449.19Z" fill="#263238"/>
<path d="M420.731 240.012C418.587 251.448 417.295 263.027 416.867 274.653C416.587 283.618 416.442 291.297 416.307 298.069C415.901 319.118 415.669 330.787 412.356 333.927C411.931 334.217 409.187 335.907 403.449 336.39C401.846 336.526 396.745 336.593 389.809 336.632C367.813 336.564 344.697 336.381 344.33 336.381H342.987C342.929 336.381 342.881 336.487 342.833 336.535C329.618 336.458 326.218 336.381 325.976 336.381H324.633C321.861 338.786 323.513 341.877 325.928 341.897C327.734 341.897 359.216 342.177 380.748 342.177C384.554 342.177 388.138 342.177 391.316 342.177H405.864C417.137 342.177 426.479 342.099 429.048 341.887C437.018 341.23 440.592 338.535 440.969 338.226C446.282 333.512 446.484 323.166 446.977 298.185C447.103 291.423 447.257 283.753 447.528 274.827C447.962 263.151 449.286 251.526 451.488 240.051L420.731 240.012Z" fill="#263238"/>
<path d="M249.953 420.374L252.126 431.725C252.126 431.725 250.194 435.83 242.708 439.211C235.221 442.592 231.599 444.041 231.599 445.007C231.599 445.973 231.116 448.147 233.048 448.871C234.98 449.596 276.035 448.871 276.035 448.871C276.035 448.871 278.208 447.905 278.208 443.317C278.208 438.728 276.276 430.276 276.276 428.344C276.276 426.412 274.914 421.755 274.914 421.099C274.914 420.442 258.405 421.34 258.405 421.34C258.405 421.34 253.575 416.752 249.953 420.374Z" fill="white" stroke="#263238" stroke-linecap="round" stroke-linejoin="round"/>
<path d="M258.405 421.34C258.405 421.34 259.613 432.208 260.337 432.932C261.062 433.657 276.276 433.657 276.276 433.657" fill="white"/>
<path d="M258.405 421.34C258.405 421.34 259.613 432.208 260.337 432.932C261.062 433.657 276.276 433.657 276.276 433.657" stroke="#263238" stroke-linecap="round" stroke-linejoin="round"/>
<path d="M276.276 428.344L259.371 428.585" stroke="#263238" stroke-linecap="round" stroke-linejoin="round"/>
<path d="M231.599 446.939H277.725" stroke="#263238" stroke-linecap="round" stroke-linejoin="round"/>
<path d="M280.14 284.245C280.14 284.245 266.751 329.319 265.109 335.53C263.467 341.742 272.953 396.282 272.953 397.258C272.953 398.234 274.257 401.18 274.257 404.445C274.257 407.71 272.953 408.686 273.61 409.671C274.267 410.656 276.508 412.936 276.218 414.897C276.118 416.408 275.423 417.818 274.286 418.819C273.566 419.571 272.669 420.132 271.678 420.452H263.834C263.834 420.452 261.902 405.749 256.647 366.887C251.392 328.025 259.922 305.807 261.554 298.62C262.666 293.983 264.309 289.49 266.452 285.231L280.14 284.245Z" fill="#263238" stroke="#263238" stroke-linecap="round" stroke-linejoin="round"/>
<path d="M238.843 420.374L241.017 431.725C241.017 431.725 239.085 435.83 231.598 439.211C224.112 442.592 220.489 444.041 220.489 445.007C220.489 445.973 220.006 448.147 221.938 448.871C223.87 449.596 264.925 448.871 264.925 448.871C264.925 448.871 267.099 447.905 267.099 443.317C267.099 438.728 265.167 430.276 265.167 428.344C265.167 426.412 263.805 421.755 263.805 421.099C263.805 420.442 247.296 421.34 247.296 421.34C247.296 421.34 242.466 416.752 238.843 420.374Z" fill="white" stroke="#263238" stroke-linecap="round" stroke-linejoin="round"/>
<path d="M247.296 421.34C247.296 421.34 248.503 432.208 249.228 432.932C249.952 433.657 265.167 433.657 265.167 433.657" fill="white"/>
<path d="M247.296 421.34C247.296 421.34 248.503 432.208 249.228 432.932C249.952 433.657 265.167 433.657 265.167 433.657" stroke="#263238" stroke-linecap="round" stroke-linejoin="round"/>
<path d="M265.167 428.344L248.262 428.585" stroke="#263238" stroke-linecap="round" stroke-linejoin="round"/>
<path d="M220.489 446.939H266.616" stroke="#263238" stroke-linecap="round" stroke-linejoin="round"/>
<path d="M226.247 284.245C226.247 284.245 225.918 312.665 227.551 324.75C229.183 336.835 235.395 364.926 236.37 380.276C237.346 395.625 238.988 402.822 238.988 402.822C238.988 402.822 236.67 404.754 236.67 406.686C236.67 408.618 237.974 408.618 237.636 411.593C237.298 414.568 236.003 415.506 236.989 416.819C237.974 418.133 238.621 420.732 241.886 421.388C245.151 422.045 260.501 421.717 263.766 421.06C267.031 420.403 268.664 417.138 268.664 414.53C268.664 411.922 267.698 409.961 267.698 407.014C267.698 404.068 269.33 401.47 269.33 399.509C269.33 397.548 268.673 396.562 268.673 394.601C268.673 392.64 264.433 361.294 264.433 354.763C264.433 348.233 264.104 326.015 265.08 320.461C266.056 314.906 270.963 288.457 270.963 288.457L226.247 284.245Z" fill="#1E8FCE" stroke="#263238" stroke-linecap="round" stroke-linejoin="round"/>
<path d="M246.948 293.828C250.827 295.159 254.871 295.948 258.965 296.176C262.111 296.263 265.247 296.557 268.355 297.055L270.113 288.844L246.948 293.828Z" fill="#263238" stroke="#263238" stroke-linecap="round" stroke-linejoin="round"/>
<path d="M243.364 295.238C243.364 295.238 244.968 340.119 248.194 355.082C251.421 370.045 255.671 394.62 254.609 397.828C253.546 401.035 251.933 408.512 251.933 408.512C251.933 408.512 257.816 407.449 257.816 410.646C257.816 413.844 249.267 415.998 251.401 417.602C253.536 419.205 255.661 420.963 255.661 420.963" stroke="#263238" stroke-linecap="round" stroke-linejoin="round"/>
<path d="M262.346 409.941C262.346 409.941 244.61 412.839 249.643 413.805C254.676 414.771 264.269 413.564 264.752 412.366C265.235 411.168 263.786 409.7 262.346 409.941Z" fill="#263238" stroke="#263238" stroke-linecap="round" stroke-linejoin="round"/>
<path d="M184.062 99.6429L183.569 119.697L202.484 119.533L202.648 99.4786L184.062 99.6429Z" fill="#1E8FCE"/>
<path d="M205.584 136.65C205.584 136.65 201.507 132.574 199.711 128.826C197.914 125.078 195.315 122.798 195.315 120.19C195.315 117.581 196.455 111.496 195.963 109.1C195.47 106.704 195.963 101.604 197.595 101.604C197.974 101.604 198.349 101.69 198.69 101.855C199.031 102.02 199.33 102.26 199.566 102.558C199.801 102.855 199.965 103.202 200.047 103.572C200.129 103.942 200.127 104.326 200.039 104.695C199.711 106.328 201.005 112.037 201.005 112.037C201.005 112.037 202.309 101.111 202.473 100.445C202.638 99.7781 204.917 99.7878 205.903 100.28C206.888 100.773 208.018 100.599 208.018 102.724C208.018 104.85 207.526 107.284 207.526 107.777C207.526 108.269 212.095 110.877 212.259 112.829C212.423 114.78 211.931 119.513 210.791 121.523C210.011 122.738 209.363 124.034 208.859 125.387C208.695 126.034 213.264 132.883 213.264 132.883L205.584 136.65Z" fill="white" stroke="#263238" stroke-linecap="round" stroke-linejoin="round"/>
<path d="M213.186 129.763L202.077 138.254C202.077 138.254 221.02 177.444 221.677 178.71C222.334 179.975 236.042 188.515 236.042 188.515L256.618 163.032C256.618 163.032 230.816 154.869 230.168 153.893C229.521 152.918 213.186 129.763 213.186 129.763Z" fill="#263238" stroke="#263238" stroke-linecap="round" stroke-linejoin="round"/>
<path d="M226.285 273.784L225.319 288.998C225.319 288.998 237.877 294.311 251.401 294.07C264.925 293.828 283.038 288.515 283.038 288.515L285.694 273.542C285.694 273.542 253.092 276.199 243.19 275.233C233.289 274.267 226.285 273.784 226.285 273.784Z" fill="white" stroke="#263238" stroke-linecap="round" stroke-linejoin="round"/>
<path d="M216.626 268.954L215.901 273.301C215.901 273.301 226.131 278.884 248.745 281.029C262.663 282.312 276.697 280.834 290.042 276.682L290.283 269.195C278.257 272.062 265.939 273.521 253.575 273.542C241.139 273.22 228.763 271.683 216.626 268.954Z" fill="#263238" stroke="#263238" stroke-linecap="round" stroke-linejoin="round"/>
<path d="M234.979 179.116C234.979 179.116 227.01 193.123 224.353 203.99C221.697 214.858 216.384 265.09 215.659 267.988C214.935 270.886 231.84 276.682 242.949 276.923C254.058 277.165 278.932 277.648 283.279 275.957C287.626 274.267 291.732 271.852 291.732 269.195C291.732 266.539 291.973 256.637 291.973 248.668C291.973 240.698 289.558 198.677 287.385 189.017C285.211 179.357 283.762 172.595 283.038 171.388C282.313 170.18 277 164.384 266.133 165.109C257.651 165.733 249.408 168.206 241.983 172.354C239.228 174.127 236.848 176.425 234.979 179.116Z" fill="#263238" stroke="#263238" stroke-linecap="round" stroke-linejoin="round"/>
<path d="M162.143 194.726C162.143 194.726 158.221 196.359 157.893 200.281C157.564 204.203 164.761 208.115 169.002 213.998C173.242 219.881 178.797 226.044 178.797 226.044L187.298 237.8L197.421 229.309L171.291 198.996C171.291 198.996 172.595 196.098 170.963 195.074C169.589 194.435 168.102 194.075 166.588 194.015C165.074 193.955 163.563 194.197 162.143 194.726Z" fill="white" stroke="#263238" stroke-linecap="round" stroke-linejoin="round"/>
<path d="M162.8 203.874L192.234 194.069C192.234 194.069 194.166 202.242 203.005 210.733C208.304 215.839 213.985 220.534 219.997 224.778L193.538 239.8L162.8 203.874Z" fill="white" stroke="#263238" stroke-linecap="round" stroke-linejoin="round"/>
<path d="M162.8 203.874C164.097 202.419 164.895 200.588 165.08 198.648C165.167 197.752 164.919 196.855 164.384 196.131C163.849 195.406 163.064 194.906 162.182 194.726L191.249 186.235C191.249 186.235 196.803 188.167 192.215 194.069L162.8 203.874Z" fill="white" stroke="#263238" stroke-linecap="round" stroke-linejoin="round"/>
<path d="M201.749 234.931C201.749 234.931 195.219 233.965 194.891 232.033C194.562 230.101 193.258 225.832 191.993 224.199C190.727 222.566 184.477 219.301 182.516 217.012C180.555 214.723 179.251 211.457 177.947 211.786C176.643 212.114 174.682 213.418 175.329 214.684C175.977 215.949 178.923 221.552 178.923 221.552L179.58 223.832C179.58 223.832 173.697 222.866 172.721 222.528C172.437 222.447 172.137 222.437 171.847 222.5C171.558 222.562 171.289 222.694 171.063 222.885C170.837 223.076 170.661 223.319 170.551 223.594C170.441 223.868 170.4 224.166 170.432 224.46C170.432 226.092 169.128 226.092 170.76 227.068C172.393 228.044 174.354 229.357 174.354 229.357C174.354 229.357 176.643 234.583 177.252 235.559C177.86 236.535 183.135 238.834 184.11 239.481C185.086 240.128 190.322 241.771 192.93 242.379C195.538 242.988 201.421 245.325 201.421 245.325L203.054 237.81L201.749 234.931Z" fill="white" stroke="#263238" stroke-linecap="round" stroke-linejoin="round"/>
<path d="M270.992 189.858C270.992 189.858 270.335 217.62 270.335 218.925C270.335 220.229 271.301 247.016 268.403 249.296C265.505 251.575 251.092 254.522 230.188 253.874C209.284 253.227 200.136 248.648 200.136 248.648L201.768 234.931L241.616 232.033C241.616 232.033 237.375 201.662 238.022 191.21C238.67 180.758 247.17 175.203 247.17 175.203" fill="#263238"/>
<path d="M270.992 189.858C270.992 189.858 270.335 217.62 270.335 218.925C270.335 220.229 271.301 247.016 268.403 249.296C265.505 251.575 251.092 254.522 230.188 253.874C209.284 253.227 200.136 248.648 200.136 248.648L201.768 234.931L241.616 232.033C241.616 232.033 237.375 201.662 238.022 191.21C238.67 180.758 247.17 175.203 247.17 175.203" stroke="#263238" stroke-linecap="round" stroke-linejoin="round"/>
<path d="M227.01 255.092C227.01 255.092 266.558 256.473 268.644 251.614C270.731 246.755 270.721 198.88 270.721 198.88" stroke="#707070" stroke-linecap="round" stroke-linejoin="round"/>
<path d="M244.397 180.835C244.397 180.835 236.061 189.858 237.452 201.652C238.843 213.447 241.625 231.985 241.625 231.985L226.353 232.883" stroke="#707070" stroke-linecap="round" stroke-linejoin="round"/>
<path d="M227.522 105.41C227.522 105.41 222.045 114.886 223.098 116.142C224.15 117.398 223.31 119.726 223.31 119.726C223.31 119.726 217.833 123.938 218.258 125.406C218.683 126.874 223.088 130.883 223.088 130.883C223.088 130.883 223.928 142.253 225.02 143.306C226.111 144.359 233.231 145.615 234.68 145.827C235.48 145.926 236.261 146.141 236.998 146.465L241.2 169.195L264.78 147.943L260.994 137.839C260.994 137.839 258.888 124.315 259.062 118.055C259.236 111.795 248.32 104.154 241.799 102.261C235.279 100.367 227.522 105.41 227.522 105.41Z" fill="white" stroke="#263238" stroke-linecap="round" stroke-linejoin="round"/>
<path d="M231.937 92.5621C231.937 92.5621 226.469 86.882 219.939 91.3063C213.409 95.7305 215.312 102.898 221.205 105.41C227.097 107.921 234.043 106.038 231.734 108.569C229.425 111.1 228.836 116.567 232.362 117.62C235.888 118.673 235.308 122.672 235.308 124.382C235.308 126.092 238.206 125.86 238.892 124.382C239.578 122.904 241.201 118.915 245.2 120.595C249.199 122.276 248.997 131.54 247.519 133.859C246.041 136.177 244.572 135.964 244.572 135.964C244.572 135.964 246.891 136.805 245.413 139.539L243.944 142.282C243.944 142.282 247.306 146.281 255.73 144.803C264.153 143.325 266.047 139.539 264.781 136.389C263.516 133.24 260.569 132.806 263.728 128.178C266.887 123.551 274.683 118.064 274.045 107.545C273.63 100.599 257.208 94.0207 257.208 94.0207C257.208 94.0207 260.994 87.7031 252.378 83.7039C243.761 79.7046 233.859 84.3414 234.487 88.5338C235.115 92.7263 231.937 92.5621 231.937 92.5621Z" fill="#263238" stroke="#263238" stroke-linecap="round" stroke-linejoin="round"/>
<path d="M223.04 115.389C223.04 115.389 220.364 114.674 220.142 115.939C219.92 117.205 220.142 123.513 220.142 123.513C221.084 124.098 222.205 124.325 223.301 124.15C224.779 123.725 223.928 118.461 223.928 118.461" stroke="#263238" stroke-linecap="round" stroke-linejoin="round"/>
<path d="M239.732 122.46L220.345 119.253L220.364 118.036L239.732 122.46Z" fill="#263238" stroke="#263238" stroke-linecap="round" stroke-linejoin="round"/>
<path d="M267.524 141.413C267.524 141.413 256.782 149.199 249.412 157.197C242.041 165.196 233.202 174.044 232.806 176.778C232.41 179.512 233.222 183.724 237.433 179.299C241.645 174.875 249.431 168.992 255.333 168.567C261.236 168.142 270.277 171.098 274.905 171.726C279.532 172.354 282.488 173.658 284.168 171.098C285.849 168.538 281.435 162.887 281.435 159.931C281.435 156.975 282.063 151.932 279.957 148.339C277.851 144.745 271.098 140.36 267.524 141.413Z" fill="#757575" stroke="#263238" stroke-linecap="round" stroke-linejoin="round"/>
<path d="M281.28 151.836C280.682 153.882 279.866 155.857 278.846 157.728C277.619 159.554 260.356 163.012 260.356 163.012C260.356 163.012 274.576 162.201 277.213 162.201C279.85 162.201 282.903 164.635 282.903 164.635L281.483 160.771C281.483 160.771 282.072 153.671 281.28 151.836Z" fill="#263238" stroke="#263238" stroke-linecap="round" stroke-linejoin="round"/>
<path d="M30.9121 449.19H472.374" stroke="#263238" stroke-linecap="round" stroke-linejoin="round"/>
</svg>
