<svg width="477" height="443" viewBox="0 0 477 443" fill="none" xmlns="http://www.w3.org/2000/svg">
<path d="M382.421 191.121C380.089 178.76 377.108 166.532 373.491 154.487C362.616 119.625 340.969 84.3519 303.792 72.4919C276.345 63.7453 246.724 69.7807 223.532 87.6091C187.156 115.564 160.682 153.711 120.882 177.92C87.6537 198.143 70.2623 230.811 81.4337 276.987C92.605 323.162 129.925 350.063 170.766 346.796C204.71 344.047 240.198 346.988 269.543 363.532C295.769 378.314 342.105 365.448 380.436 325.069C402.77 301.53 400.604 271.603 393.325 243.639C388.822 226.318 385.903 208.652 382.421 191.121Z" fill="#1E8FCE"/>
<path opacity="0.7" d="M382.421 191.121C380.089 178.76 377.108 166.532 373.491 154.487C362.616 119.625 340.969 84.3519 303.792 72.4919C276.345 63.7453 246.724 69.7807 223.532 87.6091C187.156 115.564 160.682 153.711 120.882 177.92C87.6537 198.143 70.2623 230.811 81.4337 276.987C92.605 323.162 129.925 350.063 170.766 346.796C204.71 344.047 240.198 346.988 269.543 363.532C295.769 378.314 342.105 365.448 380.436 325.069C402.77 301.53 400.604 271.603 393.325 243.639C388.822 226.318 385.903 208.652 382.421 191.121Z" fill="white"/>
<path d="M421.105 405.694C421.105 408.683 340.015 411.116 240.017 411.116C140.018 411.116 58.9189 408.683 58.9189 405.694C58.9189 402.705 140.009 400.272 240.017 400.272C340.025 400.272 421.105 402.705 421.105 405.694Z" fill="#1E8FCE"/>
<path opacity="0.3" d="M421.105 405.694C421.105 408.683 340.015 411.116 240.017 411.116C140.018 411.116 58.9189 408.683 58.9189 405.694C58.9189 402.705 140.009 400.272 240.017 400.272C340.025 400.272 421.105 402.705 421.105 405.694Z" fill="white"/>
<path d="M386.437 301.301C386.437 301.348 388.888 298.762 389.022 298.58C390.577 296.491 392.361 291.529 390.672 289.144C390.381 288.756 390.013 288.435 389.59 288.2C389.167 287.965 388.7 287.822 388.218 287.781C387.737 287.739 387.252 287.8 386.796 287.959C386.339 288.118 385.921 288.371 385.569 288.703C384.023 290.063 383.66 292.583 383.794 294.528C383.956 296.808 386.437 301.291 386.437 301.301Z" fill="#1E8FCE"/>
<path d="M408.722 292.391C406.337 290.715 401.414 292.545 399.344 294.116C399.163 294.259 396.606 296.712 396.654 296.731H396.711C395.929 297.018 395.099 297.325 394.192 297.689C392.532 298.36 390.663 299.145 388.678 300.122C386.536 301.168 384.453 302.332 382.439 303.609C380.182 305.032 378.056 306.655 376.086 308.457C376.061 308.477 376.039 308.499 376.019 308.524C376.438 307.786 377.555 305.65 377.621 305.497C378.575 303.063 378.986 297.833 376.734 295.965C376.349 295.67 375.906 295.459 375.435 295.347C374.964 295.235 374.474 295.224 373.998 295.314C373.522 295.405 373.071 295.595 372.673 295.872C372.274 296.149 371.939 296.507 371.688 296.923C370.562 298.647 370.867 301.167 371.516 303.006C372.241 305.085 375.532 308.514 375.799 308.754C373.835 310.636 371.999 312.649 370.304 314.78C369.35 316.015 368.349 317.29 367.442 318.612C367.786 317.96 368.091 317.366 368.12 317.28C369.074 314.856 369.484 309.616 367.232 307.748C366.848 307.453 366.406 307.243 365.936 307.131C365.465 307.019 364.976 307.008 364.501 307.098C364.026 307.189 363.575 307.379 363.178 307.656C362.78 307.933 362.446 308.29 362.195 308.706C361.06 310.421 361.375 312.95 362.014 314.78C362.653 316.609 365.42 319.637 366.154 320.413L365.038 321.888C363.321 324.293 361.623 326.678 359.877 328.996C359.267 329.811 358.637 330.596 357.969 331.372C358.274 330.788 358.532 330.299 358.561 330.223C359.515 327.789 359.925 322.559 357.673 320.643C357.289 320.346 356.846 320.135 356.375 320.022C355.903 319.909 355.413 319.897 354.937 319.988C354.46 320.078 354.008 320.269 353.61 320.547C353.212 320.824 352.877 321.184 352.627 321.601C351.491 323.325 351.806 325.845 352.455 327.684C353.104 329.523 355.584 332.244 356.452 333.173C355.784 333.959 355.117 334.735 354.43 335.463C353.953 335.951 353.533 336.421 353.018 336.909L351.558 338.289C350.604 339.132 349.65 340.013 348.648 340.818C347.981 341.383 347.341 341.901 346.74 342.428C347.351 341.632 348.534 340.033 348.648 339.889C349.723 337.863 350.262 335.593 350.213 333.298C350.34 333.077 350.449 332.847 350.537 332.608C350.716 332.156 350.797 331.672 350.777 331.186C350.757 330.701 350.636 330.225 350.421 329.79C350.206 329.354 349.902 328.969 349.53 328.659C349.157 328.349 348.723 328.121 348.257 327.99C345.395 327.291 341.484 330.769 340.12 332.991C340.043 333.125 339.318 334.639 338.889 335.607C339.051 335.003 339.233 334.409 339.395 333.786C339.738 332.551 340.043 331.305 340.349 329.954C340.482 329.303 340.625 328.642 340.768 327.981C340.912 327.32 340.997 326.611 341.121 325.921C341.36 324.312 341.532 322.674 341.675 321.016C342.753 321.313 346.597 322.319 348.524 321.974C350.452 321.629 352.808 320.767 353.781 318.957C354.027 318.538 354.183 318.072 354.238 317.589C354.292 317.106 354.245 316.617 354.098 316.154C353.951 315.691 353.708 315.264 353.386 314.902C353.063 314.54 352.668 314.25 352.226 314.052C349.536 312.921 345.119 315.766 343.43 317.749C343.325 317.874 342.276 319.436 341.713 320.307C341.789 319.349 341.866 318.315 341.913 317.299C342.028 314.425 342.066 311.427 342.114 308.476C342.114 307.576 342.114 306.675 342.171 305.774C342.552 305.88 347.103 307.173 349.259 306.838C351.167 306.55 353.542 305.64 354.525 303.82C354.768 303.401 354.921 302.934 354.973 302.452C355.026 301.969 354.976 301.481 354.829 301.018C354.681 300.556 354.439 300.13 354.117 299.768C353.795 299.405 353.401 299.115 352.961 298.915C350.28 297.794 345.853 300.64 344.165 302.623C344.041 302.766 342.533 305.018 342.171 305.612C342.219 303.629 342.285 301.645 342.428 299.701C342.612 297.072 342.963 294.458 343.478 291.874C343.659 291.874 348.4 293.292 350.614 292.947C352.522 292.659 354.888 291.749 355.87 289.929C356.114 289.51 356.267 289.044 356.32 288.562C356.373 288.08 356.324 287.592 356.178 287.13C356.031 286.667 355.79 286.241 355.469 285.879C355.148 285.516 354.755 285.225 354.315 285.024C351.625 283.903 347.198 286.739 345.519 288.732C345.405 288.856 344.251 290.571 343.726 291.395L343.573 291.337C344.163 288.749 344.983 286.219 346.025 283.779C346.578 282.428 347.179 281.173 347.799 279.947C348.658 280.292 352.569 281.863 354.611 281.748C356.653 281.633 358.999 281.02 360.173 279.324C360.461 278.934 360.664 278.488 360.77 278.014C360.875 277.541 360.88 277.05 360.785 276.574C360.69 276.098 360.496 275.648 360.216 275.252C359.937 274.856 359.577 274.523 359.162 274.275C356.614 272.867 351.902 275.233 350.013 276.987C349.908 277.082 348.973 278.184 348.295 278.998C348.582 278.462 348.868 277.897 349.154 277.379C350.223 275.463 351.31 273.739 352.293 272.235C352.856 271.392 353.38 270.635 353.886 269.926C354.897 269.83 358.999 269.361 360.726 268.374C362.453 267.387 364.285 265.701 364.542 263.651C364.621 263.172 364.598 262.682 364.474 262.212C364.351 261.743 364.13 261.305 363.827 260.927C363.523 260.549 363.144 260.239 362.713 260.019C362.282 259.798 361.81 259.671 361.327 259.647C358.417 259.57 355.317 263.814 354.458 266.276C354.382 266.496 353.6 269.955 353.647 269.945H353.714C353.218 270.584 352.693 271.312 352.14 272.13C351.119 273.614 349.984 275.3 348.877 277.216C347.66 279.272 346.561 281.396 345.586 283.578C344.487 286.018 343.603 288.551 342.944 291.146C342.949 291.178 342.949 291.21 342.944 291.242C342.944 290.389 342.657 288.004 342.619 287.822C342.085 285.273 339.538 280.656 336.647 280.368C336.165 280.332 335.68 280.398 335.225 280.562C334.769 280.726 334.353 280.984 334.004 281.321C333.655 281.657 333.38 282.063 333.198 282.513C333.015 282.963 332.93 283.447 332.946 283.932C332.946 285.992 334.596 287.927 336.142 289.096C337.887 290.427 342.514 291.472 342.886 291.548C342.288 294.209 341.864 296.907 341.617 299.624C341.474 301.205 341.369 302.795 341.284 304.414C341.217 303.676 341.15 303.015 341.131 302.929C340.587 300.371 338.04 295.763 335.149 295.466C334.667 295.43 334.182 295.496 333.727 295.66C333.272 295.824 332.856 296.082 332.506 296.419C332.157 296.755 331.882 297.161 331.7 297.611C331.518 298.061 331.432 298.545 331.448 299.03C331.448 301.09 333.098 303.025 334.644 304.203C336.189 305.382 340.148 306.359 341.188 306.608C341.188 307.221 341.131 307.834 341.112 308.447C340.997 311.398 340.902 314.349 340.721 317.232C340.654 318.248 340.549 319.254 340.454 320.25C340.396 319.598 340.33 319.043 340.32 318.966C339.776 316.408 337.229 311.8 334.338 311.503C333.856 311.467 333.371 311.533 332.916 311.697C332.461 311.861 332.045 312.119 331.696 312.456C331.346 312.792 331.072 313.198 330.889 313.648C330.707 314.098 330.621 314.582 330.637 315.067C330.637 317.136 332.287 319.062 333.833 320.24C335.378 321.419 338.956 322.31 340.186 322.597C340.062 323.622 339.929 324.647 339.757 325.624C339.624 326.295 339.547 326.956 339.376 327.617L338.918 329.533C338.574 330.769 338.24 332.052 337.878 333.25C337.63 334.083 337.382 334.879 337.134 335.683C337.21 334.668 337.315 332.685 337.305 332.512C337.162 329.916 335.34 324.963 332.535 324.235C332.065 324.127 331.576 324.119 331.102 324.213C330.629 324.306 330.18 324.499 329.785 324.778C329.39 325.057 329.058 325.417 328.81 325.833C328.562 326.25 328.405 326.714 328.347 327.195C328.033 329.236 329.368 331.391 330.723 332.79C332.078 334.189 336.447 336.019 336.981 336.229C336.561 337.551 336.151 338.825 335.741 340.061C334.319 344.229 332.984 347.649 332.02 350.024C332.02 350.111 331.953 350.187 331.915 350.264L333.652 351.222C333.709 351.069 333.776 350.915 333.833 350.753C334.787 348.329 336.037 344.842 337.372 340.598C337.802 339.257 338.231 337.82 338.66 336.335C340.116 336.518 341.581 336.614 343.048 336.622C343.573 338.758 346.006 342.265 346.321 342.715C345.252 343.587 344.203 344.43 343.201 345.206C339.729 347.898 336.733 349.996 334.615 351.452L334.367 351.624L336.275 352.678C338.336 351.193 341.045 349.134 344.26 346.566C345.348 345.685 346.502 344.717 347.666 343.692C348.095 344.056 351.577 347.026 353.638 347.62C355.498 348.156 358.026 348.329 359.667 347.093C360.064 346.816 360.397 346.457 360.647 346.042C360.897 345.626 361.056 345.163 361.116 344.681C361.175 344.199 361.133 343.711 360.992 343.246C360.851 342.782 360.614 342.353 360.297 341.987C358.332 339.831 353.132 340.55 350.757 341.642C350.623 341.709 349.192 342.6 348.295 343.136C348.772 342.725 349.249 342.332 349.717 341.901C350.671 341.067 351.625 340.195 352.636 339.257L354.067 337.848C354.554 337.379 355.021 336.833 355.498 336.325C356.586 335.118 357.626 333.844 358.646 332.541C359.391 333.384 362.052 336.373 363.817 337.178C365.582 337.982 368.053 338.538 369.865 337.57C370.298 337.355 370.681 337.051 370.99 336.678C371.299 336.305 371.526 335.871 371.657 335.405C371.789 334.938 371.821 334.449 371.752 333.969C371.683 333.489 371.515 333.028 371.258 332.618C369.636 330.194 364.389 330.108 361.89 330.826C361.728 330.874 359.982 331.593 359.028 332.005C359.629 331.219 360.249 330.433 360.831 329.61C362.539 327.243 364.189 324.82 365.849 322.367L367.385 320.144C367.643 320.441 370.734 324.044 372.718 324.934C374.473 325.749 376.944 326.304 378.757 325.327C379.192 325.114 379.577 324.812 379.887 324.439C380.198 324.066 380.426 323.632 380.558 323.164C380.689 322.696 380.721 322.206 380.651 321.725C380.58 321.245 380.409 320.784 380.15 320.374C378.528 317.951 373.281 317.864 370.781 318.593C370.6 318.64 368.101 319.685 367.48 319.982C368.606 318.353 369.751 316.734 370.943 315.192C372.533 313.095 374.261 311.108 376.114 309.242C376.238 309.386 379.444 313.151 381.466 314.09C383.231 314.914 385.702 315.46 387.514 314.492C387.948 314.278 388.333 313.975 388.642 313.602C388.952 313.229 389.179 312.795 389.311 312.328C389.442 311.861 389.474 311.371 389.405 310.89C389.335 310.41 389.166 309.95 388.907 309.539C387.285 307.106 382.038 307.029 379.539 307.748C379.377 307.796 377.478 308.591 376.582 308.984L376.486 308.84C378.401 307.015 380.473 305.364 382.678 303.906C383.889 303.083 385.082 302.364 386.265 301.703C386.789 302.46 389.222 305.918 390.958 306.972C392.695 308.026 395.013 308.802 396.921 308.035C397.377 307.869 397.792 307.608 398.141 307.269C398.489 306.93 398.762 306.521 398.943 306.069C399.123 305.617 399.206 305.132 399.186 304.645C399.167 304.158 399.045 303.681 398.829 303.245C397.484 300.649 392.275 299.998 389.718 300.438C389.575 300.438 388.182 300.86 387.181 301.166L388.783 300.285C390.739 299.27 392.599 298.446 394.231 297.737C395.185 297.344 396.024 296.999 396.825 296.693C397.732 297.172 401.395 299.059 403.379 299.183C405.364 299.308 407.825 298.925 409.161 297.363C409.466 297.012 409.698 296.602 409.841 296.159C409.985 295.716 410.038 295.248 409.997 294.783C409.956 294.319 409.822 293.867 409.603 293.456C409.384 293.045 409.084 292.683 408.722 292.391Z" fill="#1E8FCE"/>
<path d="M341.713 275.291C343.096 277.111 347.628 279.477 347.637 279.477C347.647 279.477 348.286 276.009 348.296 275.78C348.448 273.174 347.208 268.058 344.48 267.004C344.024 266.842 343.539 266.778 343.057 266.816C342.575 266.854 342.106 266.994 341.681 267.226C341.256 267.458 340.885 267.778 340.591 268.164C340.298 268.55 340.088 268.994 339.977 269.466C339.443 271.449 340.578 273.749 341.713 275.291Z" fill="#1E8FCE"/>
<g opacity="0.5">
<path d="M386.437 301.301C386.437 301.349 388.888 298.762 389.022 298.58C390.577 296.491 392.361 291.529 390.672 289.144C390.381 288.756 390.013 288.435 389.59 288.2C389.167 287.965 388.7 287.823 388.218 287.781C387.737 287.739 387.252 287.8 386.796 287.959C386.339 288.118 385.921 288.371 385.569 288.703C384.023 290.063 383.66 292.583 383.794 294.528C383.956 296.808 386.437 301.291 386.437 301.301Z" fill="white"/>
<path d="M408.722 292.391C406.337 290.715 401.414 292.545 399.344 294.116C399.163 294.259 396.606 296.712 396.654 296.731H396.711C395.929 297.018 395.099 297.325 394.192 297.689C392.532 298.36 390.663 299.145 388.678 300.122C386.536 301.168 384.453 302.332 382.439 303.609C380.182 305.032 378.056 306.655 376.086 308.457C376.061 308.477 376.039 308.499 376.019 308.524C376.438 307.786 377.555 305.65 377.621 305.497C378.575 303.063 378.986 297.833 376.734 295.965C376.349 295.67 375.906 295.459 375.435 295.347C374.964 295.235 374.474 295.224 373.998 295.314C373.522 295.405 373.071 295.595 372.673 295.872C372.274 296.149 371.939 296.507 371.688 296.923C370.562 298.647 370.867 301.167 371.516 303.006C372.241 305.085 375.532 308.514 375.799 308.754C373.835 310.636 371.999 312.649 370.304 314.78C369.35 316.015 368.349 317.29 367.442 318.612C367.786 317.96 368.091 317.366 368.12 317.28C369.074 314.856 369.484 309.616 367.232 307.748C366.848 307.453 366.406 307.243 365.936 307.131C365.465 307.019 364.976 307.008 364.501 307.098C364.026 307.189 363.575 307.379 363.178 307.656C362.78 307.933 362.446 308.29 362.195 308.706C361.06 310.421 361.375 312.95 362.014 314.78C362.653 316.609 365.42 319.637 366.154 320.413L365.038 321.888C363.321 324.293 361.623 326.678 359.877 328.996C359.267 329.811 358.637 330.596 357.969 331.372C358.274 330.788 358.532 330.299 358.561 330.223C359.515 327.789 359.925 322.559 357.673 320.643C357.289 320.346 356.846 320.135 356.375 320.022C355.903 319.909 355.413 319.897 354.937 319.988C354.46 320.078 354.008 320.269 353.61 320.547C353.212 320.824 352.877 321.184 352.627 321.601C351.491 323.325 351.806 325.845 352.455 327.684C353.104 329.523 355.584 332.244 356.452 333.173C355.784 333.959 355.117 334.735 354.43 335.463C353.953 335.951 353.533 336.421 353.018 336.909L351.558 338.289C350.604 339.132 349.65 340.013 348.648 340.818C347.981 341.383 347.341 341.901 346.74 342.428C347.351 341.632 348.534 340.033 348.648 339.889C349.723 337.863 350.262 335.593 350.213 333.298C350.34 333.077 350.449 332.847 350.537 332.608C350.716 332.156 350.797 331.672 350.777 331.186C350.757 330.701 350.636 330.225 350.421 329.79C350.206 329.354 349.902 328.969 349.53 328.659C349.157 328.349 348.723 328.121 348.257 327.99C345.395 327.291 341.484 330.769 340.12 332.991C340.043 333.125 339.318 334.639 338.889 335.607C339.051 335.003 339.233 334.409 339.395 333.786C339.738 332.551 340.043 331.305 340.349 329.954C340.482 329.303 340.625 328.642 340.768 327.981C340.912 327.32 340.997 326.611 341.121 325.921C341.36 324.312 341.532 322.674 341.675 321.016C342.753 321.313 346.597 322.319 348.524 321.974C350.452 321.629 352.808 320.767 353.781 318.957C354.027 318.538 354.183 318.072 354.238 317.589C354.292 317.106 354.245 316.617 354.098 316.154C353.951 315.691 353.708 315.264 353.386 314.902C353.063 314.54 352.668 314.25 352.226 314.052C349.536 312.921 345.119 315.766 343.43 317.749C343.325 317.874 342.276 319.436 341.713 320.307C341.789 319.349 341.866 318.315 341.913 317.299C342.028 314.425 342.066 311.427 342.114 308.476C342.114 307.576 342.114 306.675 342.171 305.774C342.552 305.88 347.103 307.173 349.259 306.838C351.167 306.55 353.542 305.64 354.525 303.82C354.768 303.401 354.921 302.934 354.973 302.452C355.026 301.969 354.976 301.481 354.829 301.018C354.681 300.556 354.439 300.13 354.117 299.768C353.795 299.405 353.401 299.115 352.961 298.915C350.28 297.794 345.853 300.64 344.165 302.623C344.041 302.766 342.533 305.018 342.171 305.612C342.219 303.629 342.285 301.645 342.428 299.701C342.612 297.072 342.963 294.458 343.478 291.874C343.659 291.874 348.4 293.292 350.614 292.947C352.522 292.659 354.888 291.749 355.87 289.929C356.114 289.51 356.267 289.044 356.32 288.562C356.373 288.08 356.324 287.592 356.178 287.13C356.031 286.667 355.79 286.241 355.469 285.879C355.148 285.516 354.755 285.225 354.315 285.024C351.625 283.903 347.198 286.739 345.519 288.732C345.405 288.856 344.251 290.571 343.726 291.395L343.573 291.337C344.163 288.749 344.983 286.219 346.025 283.779C346.578 282.428 347.179 281.173 347.799 279.947C348.658 280.292 352.569 281.863 354.611 281.748C356.653 281.633 358.999 281.02 360.173 279.324C360.461 278.934 360.664 278.488 360.77 278.014C360.875 277.541 360.88 277.05 360.785 276.574C360.69 276.098 360.496 275.648 360.216 275.252C359.937 274.856 359.577 274.523 359.162 274.275C356.614 272.867 351.902 275.233 350.013 276.987C349.908 277.082 348.973 278.184 348.295 278.998C348.582 278.462 348.868 277.897 349.154 277.379C350.223 275.463 351.31 273.739 352.293 272.235C352.856 271.392 353.38 270.635 353.886 269.926C354.897 269.83 358.999 269.361 360.726 268.374C362.453 267.387 364.285 265.701 364.542 263.651C364.621 263.172 364.598 262.682 364.474 262.212C364.351 261.743 364.13 261.305 363.827 260.927C363.523 260.549 363.144 260.239 362.713 260.019C362.282 259.798 361.81 259.671 361.327 259.647C358.417 259.57 355.317 263.814 354.458 266.276C354.382 266.496 353.6 269.955 353.647 269.945H353.714C353.218 270.584 352.693 271.312 352.14 272.13C351.119 273.614 349.984 275.3 348.877 277.216C347.66 279.272 346.561 281.396 345.586 283.578C344.487 286.018 343.603 288.551 342.944 291.146C342.949 291.178 342.949 291.21 342.944 291.242C342.944 290.389 342.657 288.004 342.619 287.822C342.085 285.273 339.538 280.656 336.647 280.368C336.165 280.332 335.68 280.398 335.225 280.562C334.769 280.726 334.353 280.984 334.004 281.321C333.655 281.657 333.38 282.063 333.198 282.513C333.015 282.963 332.93 283.447 332.946 283.932C332.946 285.992 334.596 287.927 336.142 289.096C337.887 290.427 342.514 291.472 342.886 291.548C342.288 294.209 341.864 296.907 341.617 299.624C341.474 301.205 341.369 302.795 341.284 304.414C341.217 303.676 341.15 303.015 341.131 302.929C340.587 300.371 338.04 295.763 335.149 295.466C334.667 295.43 334.182 295.496 333.727 295.66C333.272 295.824 332.856 296.082 332.506 296.419C332.157 296.755 331.882 297.161 331.7 297.611C331.518 298.061 331.432 298.545 331.448 299.03C331.448 301.09 333.098 303.025 334.644 304.203C336.189 305.382 340.148 306.359 341.188 306.608C341.188 307.221 341.131 307.834 341.112 308.447C340.997 311.398 340.902 314.349 340.721 317.232C340.654 318.248 340.549 319.254 340.454 320.25C340.396 319.598 340.33 319.043 340.32 318.966C339.776 316.408 337.229 311.8 334.338 311.503C333.856 311.467 333.371 311.533 332.916 311.697C332.461 311.861 332.045 312.119 331.696 312.456C331.346 312.792 331.072 313.198 330.889 313.648C330.707 314.098 330.621 314.582 330.637 315.067C330.637 317.136 332.287 319.062 333.833 320.24C335.378 321.419 338.956 322.31 340.186 322.597C340.062 323.622 339.929 324.647 339.757 325.624C339.624 326.295 339.547 326.956 339.376 327.617L338.918 329.533C338.574 330.769 338.24 332.052 337.878 333.25C337.63 334.083 337.382 334.879 337.134 335.683C337.21 334.668 337.315 332.685 337.305 332.512C337.162 329.916 335.34 324.963 332.535 324.235C332.065 324.127 331.576 324.119 331.102 324.213C330.629 324.306 330.18 324.499 329.785 324.778C329.39 325.057 329.058 325.417 328.81 325.833C328.562 326.25 328.405 326.714 328.347 327.195C328.033 329.236 329.368 331.391 330.723 332.79C332.078 334.189 336.447 336.019 336.981 336.229C336.561 337.551 336.151 338.825 335.741 340.061C334.319 344.229 332.984 347.649 332.02 350.024C332.02 350.111 331.953 350.187 331.915 350.264L333.652 351.222C333.709 351.069 333.776 350.915 333.833 350.753C334.787 348.329 336.037 344.842 337.372 340.598C337.802 339.257 338.231 337.82 338.66 336.335C340.116 336.518 341.581 336.614 343.048 336.622C343.573 338.758 346.006 342.265 346.321 342.715C345.252 343.587 344.203 344.43 343.201 345.206C339.729 347.898 336.733 349.996 334.615 351.452L334.367 351.624L336.275 352.678C338.336 351.193 341.045 349.134 344.26 346.566C345.348 345.685 346.502 344.717 347.666 343.692C348.095 344.056 351.577 347.026 353.638 347.62C355.498 348.156 358.026 348.329 359.667 347.093C360.064 346.816 360.397 346.457 360.647 346.042C360.897 345.626 361.056 345.163 361.116 344.681C361.175 344.199 361.133 343.711 360.992 343.246C360.851 342.782 360.614 342.353 360.297 341.987C358.332 339.831 353.132 340.55 350.757 341.642C350.623 341.709 349.192 342.6 348.295 343.136C348.772 342.725 349.249 342.332 349.717 341.901C350.671 341.067 351.625 340.195 352.636 339.257L354.067 337.848C354.554 337.379 355.021 336.833 355.498 336.325C356.586 335.118 357.626 333.844 358.646 332.541C359.391 333.384 362.052 336.373 363.817 337.178C365.582 337.982 368.053 338.538 369.865 337.57C370.298 337.355 370.681 337.051 370.99 336.678C371.299 336.305 371.526 335.871 371.657 335.405C371.789 334.938 371.821 334.449 371.752 333.969C371.683 333.489 371.515 333.028 371.258 332.618C369.636 330.194 364.389 330.108 361.89 330.826C361.728 330.874 359.982 331.593 359.028 332.005C359.629 331.219 360.249 330.433 360.831 329.61C362.539 327.243 364.189 324.82 365.849 322.367L367.385 320.144C367.643 320.441 370.734 324.044 372.718 324.934C374.473 325.749 376.944 326.304 378.757 325.327C379.192 325.114 379.577 324.812 379.887 324.439C380.198 324.066 380.426 323.632 380.558 323.164C380.689 322.696 380.721 322.206 380.651 321.725C380.58 321.245 380.409 320.784 380.15 320.374C378.528 317.951 373.281 317.864 370.781 318.593C370.6 318.64 368.101 319.685 367.48 319.982C368.606 318.353 369.751 316.734 370.943 315.192C372.533 313.095 374.261 311.108 376.114 309.242C376.238 309.386 379.444 313.151 381.466 314.09C383.231 314.914 385.702 315.46 387.514 314.492C387.948 314.278 388.333 313.975 388.642 313.602C388.952 313.229 389.179 312.795 389.311 312.328C389.442 311.861 389.474 311.371 389.405 310.89C389.335 310.41 389.166 309.95 388.907 309.539C387.285 307.106 382.038 307.029 379.539 307.748C379.377 307.796 377.478 308.591 376.582 308.984L376.486 308.84C378.401 307.015 380.473 305.364 382.678 303.906C383.889 303.083 385.082 302.364 386.265 301.703C386.789 302.46 389.222 305.918 390.958 306.972C392.695 308.026 395.013 308.802 396.921 308.035C397.377 307.869 397.792 307.608 398.141 307.269C398.489 306.93 398.762 306.521 398.943 306.069C399.123 305.617 399.206 305.132 399.186 304.645C399.167 304.158 399.045 303.681 398.829 303.245C397.484 300.649 392.275 299.998 389.718 300.438C389.575 300.438 388.182 300.86 387.181 301.166L388.783 300.285C390.739 299.27 392.599 298.446 394.231 297.737C395.185 297.344 396.024 296.999 396.825 296.693C397.732 297.172 401.395 299.059 403.379 299.183C405.364 299.308 407.825 298.925 409.161 297.363C409.466 297.012 409.698 296.602 409.841 296.159C409.985 295.716 410.038 295.248 409.997 294.783C409.956 294.319 409.822 293.867 409.603 293.456C409.384 293.045 409.084 292.683 408.722 292.391Z" fill="white"/>
<path d="M341.713 275.291C343.096 277.111 347.628 279.477 347.637 279.477C347.647 279.477 348.286 276.009 348.296 275.78C348.448 273.174 347.208 268.058 344.48 267.004C344.024 266.842 343.539 266.778 343.057 266.816C342.575 266.854 342.106 266.994 341.681 267.226C341.256 267.458 340.885 267.778 340.591 268.164C340.298 268.55 340.088 268.994 339.977 269.466C339.443 271.449 340.578 273.749 341.713 275.291Z" fill="white"/>
</g>
<path d="M155.501 226.854C155.559 226.854 154.757 222.84 154.671 222.601C153.717 219.727 150.283 214.736 146.925 214.745C146.367 214.763 145.819 214.898 145.317 215.142C144.815 215.386 144.369 215.734 144.009 216.162C143.649 216.59 143.383 217.09 143.228 217.628C143.073 218.166 143.032 218.731 143.109 219.286C143.357 221.652 145.475 223.674 147.392 224.833C149.625 226.203 155.501 226.854 155.501 226.854Z" fill="#1E8FCE"/>
<path d="M161.999 199.829C158.831 200.969 157.229 206.851 157.362 209.86C157.362 210.118 157.963 214.171 158.021 214.142H158.087C157.83 215.1 157.572 216.058 157.305 217.159C156.828 219.181 156.351 221.47 155.912 224C155.459 226.724 155.16 229.471 155.015 232.229C154.848 235.314 154.953 238.407 155.33 241.474C155.335 241.512 155.335 241.55 155.33 241.588C154.92 240.688 153.68 238.226 153.556 238.044C151.915 235.524 147.259 231.625 144.016 232.526C143.483 232.692 142.99 232.968 142.57 233.337C142.15 233.705 141.812 234.159 141.577 234.667C141.343 235.175 141.217 235.727 141.208 236.288C141.199 236.848 141.307 237.404 141.526 237.919C142.384 240.132 144.96 241.521 147.116 242.135C149.549 242.834 154.968 242.01 155.397 241.943C155.855 245.056 156.521 248.135 157.391 251.159C157.887 252.922 158.44 254.684 159.022 256.447C158.641 255.681 158.288 255 158.23 254.914C156.58 252.395 151.934 248.496 148.69 249.396C148.157 249.559 147.664 249.834 147.243 250.202C146.822 250.569 146.483 251.022 146.248 251.53C146.013 252.038 145.887 252.59 145.879 253.15C145.871 253.71 145.98 254.265 146.2 254.78C147.059 257.003 149.635 258.392 151.791 259.005C153.947 259.618 158.602 259.005 159.833 258.842C160.062 259.513 160.281 260.193 160.51 260.863C161.617 264.082 162.743 267.301 163.744 270.443C164.097 271.564 164.403 272.685 164.699 273.796C164.355 273.116 164.069 272.551 164.012 272.474C162.371 269.955 157.715 266.056 154.472 266.956C153.938 267.12 153.445 267.394 153.024 267.762C152.603 268.129 152.264 268.582 152.029 269.09C151.794 269.598 151.669 270.15 151.66 270.71C151.652 271.27 151.762 271.826 151.982 272.34C152.84 274.563 155.416 275.952 157.572 276.565C159.728 277.178 163.935 276.642 165.395 276.431C165.681 277.59 165.967 278.74 166.187 279.87C166.33 280.646 166.511 281.384 166.606 282.179C166.702 282.974 166.816 283.721 166.931 284.478C167.083 285.953 167.246 287.477 167.36 288.923C167.446 289.881 167.503 290.839 167.57 291.797C167.236 290.676 166.521 288.492 166.444 288.32C165.256 285.952 163.487 283.927 161.302 282.438C161.18 282.169 161.033 281.912 160.863 281.671C160.561 281.199 160.164 280.797 159.696 280.489C159.229 280.181 158.703 279.976 158.152 279.885C157.6 279.795 157.036 279.822 156.496 279.965C155.956 280.107 155.451 280.362 155.015 280.713C152.478 282.926 153.107 288.971 154.281 291.749C154.348 291.912 155.302 293.598 155.912 294.623C155.454 294.058 155.025 293.503 154.548 292.918C153.594 291.778 152.64 290.657 151.61 289.45L150.036 287.735C149.52 287.151 148.91 286.605 148.337 286.03C147.002 284.727 145.571 283.472 144.111 282.198C145.065 281.374 148.614 278.366 149.625 276.383C150.637 274.4 151.342 271.526 150.293 269.39C150.064 268.879 149.729 268.422 149.312 268.05C148.895 267.678 148.405 267.398 147.873 267.229C147.341 267.06 146.779 267.005 146.225 267.069C145.67 267.132 145.135 267.313 144.655 267.598C141.793 269.39 141.526 275.463 142.26 278.385C142.308 278.567 143.071 280.598 143.51 281.71C142.623 280.981 141.745 280.244 140.829 279.525C138.168 277.466 135.42 275.463 132.682 273.452C131.843 272.838 131.013 272.206 130.183 271.593C130.545 271.296 134.791 267.857 135.907 265.596C136.908 263.584 137.634 260.739 136.584 258.603C136.355 258.092 136.02 257.635 135.603 257.263C135.186 256.891 134.696 256.611 134.164 256.442C133.632 256.273 133.07 256.218 132.516 256.282C131.961 256.345 131.426 256.526 130.946 256.811C128.084 258.603 127.807 264.676 128.551 267.598C128.551 267.819 129.706 270.75 130.021 271.478C128.189 270.108 126.386 268.729 124.65 267.292C122.294 265.368 120.063 263.294 117.972 261.084C118.143 260.95 122.589 257.376 123.696 255.058C124.697 253.046 125.422 250.201 124.373 248.065C124.143 247.554 123.809 247.097 123.392 246.725C122.975 246.353 122.485 246.073 121.953 245.904C121.42 245.735 120.859 245.68 120.304 245.744C119.75 245.807 119.215 245.988 118.735 246.273C115.873 248.065 115.596 254.138 116.34 257.06C116.34 257.252 117.227 259.484 117.647 260.538L117.485 260.634C115.45 258.351 113.623 255.888 112.028 253.276C111.131 251.858 110.359 250.402 109.634 249.051C110.521 248.467 114.594 245.775 115.863 243.801C117.132 241.828 118.105 239.165 117.294 236.933C117.122 236.399 116.84 235.908 116.466 235.492C116.093 235.075 115.636 234.742 115.126 234.514C114.616 234.287 114.063 234.169 113.505 234.17C112.947 234.171 112.395 234.289 111.885 234.518C108.861 235.994 107.916 242 108.327 244.98C108.327 245.143 108.756 246.771 109.071 247.95C108.756 247.317 108.422 246.666 108.117 246.034C107.01 243.734 106.142 241.569 105.379 239.634C104.959 238.532 104.606 237.536 104.282 236.588C104.864 235.563 107.144 231.376 107.373 229.087C107.602 226.797 107.249 223.933 105.465 222.323C105.067 221.93 104.591 221.626 104.069 221.429C103.546 221.233 102.988 221.149 102.431 221.184C101.874 221.218 101.331 221.37 100.836 221.629C100.341 221.888 99.9063 222.248 99.5594 222.687C97.556 225.389 99.4735 231.165 101.21 233.618C101.353 233.829 104.072 236.885 104.072 236.827V236.76C104.368 237.718 104.692 238.676 105.026 239.711C105.741 241.627 106.571 243.859 107.63 246.187C108.741 248.712 109.999 251.169 111.399 253.544C112.957 256.212 114.744 258.738 116.741 261.093L116.817 261.17C115.978 260.653 113.593 259.254 113.392 259.197C110.635 258.009 104.616 257.338 102.402 259.877C102.048 260.31 101.789 260.814 101.64 261.355C101.492 261.895 101.459 262.461 101.543 263.016C101.626 263.571 101.825 264.101 102.126 264.574C102.427 265.046 102.823 265.45 103.29 265.759C105.198 267.129 108.136 266.861 110.263 266.18C112.677 265.414 116.741 261.726 117.065 261.39C119.144 263.73 121.375 265.929 123.743 267.972C125.127 269.169 126.558 270.338 128.008 271.478L126.51 270.635C123.753 269.447 117.733 268.777 115.52 271.325C115.165 271.757 114.905 272.259 114.757 272.799C114.608 273.339 114.574 273.904 114.657 274.457C114.739 275.011 114.937 275.541 115.237 276.013C115.537 276.485 115.932 276.889 116.397 277.197C118.305 278.577 121.244 278.299 123.381 277.619C125.518 276.939 129.105 273.864 130.002 273.03L131.681 274.343C134.38 276.412 137.08 278.471 139.666 280.57C140.572 281.307 141.44 282.074 142.318 282.83C141.659 282.457 141.106 282.141 141.011 282.102C138.263 280.914 132.234 280.244 130.03 282.782C129.675 283.216 129.415 283.719 129.267 284.259C129.118 284.799 129.084 285.365 129.166 285.92C129.249 286.474 129.447 287.005 129.747 287.478C130.047 287.951 130.442 288.355 130.908 288.665C132.816 290.035 135.754 289.766 137.891 289.086C140.028 288.406 143.243 285.618 144.34 284.641C145.218 285.446 146.086 286.25 146.897 287.074C147.441 287.64 147.994 288.157 148.509 288.76L150.045 290.504C150.999 291.654 151.953 292.832 152.84 293.972C153.46 294.757 154.042 295.524 154.624 296.29C153.728 295.543 151.934 294.116 151.762 294.02C149.215 292.42 143.367 290.839 140.801 293.062C140.385 293.436 140.052 293.893 139.824 294.405C139.596 294.917 139.479 295.471 139.479 296.032C139.479 296.592 139.596 297.146 139.824 297.658C140.052 298.17 140.385 298.628 140.801 299.001C142.508 300.659 145.428 300.831 147.641 300.486C150.074 300.103 154.491 297.21 155.034 296.846C155.988 298.12 156.942 299.365 157.772 300.563C160.749 304.682 163.067 308.227 164.651 310.727L164.813 310.986L166.864 309.98L166.54 309.492C164.88 307.001 162.466 303.466 159.375 299.375C158.421 298.072 157.343 296.712 156.237 295.323C157.372 294.062 158.436 292.738 159.423 291.357C161.779 292.315 166.702 292.315 167.332 292.315C167.436 293.914 167.522 295.466 167.58 296.932C167.789 302.01 167.78 306.253 167.723 309.223V309.568L169.974 308.466C169.974 305.516 169.869 301.54 169.564 296.827C169.469 295.208 169.335 293.474 169.173 291.701C169.802 291.548 174.897 290.226 176.805 288.684C178.551 287.276 180.392 284.995 180.335 282.62C180.339 282.059 180.225 281.503 180.001 280.989C179.777 280.475 179.448 280.014 179.035 279.636C178.622 279.258 178.134 278.972 177.604 278.796C177.073 278.62 176.512 278.559 175.956 278.615C172.626 279.046 169.831 284.44 169.278 287.41C169.278 287.582 169.106 289.517 169.03 290.734C168.963 290.015 168.906 289.306 168.829 288.559C168.677 287.093 168.486 285.618 168.286 284.047L167.913 281.738C167.809 280.972 167.599 280.177 167.436 279.382C167.036 277.542 166.54 275.712 165.996 273.864C167.274 273.739 171.834 273.193 173.79 272.072C175.746 270.951 177.892 268.978 178.188 266.611C178.277 266.058 178.249 265.492 178.106 264.95C177.962 264.409 177.707 263.903 177.356 263.467C177.005 263.032 176.566 262.675 176.068 262.421C175.57 262.167 175.025 262.022 174.467 261.994C171.109 261.908 167.532 266.784 166.549 269.658C166.482 269.83 166.005 271.957 165.757 273.126C165.424 272.024 165.099 270.922 164.727 269.811C163.64 266.621 162.447 263.431 161.264 260.231L160.205 257.3C160.663 257.252 166.101 256.734 168.286 255.47C170.194 254.349 172.388 252.376 172.683 250.019C172.773 249.465 172.745 248.899 172.601 248.356C172.458 247.814 172.202 247.308 171.851 246.872C171.5 246.435 171.062 246.078 170.564 245.823C170.066 245.568 169.521 245.421 168.963 245.392C165.605 245.315 162.027 250.182 161.045 253.056C160.968 253.276 160.281 256.323 160.138 257.108C159.366 254.953 158.612 252.797 157.963 250.642C157.058 247.738 156.344 244.778 155.826 241.78C156.036 241.78 161.712 241.244 163.954 239.95C165.862 238.829 168.057 236.856 168.352 234.49C168.44 233.937 168.411 233.371 168.267 232.83C168.123 232.289 167.867 231.784 167.516 231.349C167.165 230.913 166.727 230.557 166.23 230.302C165.733 230.048 165.189 229.901 164.632 229.872C161.274 229.786 157.696 234.662 156.714 237.536C156.647 237.728 156.122 240.046 155.893 241.157H155.702C155.264 238.126 155.095 235.061 155.197 231.999C155.197 230.313 155.359 228.703 155.511 227.142C156.58 227.142 161.455 227.142 163.592 226.184C165.729 225.226 168.018 223.569 168.572 221.25C168.721 220.71 168.755 220.144 168.672 219.589C168.588 219.035 168.389 218.504 168.088 218.032C167.786 217.56 167.389 217.157 166.921 216.85C166.454 216.543 165.927 216.338 165.376 216.249C162.046 215.79 157.954 220.283 156.666 222.955C156.59 223.109 156.046 224.689 155.655 225.829C155.74 225.12 155.817 224.392 155.903 223.722C156.246 221.193 156.714 218.932 157.143 216.872C157.4 215.722 157.648 214.688 157.896 213.72C158.946 213.184 163.163 210.971 164.574 209.17C165.986 207.369 167.293 204.801 166.721 202.464C166.409 201.508 165.749 200.707 164.873 200.218C163.998 199.73 162.972 199.591 161.999 199.829Z" fill="#1E8FCE"/>
<path d="M101.267 251.83C103.891 251.724 109.138 249.023 109.147 249.023C109.157 249.023 106.285 246.091 106.113 245.928C103.767 244.012 98.138 241.809 95.3427 243.667C94.8854 243.989 94.5008 244.405 94.2143 244.886C93.9278 245.368 93.7457 245.905 93.6799 246.462C93.6142 247.019 93.6663 247.583 93.8328 248.119C93.9994 248.654 94.2766 249.148 94.6463 249.569C96.1536 251.418 99.0252 251.954 101.267 251.83Z" fill="#1E8FCE"/>
<g opacity="0.5">
<path d="M155.502 226.854C155.56 226.854 154.758 222.84 154.672 222.601C153.718 219.727 150.284 214.736 146.926 214.745C146.368 214.763 145.82 214.898 145.318 215.142C144.816 215.386 144.37 215.734 144.01 216.162C143.65 216.59 143.384 217.09 143.229 217.628C143.074 218.166 143.033 218.731 143.11 219.286C143.358 221.652 145.476 223.674 147.393 224.833C149.626 226.203 155.502 226.854 155.502 226.854Z" fill="white"/>
<path d="M161.999 199.829C158.831 200.969 157.229 206.851 157.362 209.86C157.362 210.118 157.963 214.171 158.021 214.142H158.087C157.83 215.1 157.572 216.058 157.305 217.159C156.828 219.181 156.351 221.47 155.912 224C155.459 226.724 155.16 229.471 155.015 232.229C154.848 235.314 154.953 238.407 155.33 241.474C155.335 241.512 155.335 241.55 155.33 241.588C154.92 240.688 153.68 238.226 153.556 238.044C151.915 235.524 147.259 231.625 144.016 232.526C143.483 232.692 142.99 232.968 142.57 233.337C142.15 233.705 141.812 234.159 141.577 234.667C141.343 235.175 141.217 235.727 141.208 236.288C141.199 236.848 141.307 237.404 141.526 237.919C142.384 240.132 144.96 241.521 147.116 242.135C149.549 242.834 154.968 242.01 155.397 241.943C155.855 245.056 156.521 248.135 157.391 251.159C157.887 252.922 158.44 254.684 159.022 256.447C158.641 255.681 158.288 255 158.23 254.914C156.58 252.395 151.934 248.496 148.69 249.396C148.157 249.559 147.664 249.834 147.243 250.202C146.822 250.569 146.483 251.022 146.248 251.53C146.013 252.038 145.887 252.59 145.879 253.15C145.871 253.71 145.98 254.265 146.2 254.78C147.059 257.003 149.635 258.392 151.791 259.005C153.947 259.618 158.602 259.005 159.833 258.842C160.062 259.513 160.281 260.193 160.51 260.863C161.617 264.082 162.743 267.301 163.744 270.443C164.097 271.564 164.403 272.685 164.699 273.796C164.355 273.116 164.069 272.551 164.012 272.474C162.371 269.955 157.715 266.056 154.472 266.956C153.938 267.12 153.445 267.394 153.024 267.762C152.603 268.129 152.264 268.582 152.029 269.09C151.794 269.598 151.669 270.15 151.66 270.71C151.652 271.27 151.762 271.826 151.982 272.34C152.84 274.563 155.416 275.952 157.572 276.565C159.728 277.178 163.935 276.642 165.395 276.431C165.681 277.59 165.967 278.74 166.187 279.87C166.33 280.646 166.511 281.384 166.606 282.179C166.702 282.974 166.816 283.721 166.931 284.478C167.083 285.953 167.246 287.477 167.36 288.923C167.446 289.881 167.503 290.839 167.57 291.797C167.236 290.676 166.521 288.492 166.444 288.32C165.256 285.952 163.487 283.927 161.302 282.438C161.18 282.169 161.033 281.912 160.863 281.671C160.561 281.199 160.164 280.797 159.696 280.489C159.229 280.181 158.703 279.976 158.152 279.885C157.6 279.795 157.036 279.822 156.496 279.965C155.956 280.107 155.451 280.362 155.015 280.713C152.478 282.926 153.107 288.971 154.281 291.749C154.348 291.912 155.302 293.598 155.912 294.623C155.454 294.058 155.025 293.503 154.548 292.918C153.594 291.778 152.64 290.657 151.61 289.45L150.036 287.735C149.52 287.151 148.91 286.605 148.337 286.03C147.002 284.727 145.571 283.472 144.111 282.198C145.065 281.374 148.614 278.366 149.625 276.383C150.637 274.4 151.342 271.526 150.293 269.39C150.064 268.879 149.729 268.422 149.312 268.05C148.895 267.678 148.405 267.398 147.873 267.229C147.341 267.06 146.779 267.005 146.225 267.069C145.67 267.132 145.135 267.313 144.655 267.598C141.793 269.39 141.526 275.463 142.26 278.385C142.308 278.567 143.071 280.598 143.51 281.71C142.623 280.981 141.745 280.244 140.829 279.525C138.168 277.466 135.42 275.463 132.682 273.452C131.843 272.838 131.013 272.206 130.183 271.593C130.545 271.296 134.791 267.857 135.907 265.596C136.908 263.584 137.634 260.739 136.584 258.603C136.355 258.092 136.02 257.635 135.603 257.263C135.186 256.891 134.696 256.611 134.164 256.442C133.632 256.273 133.07 256.218 132.516 256.282C131.961 256.345 131.426 256.526 130.946 256.811C128.084 258.603 127.807 264.676 128.551 267.598C128.551 267.819 129.706 270.75 130.021 271.478C128.189 270.108 126.386 268.729 124.65 267.292C122.294 265.368 120.063 263.294 117.972 261.084C118.143 260.95 122.589 257.376 123.696 255.058C124.697 253.046 125.422 250.201 124.373 248.065C124.143 247.554 123.809 247.097 123.392 246.725C122.975 246.353 122.485 246.073 121.953 245.904C121.42 245.735 120.859 245.68 120.304 245.744C119.75 245.807 119.215 245.988 118.735 246.273C115.873 248.065 115.596 254.138 116.34 257.06C116.34 257.252 117.227 259.484 117.647 260.538L117.485 260.634C115.45 258.351 113.623 255.888 112.028 253.276C111.131 251.858 110.359 250.402 109.634 249.051C110.521 248.467 114.594 245.775 115.863 243.801C117.132 241.828 118.105 239.165 117.294 236.933C117.122 236.399 116.84 235.908 116.466 235.492C116.093 235.075 115.636 234.742 115.126 234.514C114.616 234.287 114.063 234.169 113.505 234.17C112.947 234.171 112.395 234.289 111.885 234.518C108.861 235.994 107.916 242 108.327 244.98C108.327 245.143 108.756 246.771 109.071 247.95C108.756 247.317 108.422 246.666 108.117 246.034C107.01 243.734 106.142 241.569 105.379 239.634C104.959 238.532 104.606 237.536 104.282 236.588C104.864 235.563 107.144 231.376 107.373 229.087C107.602 226.797 107.249 223.933 105.465 222.323C105.067 221.93 104.591 221.626 104.069 221.429C103.546 221.233 102.988 221.149 102.431 221.184C101.874 221.218 101.331 221.37 100.836 221.629C100.341 221.888 99.9063 222.248 99.5594 222.687C97.556 225.389 99.4735 231.165 101.21 233.618C101.353 233.829 104.072 236.885 104.072 236.827V236.76C104.368 237.718 104.692 238.676 105.026 239.711C105.741 241.627 106.571 243.859 107.63 246.187C108.741 248.712 109.999 251.169 111.399 253.544C112.957 256.212 114.744 258.738 116.741 261.093L116.817 261.17C115.978 260.653 113.593 259.254 113.392 259.197C110.635 258.009 104.616 257.338 102.402 259.877C102.048 260.31 101.789 260.814 101.64 261.355C101.492 261.895 101.459 262.461 101.543 263.016C101.626 263.571 101.825 264.101 102.126 264.574C102.427 265.046 102.823 265.45 103.29 265.759C105.198 267.129 108.136 266.861 110.263 266.18C112.677 265.414 116.741 261.726 117.065 261.39C119.144 263.73 121.375 265.929 123.743 267.972C125.127 269.169 126.558 270.338 128.008 271.478L126.51 270.635C123.753 269.447 117.733 268.777 115.52 271.325C115.165 271.757 114.905 272.259 114.757 272.799C114.608 273.339 114.574 273.904 114.657 274.457C114.739 275.011 114.937 275.541 115.237 276.013C115.537 276.485 115.932 276.889 116.397 277.197C118.305 278.577 121.244 278.299 123.381 277.619C125.518 276.939 129.105 273.864 130.002 273.03L131.681 274.343C134.38 276.412 137.08 278.471 139.666 280.57C140.572 281.307 141.44 282.074 142.318 282.83C141.659 282.457 141.106 282.141 141.011 282.102C138.263 280.914 132.234 280.244 130.03 282.782C129.675 283.216 129.415 283.719 129.267 284.259C129.118 284.799 129.084 285.365 129.166 285.92C129.249 286.474 129.447 287.005 129.747 287.478C130.047 287.951 130.442 288.355 130.908 288.665C132.816 290.035 135.754 289.766 137.891 289.086C140.028 288.406 143.243 285.618 144.34 284.641C145.218 285.446 146.086 286.25 146.897 287.074C147.441 287.64 147.994 288.157 148.509 288.76L150.045 290.504C150.999 291.654 151.953 292.832 152.84 293.972C153.46 294.757 154.042 295.524 154.624 296.29C153.728 295.543 151.934 294.116 151.762 294.02C149.215 292.42 143.367 290.839 140.801 293.062C140.385 293.436 140.052 293.893 139.824 294.405C139.596 294.917 139.479 295.471 139.479 296.032C139.479 296.592 139.596 297.146 139.824 297.658C140.052 298.17 140.385 298.628 140.801 299.001C142.508 300.659 145.428 300.831 147.641 300.486C150.074 300.103 154.491 297.21 155.034 296.846C155.988 298.12 156.942 299.365 157.772 300.563C160.749 304.682 163.067 308.227 164.651 310.727L164.813 310.986L166.864 309.98L166.54 309.492C164.88 307.001 162.466 303.466 159.375 299.375C158.421 298.072 157.343 296.712 156.237 295.323C157.372 294.062 158.436 292.738 159.423 291.357C161.779 292.315 166.702 292.315 167.332 292.315C167.436 293.914 167.522 295.466 167.58 296.932C167.789 302.01 167.78 306.253 167.723 309.223V309.568L169.974 308.466C169.974 305.516 169.869 301.54 169.564 296.827C169.469 295.208 169.335 293.474 169.173 291.701C169.802 291.548 174.897 290.226 176.805 288.684C178.551 287.276 180.392 284.995 180.335 282.62C180.339 282.059 180.225 281.503 180.001 280.989C179.777 280.475 179.448 280.014 179.035 279.636C178.622 279.258 178.134 278.972 177.604 278.796C177.073 278.62 176.512 278.559 175.956 278.615C172.626 279.046 169.831 284.44 169.278 287.41C169.278 287.582 169.106 289.517 169.03 290.734C168.963 290.015 168.906 289.306 168.829 288.559C168.677 287.093 168.486 285.618 168.286 284.047L167.913 281.738C167.809 280.972 167.599 280.177 167.436 279.382C167.036 277.542 166.54 275.712 165.996 273.864C167.274 273.739 171.834 273.193 173.79 272.072C175.746 270.951 177.892 268.978 178.188 266.611C178.277 266.058 178.249 265.492 178.106 264.95C177.962 264.409 177.707 263.903 177.356 263.467C177.005 263.032 176.566 262.675 176.068 262.421C175.57 262.167 175.025 262.022 174.467 261.994C171.109 261.908 167.532 266.784 166.549 269.658C166.482 269.83 166.005 271.957 165.757 273.126C165.424 272.024 165.099 270.922 164.727 269.811C163.64 266.621 162.447 263.431 161.264 260.231L160.205 257.3C160.663 257.252 166.101 256.734 168.286 255.47C170.194 254.349 172.388 252.376 172.683 250.019C172.773 249.465 172.745 248.899 172.601 248.356C172.458 247.814 172.202 247.308 171.851 246.872C171.5 246.435 171.062 246.078 170.564 245.823C170.066 245.568 169.521 245.421 168.963 245.392C165.605 245.315 162.027 250.182 161.045 253.056C160.968 253.276 160.281 256.323 160.138 257.108C159.366 254.953 158.612 252.797 157.963 250.642C157.058 247.738 156.344 244.778 155.826 241.78C156.036 241.78 161.712 241.244 163.954 239.95C165.862 238.829 168.057 236.856 168.352 234.49C168.44 233.937 168.411 233.371 168.267 232.83C168.123 232.289 167.867 231.784 167.516 231.349C167.165 230.913 166.727 230.557 166.23 230.302C165.733 230.048 165.189 229.901 164.632 229.872C161.274 229.786 157.696 234.662 156.714 237.536C156.647 237.728 156.122 240.046 155.893 241.157H155.702C155.264 238.126 155.095 235.061 155.197 231.999C155.197 230.313 155.359 228.703 155.511 227.142C156.58 227.142 161.455 227.142 163.592 226.184C165.729 225.226 168.018 223.569 168.572 221.25C168.721 220.71 168.755 220.144 168.672 219.589C168.588 219.035 168.389 218.504 168.088 218.032C167.786 217.56 167.389 217.157 166.921 216.85C166.454 216.543 165.927 216.338 165.376 216.249C162.046 215.79 157.954 220.283 156.666 222.955C156.59 223.109 156.046 224.689 155.655 225.829C155.74 225.12 155.817 224.392 155.903 223.722C156.246 221.193 156.714 218.932 157.143 216.872C157.4 215.722 157.648 214.688 157.896 213.72C158.946 213.184 163.163 210.971 164.574 209.17C165.986 207.369 167.293 204.801 166.721 202.464C166.409 201.508 165.749 200.707 164.873 200.218C163.998 199.73 162.972 199.591 161.999 199.829Z" fill="white"/>
<path d="M101.267 251.83C103.891 251.724 109.138 249.023 109.147 249.023C109.157 249.023 106.285 246.091 106.113 245.928C103.767 244.012 98.138 241.809 95.3427 243.667C94.8854 243.989 94.5008 244.405 94.2143 244.886C93.9278 245.368 93.7457 245.905 93.6799 246.462C93.6142 247.019 93.6663 247.583 93.8328 248.119C93.9994 248.654 94.2766 249.148 94.6463 249.569C96.1536 251.418 99.0252 251.954 101.267 251.83Z" fill="white"/>
</g>
<path d="M133.331 324.178C133.331 324.178 149.263 285.618 158.183 287.295C167.102 288.971 142.919 348.77 142.919 348.77C142.919 348.77 170.947 295.677 190.065 295.677C209.183 295.677 183.053 354.355 158.85 373.917C158.85 373.917 197.068 332.56 219.363 341.508C241.658 350.456 174.773 392.359 174.773 392.359C174.773 392.359 213.629 380.067 209.174 389.571C204.719 399.074 192.612 400.741 192.612 400.741L236.563 402.983H83.6465L118.048 399.63C118.048 399.63 82.3681 381.744 91.9272 374.482C101.486 367.221 122.503 382.865 122.503 382.865C122.503 382.865 86.1937 342.629 93.196 327.531C100.198 312.433 131.423 354.92 131.423 354.92C131.423 354.92 105.941 300.707 111.036 291.232C116.13 281.757 133.331 324.178 133.331 324.178Z" fill="#1E8FCE"/>
<path opacity="0.5" d="M133.331 324.178C133.331 324.178 149.263 285.618 158.183 287.295C167.102 288.971 142.919 348.77 142.919 348.77C142.919 348.77 170.947 295.677 190.065 295.677C209.183 295.677 183.053 354.355 158.85 373.917C158.85 373.917 197.068 332.56 219.363 341.508C241.658 350.456 174.773 392.359 174.773 392.359C174.773 392.359 213.629 380.067 209.174 389.571C204.719 399.074 192.612 400.741 192.612 400.741L236.563 402.983H83.6465L118.048 399.63C118.048 399.63 82.3681 381.744 91.9272 374.482C101.486 367.221 122.503 382.865 122.503 382.865C122.503 382.865 86.1937 342.629 93.196 327.531C100.198 312.433 131.423 354.92 131.423 354.92C131.423 354.92 105.941 300.707 111.036 291.232C116.13 281.757 133.331 324.178 133.331 324.178Z" fill="white"/>
<path d="M128.236 326.209C142.25 367.795 142.25 397.225 142.25 397.225C142.25 397.225 125.689 397.857 108.488 385.068" stroke="#19478B" stroke-linecap="round" stroke-linejoin="round"/>
<path d="M135.248 348.607C138.129 336.173 141.956 323.981 146.696 312.136" stroke="#19478B" stroke-linecap="round" stroke-linejoin="round"/>
<path d="M176.652 324.293L140.982 377.395C140.982 377.395 116.769 356.922 108.488 345.407" stroke="#19478B" stroke-linecap="round" stroke-linejoin="round"/>
<path d="M141.621 390.184C141.621 390.184 179.199 372.269 194.492 362.038" stroke="#19478B" stroke-linecap="round" stroke-linejoin="round"/>
<path d="M338.851 324.178C338.851 324.178 322.929 285.618 314.047 287.295C305.165 288.971 329.311 348.77 329.311 348.77C329.311 348.77 301.282 295.677 282.174 295.677C263.065 295.677 289.176 354.355 313.389 373.917C313.389 373.917 275.162 332.56 252.867 341.508C230.572 350.456 297.466 392.359 297.466 392.359C297.466 392.359 258.6 380.067 263.065 389.571C267.53 399.074 279.627 400.741 279.627 400.741L235.638 402.983H388.545L354.144 399.63C354.144 399.63 389.814 381.744 380.264 374.482C370.715 367.221 349.679 382.865 349.679 382.865C349.679 382.865 385.998 342.629 378.986 327.531C371.974 312.433 340.759 354.92 340.759 354.92C340.759 354.92 366.25 300.707 361.146 291.203C356.042 281.7 338.851 324.178 338.851 324.178Z" fill="#1E8FCE"/>
<path opacity="0.5" d="M338.851 324.178C338.851 324.178 322.929 285.618 314.047 287.295C305.165 288.971 329.311 348.77 329.311 348.77C329.311 348.77 301.282 295.677 282.174 295.677C263.065 295.677 289.176 354.355 313.389 373.917C313.389 373.917 275.162 332.56 252.867 341.508C230.572 350.456 297.466 392.359 297.466 392.359C297.466 392.359 258.6 380.067 263.065 389.571C267.53 399.074 279.627 400.741 279.627 400.741L235.638 402.983H388.545L354.144 399.63C354.144 399.63 389.814 381.744 380.264 374.482C370.715 367.221 349.679 382.865 349.679 382.865C349.679 382.865 385.998 342.629 378.986 327.531C371.974 312.433 340.759 354.92 340.759 354.92C340.759 354.92 366.25 300.707 361.146 291.203C356.042 281.7 338.851 324.178 338.851 324.178Z" fill="white"/>
<path d="M343.945 326.209C329.931 367.795 329.931 397.225 329.931 397.225C329.931 397.225 346.492 397.857 363.693 385.068" stroke="#19478B" stroke-linecap="round" stroke-linejoin="round"/>
<path d="M336.943 348.607C334.062 336.173 330.235 323.981 325.495 312.136" stroke="#19478B" stroke-linecap="round" stroke-linejoin="round"/>
<path d="M295.53 324.293L331.21 377.395C331.21 377.395 355.413 356.922 363.694 345.407" stroke="#19478B" stroke-linecap="round" stroke-linejoin="round"/>
<path d="M330.571 390.184C330.571 390.184 292.983 372.269 277.69 362.038" stroke="#19478B" stroke-linecap="round" stroke-linejoin="round"/>
<path d="M313.132 116.397H165.834C162.278 116.397 159.395 119.292 159.395 122.864V399.812C159.395 403.383 162.278 406.278 165.834 406.278H313.132C316.688 406.278 319.571 403.383 319.571 399.812V122.864C319.571 119.292 316.688 116.397 313.132 116.397Z" fill="#19478B" stroke="#19478B" stroke-miterlimit="10"/>
<path d="M250.559 133.718H230.62C230.351 133.718 230.084 133.664 229.836 133.561C229.587 133.457 229.361 133.306 229.17 133.114C228.98 132.923 228.829 132.696 228.725 132.446C228.622 132.196 228.569 131.928 228.569 131.658C228.569 131.388 228.622 131.121 228.726 130.871C228.829 130.622 228.98 130.395 229.171 130.205C229.361 130.014 229.587 129.864 229.836 129.761C230.085 129.659 230.352 129.607 230.62 129.608H250.559C251.101 129.608 251.62 129.824 252.003 130.208C252.386 130.593 252.601 131.114 252.601 131.658C252.602 131.928 252.55 132.196 252.448 132.445C252.346 132.695 252.196 132.922 252.006 133.114C251.816 133.305 251.591 133.457 251.343 133.561C251.094 133.664 250.828 133.718 250.559 133.718Z" fill="#1E8FCE"/>
<path d="M309.449 380.374H169.517V133.957H202.687L206.417 137.061C207.718 138.153 209.359 138.75 211.054 138.747H269.572C271.329 138.737 273.022 138.091 274.342 136.927L277.71 133.957H309.421L309.449 380.374Z" fill="white" stroke="#19478B" stroke-width="0.938618" stroke-linecap="round" stroke-linejoin="round"/>
<path d="M225.402 152.121L223.494 145.683H175.87V152.121V367.288V373.735H303.525V152.121H225.402Z" fill="#1E8FCE"/>
<path d="M299.031 163.722H180.354V366.646H299.031V163.722Z" fill="white"/>
<path d="M243.957 387.99C243.959 387.357 243.773 386.737 243.424 386.21C243.075 385.682 242.578 385.271 241.996 385.027C241.414 384.783 240.773 384.719 240.155 384.841C239.536 384.963 238.967 385.267 238.521 385.714C238.074 386.162 237.77 386.732 237.646 387.353C237.522 387.974 237.585 388.617 237.826 389.203C238.067 389.788 238.475 390.288 238.999 390.64C239.523 390.992 240.14 391.18 240.77 391.18C241.613 391.178 242.421 390.841 243.017 390.244C243.614 389.646 243.952 388.836 243.957 387.99Z" fill="#1E8FCE"/>
<path d="M230.782 357.784C252.363 357.784 269.858 332.787 269.858 301.952C269.858 271.117 252.363 246.12 230.782 246.12C209.201 246.12 191.706 271.117 191.706 301.952C191.706 332.787 209.201 357.784 230.782 357.784Z" fill="#1E8FCE"/>
<path opacity="0.5" d="M230.782 357.784C252.363 357.784 269.858 332.787 269.858 301.952C269.858 271.117 252.363 246.12 230.782 246.12C209.201 246.12 191.706 271.117 191.706 301.952C191.706 332.787 209.201 357.784 230.782 357.784Z" fill="white"/>
<path d="M236.325 239.634C236.325 239.634 233.882 235.534 231.641 235.333C229.399 235.132 202.706 251.954 198.623 260.71C194.539 269.466 190.676 287.036 201.485 303.945C212.026 320.394 228.55 319.847 237.117 319.024C245.683 318.2 251.427 315.402 260.108 308.409C268.789 301.416 276.755 291.117 277.91 284.124C279.064 277.13 274.819 273.241 272.109 272.273C269.4 271.306 253.726 271.497 242.306 259.819C230.887 248.141 236.325 239.634 236.325 239.634Z" fill="#19478B" stroke="#19478B" stroke-linecap="round" stroke-linejoin="round"/>
<path d="M239.787 234.308C239.787 234.308 232.861 236.971 228.578 241.675C224.294 246.378 221.652 253.755 221.451 264.6C221.251 275.444 224.714 287.716 238.156 293.043C251.598 298.369 263.628 294.269 267.501 290.581C271.374 286.892 276.087 276.469 276.087 276.469C276.087 276.469 254.698 282.217 244.51 270.118C234.321 258.018 239.787 234.308 239.787 234.308Z" fill="white" stroke="#19478B" stroke-linecap="round" stroke-linejoin="round"/>
<path d="M359.495 241.866C354.267 233.991 341.789 231.664 331.925 228.454C322.06 225.245 316.251 218.874 318.865 203.106C321.478 187.337 335.083 161.72 334.825 157.055C334.567 152.389 287.812 152.686 283.452 154.181C279.092 155.675 278.234 155.34 274.17 160.59C271.917 163.425 269.88 166.425 268.074 169.566L273.111 158.932H273.483C274.03 157.535 274.807 156.239 275.782 155.1C280.215 149.936 282.726 143.388 282.889 136.572C283.08 126.542 275.973 127.51 274.628 130.595C273.282 133.679 265.412 144.294 263.103 147.187C260.795 150.08 255.996 157.993 255.996 157.993L250.663 176.559C250.663 176.559 249.499 182.097 242.821 203.086C236.143 224.076 239.053 233.752 239.053 233.752C239.053 233.752 237.307 232.88 233.243 245.411C229.179 257.941 230.925 273.969 238.175 281.547C245.426 289.124 255.013 288.837 265.755 284.469C272.363 281.625 277.867 276.694 281.43 270.424C281.43 270.424 292.754 267.55 301.168 261.103C309.582 254.656 315.964 247.988 328.176 248.572C340.387 249.157 354.296 256.15 358.942 255.853C363.588 255.556 364.723 249.731 359.495 241.866Z" fill="white"/>
<mask id="mask0_219_91" style="mask-type:luminance" maskUnits="userSpaceOnUse" x="231" y="128" width="132" height="160">
<path d="M359.495 241.866C354.267 233.991 341.789 231.664 331.925 228.454C322.06 225.245 316.251 218.874 318.865 203.106C321.478 187.337 335.083 161.72 334.825 157.055C334.567 152.389 287.812 152.686 283.452 154.181C279.092 155.675 278.234 155.34 274.17 160.59C271.917 163.425 269.88 166.425 268.074 169.566L273.111 158.932H273.483C274.03 157.535 274.807 156.239 275.782 155.1C280.215 149.936 282.726 143.388 282.889 136.572C283.08 126.542 275.973 127.51 274.628 130.595C273.282 133.679 265.412 144.294 263.103 147.187C260.795 150.08 255.996 157.993 255.996 157.993L250.663 176.559C250.663 176.559 249.499 182.097 242.821 203.086C236.143 224.076 239.053 233.752 239.053 233.752C239.053 233.752 237.307 232.88 233.243 245.411C229.179 257.941 230.925 273.969 238.175 281.547C245.426 289.124 255.013 288.837 265.755 284.469C272.363 281.625 277.867 276.694 281.43 270.424C281.43 270.424 292.754 267.55 301.168 261.103C309.582 254.656 315.964 247.988 328.176 248.572C340.387 249.157 354.296 256.15 358.942 255.853C363.588 255.556 364.723 249.731 359.495 241.866Z" fill="white"/>
</mask>
<g mask="url(#mask0_219_91)">
<path d="M284.635 214.592C252.342 219.43 242.191 227.171 245.416 237.823C246.085 239.936 247.172 241.891 248.612 243.571C248.612 243.773 248.612 243.993 248.669 244.223C248.669 244.223 249.241 244.568 250.1 245.181C251.231 246.278 252.453 247.274 253.754 248.16C255.872 250.182 257.77 252.711 257.379 255.058C256.549 260.059 244.977 268.796 239.129 269.217C233.281 269.639 231.249 263.804 230.419 270.051C229.589 276.297 242.449 291.701 254.889 290.034C267.329 288.368 277.699 270.874 277.699 270.874C277.699 270.874 276.039 268 284.377 259.216C289.853 253.468 297.686 250.929 303.686 248.572C309.351 246.899 314.874 244.772 320.2 242.211C334.958 234.949 352.493 239.797 352.493 239.797C352.493 239.797 316.928 209.697 284.635 214.592Z" fill="#1E8FCE"/>
<path opacity="0.5" d="M284.635 214.592C252.342 219.43 242.191 227.171 245.416 237.823C246.085 239.936 247.172 241.891 248.612 243.571C248.612 243.773 248.612 243.993 248.669 244.223C248.669 244.223 249.241 244.568 250.1 245.181C251.231 246.278 252.453 247.274 253.754 248.16C255.872 250.182 257.77 252.711 257.379 255.058C256.549 260.059 244.977 268.796 239.129 269.217C233.281 269.639 231.249 263.804 230.419 270.051C229.589 276.297 242.449 291.701 254.889 290.034C267.329 288.368 277.699 270.874 277.699 270.874C277.699 270.874 276.039 268 284.377 259.216C289.853 253.468 297.686 250.929 303.686 248.572C309.351 246.899 314.874 244.772 320.2 242.211C334.958 234.949 352.493 239.797 352.493 239.797C352.493 239.797 316.928 209.697 284.635 214.592Z" fill="white"/>
</g>
<path d="M359.495 241.866C354.267 233.991 341.789 231.664 331.925 228.454C322.06 225.245 316.251 218.874 318.865 203.106C321.478 187.337 335.083 161.72 334.825 157.055C334.567 152.389 287.812 152.686 283.452 154.181C279.092 155.675 278.234 155.34 274.17 160.59C271.917 163.425 269.88 166.425 268.074 169.566L273.111 158.932H273.483C274.03 157.535 274.807 156.239 275.782 155.1C280.215 149.936 282.726 143.388 282.889 136.572C283.08 126.542 275.973 127.51 274.628 130.595C273.282 133.679 265.412 144.294 263.103 147.187C260.795 150.08 255.996 157.993 255.996 157.993L250.663 176.559C250.663 176.559 249.499 182.097 242.821 203.086C236.143 224.076 239.053 233.752 239.053 233.752C239.053 233.752 237.307 232.88 233.243 245.411C229.179 257.941 230.925 273.969 238.175 281.547C245.426 289.124 255.013 288.837 265.755 284.469C272.363 281.625 277.867 276.694 281.43 270.424C281.43 270.424 292.754 267.55 301.168 261.103C309.582 254.656 315.964 247.988 328.176 248.572C340.387 249.157 354.296 256.15 358.942 255.853C363.588 255.556 364.723 249.731 359.495 241.866Z" stroke="#19478B" stroke-linecap="round" stroke-linejoin="round"/>
<path d="M359.657 255.786C359.657 255.786 360.268 253.334 353.342 250.038C346.416 246.742 343.563 249.013 343.563 250.651C343.563 252.289 358.589 255.786 359.657 255.786Z" fill="white" stroke="#19478B" stroke-linecap="round" stroke-linejoin="round"/>
<path d="M294.032 143.537L276.555 157.045H299.994C299.994 157.045 299.994 140.452 294.032 143.537Z" fill="white" stroke="#19478B" stroke-linecap="round" stroke-linejoin="round"/>
<path d="M272.109 240.966C274.592 238.149 277.686 235.943 281.153 234.518" stroke="#19478B" stroke-linecap="round" stroke-linejoin="round"/>
<path d="M268.933 246.206C269.2 245.427 269.549 244.679 269.972 243.974" stroke="#19478B" stroke-linecap="round" stroke-linejoin="round"/>
<path d="M261.968 264.408C261.034 263.582 260.16 262.689 259.354 261.735" stroke="#19478B" stroke-linecap="round" stroke-linejoin="round"/>
<path d="M281.43 270.424C276.04 271.04 270.594 269.92 265.88 267.225" stroke="#19478B" stroke-linecap="round" stroke-linejoin="round"/>
<path d="M346.779 155.886H258.706C246.542 155.886 236.688 165.341 236.688 176.962V218.635C236.688 228.77 244.138 237.239 254.079 239.28L249.433 253.084L270.936 239.787H346.779C358.933 239.787 368.797 230.332 368.797 218.711V177.038C368.797 165.341 358.933 155.886 346.779 155.886Z" fill="#1E8FCE" stroke="#19478B" stroke-width="2" stroke-miterlimit="10"/>
<path d="M251.025 183.946H350.032" stroke="#19478B" stroke-width="2.06409" stroke-miterlimit="10" stroke-linecap="round"/>
<path d="M251.025 194.187H350.032" stroke="#19478B" stroke-width="2.06409" stroke-miterlimit="10" stroke-linecap="round"/>
<path d="M251.025 204.418H350.032" stroke="#19478B" stroke-width="2.06409" stroke-miterlimit="10" stroke-linecap="round"/>
<path d="M251.025 214.649H350.032" stroke="#19478B" stroke-width="2.06409" stroke-miterlimit="10" stroke-linecap="round"/>
<path d="M367.996 192.414C374.777 192.414 380.274 187.143 380.274 180.641C380.274 174.138 374.777 168.867 367.996 168.867C361.215 168.867 355.718 174.138 355.718 180.641C355.718 187.143 361.215 192.414 367.996 192.414Z" fill="#19478B"/>
<path d="M367.042 188.956C366.638 188.147 366.457 187.244 366.517 186.341V176.761L364.361 177.968C364.129 178.102 363.866 178.175 363.598 178.178C363.397 178.18 363.198 178.14 363.013 178.059C362.829 177.978 362.664 177.859 362.529 177.709C362.248 177.416 362.094 177.024 362.1 176.617C362.094 176.341 362.174 176.069 362.329 175.841C362.552 175.573 362.816 175.344 363.111 175.161L367.29 173.015C367.756 172.679 368.302 172.471 368.873 172.411C370.295 172.411 371.001 173.484 371.001 175.63V186.676C371.001 188.774 370.257 189.818 368.759 189.818C368.421 189.848 368.082 189.783 367.779 189.631C367.476 189.479 367.22 189.245 367.042 188.956Z" fill="white"/>
<path d="M320.887 149.716C320.887 149.716 321.278 157.428 328.195 161.097C335.111 164.766 343.945 163.971 344.136 159.363C344.327 154.755 338.946 149.908 335.302 143.729C331.658 137.55 323.578 141.037 320.124 145.281" fill="white"/>
<path d="M320.887 149.716C320.887 149.716 321.278 157.428 328.195 161.097C335.111 164.766 343.945 163.971 344.136 159.363C344.327 154.755 338.946 149.908 335.302 143.729C331.658 137.55 323.578 141.037 320.124 145.281" stroke="#19478B" stroke-linecap="round" stroke-linejoin="round"/>
<path d="M332.803 155.886C332.221 158.971 334.339 160.676 336.257 161.634C338.174 162.592 341.981 162.027 344.137 159.325C344.232 157.064 343.001 154.765 341.275 152.284C338.871 152.59 333.252 153.472 332.803 155.886Z" fill="white" stroke="#19478B" stroke-linecap="round" stroke-linejoin="round"/>
<path d="M306.482 149.716C306.482 149.716 306.863 157.428 313.78 161.097C320.696 164.766 329.54 163.971 329.731 159.363C329.921 154.755 324.541 149.908 320.887 143.729C317.233 137.55 309.172 141.037 305.709 145.281" fill="white"/>
<path d="M306.482 149.716C306.482 149.716 306.863 157.428 313.78 161.097C320.696 164.766 329.54 163.971 329.731 159.363C329.921 154.755 324.541 149.908 320.887 143.729C317.233 137.55 309.172 141.037 305.709 145.281" stroke="#19478B" stroke-linecap="round" stroke-linejoin="round"/>
<path d="M318.397 155.886C317.815 158.971 319.933 160.676 321.85 161.634C323.768 162.592 327.574 162.027 329.73 159.325C329.816 157.064 328.586 154.765 326.868 152.284C324.464 152.59 318.845 153.472 318.397 155.886Z" fill="white" stroke="#19478B" stroke-linecap="round" stroke-linejoin="round"/>
<path d="M293.078 149.716C293.078 149.716 293.46 157.428 300.376 161.097C307.293 164.766 316.127 163.971 316.318 159.363C316.509 154.755 311.138 149.908 307.484 143.729C303.83 137.55 295.759 141.037 292.306 145.281" fill="white"/>
<path d="M293.078 149.716C293.078 149.716 293.46 157.428 300.376 161.097C307.293 164.766 316.127 163.971 316.318 159.363C316.509 154.755 311.138 149.908 307.484 143.729C303.83 137.55 295.759 141.037 292.306 145.281" stroke="#19478B" stroke-linecap="round" stroke-linejoin="round"/>
<path d="M304.984 155.886C304.412 158.971 306.52 160.676 308.447 161.634C310.374 162.592 314.171 162.027 316.318 159.325C316.413 157.064 315.182 154.765 313.456 152.284C311.052 152.59 305.433 153.472 304.984 155.886Z" fill="white" stroke="#19478B" stroke-linecap="round" stroke-linejoin="round"/>
<path d="M239.053 233.752C239.053 233.752 239.587 245.612 246.103 253.592" stroke="#19478B" stroke-linecap="round" stroke-linejoin="round"/>
<path d="M220.088 283.252C220.088 285.666 218.485 287.62 216.51 287.62C214.535 287.62 212.933 285.704 212.933 283.252C212.933 280.799 214.535 278.883 216.51 278.883C218.485 278.883 220.088 280.838 220.088 283.252Z" fill="white"/>
<path d="M211.186 288.693C211.186 291.107 209.584 293.062 207.609 293.062C205.634 293.062 204.031 291.146 204.031 288.693C204.031 286.241 205.634 284.315 207.609 284.315C209.584 284.315 211.186 286.279 211.186 288.693Z" stroke="#19478B" stroke-linecap="round" stroke-linejoin="round"/>
</svg>
