<svg width="55" height="55" viewBox="0 0 55 55" fill="none" xmlns="http://www.w3.org/2000/svg">
<g clip-path="url(#clip0_229_334)">
<path d="M44.7788 11.638C42.4811 9.35652 39.7508 7.55692 36.7482 6.34485C33.7455 5.13278 30.5311 4.53267 27.2934 4.57972C21.2155 4.56452 15.3805 6.96438 11.0721 11.2513C6.7636 15.5383 4.3346 21.3612 4.31941 27.4391C4.30421 33.517 6.70407 39.3519 10.991 43.6604C15.278 47.9688 21.1009 50.3978 27.1788 50.413C28.4885 50.4353 29.7684 50.0221 30.8178 49.2381C31.8672 48.4542 32.6266 47.344 32.9767 46.0818C33.1999 45.1703 33.1976 44.2181 32.97 43.3077C32.7424 42.3973 32.2963 41.556 31.6704 40.8568C31.5257 40.6921 31.4313 40.4893 31.3984 40.2726C31.3654 40.0558 31.3954 39.8342 31.4847 39.6339C31.5739 39.4337 31.7188 39.2633 31.902 39.1429C32.0852 39.0225 32.2991 38.9572 32.5184 38.9547H36.2996C39.8585 38.9714 43.2918 37.641 45.9103 35.2308C48.5288 32.8206 50.1385 29.509 50.4163 25.961C50.5015 23.3155 50.0455 20.6805 49.0761 18.2176C48.1066 15.7546 46.6443 13.5157 44.7788 11.638ZM36.3913 34.3714H32.61C31.5057 34.3651 30.4234 34.6794 29.4942 35.2762C28.565 35.8729 27.8289 36.7265 27.3752 37.7333C26.9216 38.7401 26.7698 39.8569 26.9383 40.9483C27.1068 42.0397 27.5884 43.0587 28.3246 43.8818C28.468 44.0264 28.5693 44.2073 28.6177 44.4051C28.6662 44.6029 28.6599 44.8102 28.5996 45.0047C28.485 45.486 27.9579 45.7839 27.2475 45.8297C24.6449 45.7963 22.0793 45.2092 19.7212 44.1073C17.3631 43.0054 15.2667 41.4141 13.5714 39.4391C11.8761 37.4641 10.6207 35.1508 9.88887 32.653C9.15698 30.1552 8.96535 27.5302 9.3267 24.9526C9.98021 20.6213 12.1444 16.6605 15.4366 13.771C18.7288 10.8814 22.9367 9.24922 27.3163 9.16305H27.4996C30.0911 9.12912 32.6632 9.61452 35.0641 10.5906C37.465 11.5667 39.6461 13.0138 41.4788 14.8464C42.9088 16.2773 44.0324 17.9845 44.7809 19.8639C45.5295 21.7432 45.8875 23.7554 45.8329 25.7776C45.5957 28.1221 44.5005 30.2963 42.7578 31.8825C41.0151 33.4687 38.7477 34.3551 36.3913 34.3714Z" fill="#19478B"/>
<path d="M27.5 18.3297C29.3985 18.3297 30.9375 16.7907 30.9375 14.8922C30.9375 12.9937 29.3985 11.4547 27.5 11.4547C25.6015 11.4547 24.0625 12.9937 24.0625 14.8922C24.0625 16.7907 25.6015 18.3297 27.5 18.3297Z" fill="#19478B"/>
<path d="M34.9475 16.4963C34.359 16.8363 33.8844 17.3432 33.5838 17.9528C33.2833 18.5625 33.1702 19.2475 33.2589 19.9214C33.3476 20.5953 33.6341 21.2278 34.0821 21.7389C34.5302 22.25 35.1197 22.6169 35.7762 22.793C36.4327 22.9691 37.1267 22.9467 37.7704 22.7285C38.4142 22.5103 38.9788 22.1062 39.3929 21.5671C39.807 21.0281 40.052 20.3785 40.097 19.7003C40.1419 19.022 39.9848 18.3457 39.6455 17.7568C39.4199 17.3653 39.1195 17.0222 38.7612 16.747C38.403 16.4718 37.9941 16.2699 37.5577 16.1528C37.1214 16.0358 36.6663 16.0058 36.2185 16.0648C35.7706 16.1237 35.3387 16.2704 34.9475 16.4963Z" fill="#19478B"/>
<path d="M20.0521 16.4964C19.4631 16.157 18.7868 15.9999 18.1086 16.0449C17.4304 16.0898 16.7807 16.3349 16.2417 16.749C15.7027 17.1631 15.2985 17.7277 15.0804 18.3714C14.8622 19.0151 14.8397 19.7091 15.0159 20.3656C15.192 21.0221 15.5588 21.6116 16.0699 22.0597C16.581 22.5078 17.2135 22.7943 17.8874 22.883C18.5613 22.9717 19.2464 22.8586 19.856 22.558C20.4657 22.2574 20.9725 21.7829 21.3125 21.1943C21.5385 20.8031 21.6851 20.3713 21.744 19.9234C21.803 19.4755 21.7731 19.0204 21.656 18.5841C21.539 18.1478 21.3371 17.7388 21.0618 17.3806C20.7866 17.0224 20.4435 16.7219 20.0521 16.4964Z" fill="#19478B"/>
<path d="M14.1164 25.8005C13.5526 26.1812 13.1144 26.7206 12.8574 27.3505C12.6003 27.9804 12.5359 28.6724 12.6724 29.3389C12.8089 30.0053 13.14 30.6164 13.6239 31.0945C14.1079 31.5727 14.7228 31.8965 15.3909 32.025C16.059 32.1535 16.7501 32.0808 17.3769 31.8162C18.0036 31.5517 18.5378 31.1071 18.9117 30.5387C19.2857 29.9704 19.4825 29.3039 19.4774 28.6236C19.4723 27.9433 19.2655 27.2798 18.8831 26.7171C18.6319 26.3421 18.3088 26.0206 17.9325 25.7712C17.5563 25.5219 17.1343 25.3496 16.691 25.2643C16.2477 25.1791 15.792 25.1826 15.35 25.2746C14.9081 25.3666 14.4888 25.5454 14.1164 25.8005Z" fill="#19478B"/>
</g>
<defs>
<clipPath id="clip0_229_334">
<rect width="55" height="55" fill="white" transform="translate(0 -0.00366211)"/>
</clipPath>
</defs>
</svg>
