<svg width="77" height="100" viewBox="0 0 77 100" fill="none" xmlns="http://www.w3.org/2000/svg">
<g clip-path="url(#clip0_232_556)">
<path d="M11.0196 91.3858V83.1407H3.89998V91.3858H0.635742V73.4065H3.90252V80.4628H11.0196V73.4065H14.2864V91.3858H11.0196Z" fill="white"/>
<path d="M18.3301 91.3858V73.4065H21.5969V91.3858H18.3301Z" fill="white"/>
<path d="M44.263 90.1792C44.263 90.9582 43.8375 91.3858 43.0552 91.3858H40.4815C39.7706 91.3858 39.4342 91.0676 39.1157 90.3931L34.0575 79.3631C33.7211 78.6351 33.1707 77.5201 32.9924 76.6852H32.6738C32.8165 77.5889 32.8344 78.5104 32.8344 79.3988V91.3858H29.6211V74.5953C29.6211 73.8163 30.0645 73.4065 30.8468 73.4065H33.3848C34.0957 73.4065 34.4321 73.7069 34.7328 74.3993L39.6483 85.1085C40.0025 85.8874 40.4993 86.9871 40.8918 87.9468H41.2103C41.1211 86.954 41.0854 85.9969 41.0854 85.0219V73.409H44.263V90.1818V90.1792Z" fill="white"/>
<path d="M59.9191 73.5643L59.7585 76.0641H52.7128C51.7725 76.0641 51.4183 76.4535 51.4183 77.571V80.7275H58.803V83.2273H51.4183V87.234C51.4183 88.3515 51.7725 88.7588 52.7128 88.7588H59.7585L59.9191 91.2229C57.5416 91.4367 54.6112 91.4367 51.984 91.4367C49.6065 91.4367 48.1133 90.1258 48.1133 88.0155V76.7565C48.1133 74.6462 49.6396 73.353 51.984 73.353C54.6112 73.353 57.5391 73.353 59.9191 73.5669V73.5643Z" fill="white"/>
<path d="M70.4258 76.1888V91.3858H67.1412V76.1888H61.6396V73.4039H75.9809V76.1888H70.4258Z" fill="white"/>
<path d="M70.4462 0.00838103C48.8859 -0.312361 27.351 10.1627 14.3986 27.3605C9.94176 33.1364 6.70045 39.732 4.05797 46.5057C1.57348 54.1297 0.200003 62.1534 0.480305 70.1872C5.63786 70.2024 10.798 70.2279 15.9632 70.1643C15.7313 55.3669 21.8087 40.5949 32.636 30.4636C38.1681 25.3852 44.6457 20.9075 51.9768 19.0212C51.5181 18.1888 51.1767 17.275 50.9091 16.3662C38.2217 20.8973 27.2593 30.0665 20.6518 41.799C16.2205 49.7513 13.8329 58.7576 13.3946 67.8274C9.92138 67.8045 6.44054 67.8198 2.96735 67.7791C3.01576 58.8543 5.16389 49.9906 8.70079 41.8143C15.1044 27.5362 26.714 15.7375 40.8336 8.97387C49.2503 4.90606 58.5359 3.08597 67.8241 2.54377C67.8878 10.5114 67.8241 18.4816 67.847 26.4416C55.4143 27.0067 43.1983 33.0626 35.6836 43.0412C29.6062 50.6677 26.4286 60.4936 26.8847 70.2254C36.4354 70.1464 45.9758 70.2406 55.5188 70.1693C55.1926 63.5509 59.889 57.0037 66.5092 55.7767C66.3002 54.8781 66.2289 53.9006 66.1958 53.0326C59.3539 54.6923 53.6943 60.5929 53.2127 67.7689C45.2445 67.8554 37.2661 67.7918 29.2979 67.7918C29.5043 57.2862 34.249 46.8698 42.0745 39.8338C49.4286 32.6629 60.1846 28.7428 70.4538 29.3079" fill="white"/>
<path d="M61.1761 41.06C61.1532 41.004 61.1226 40.9506 61.0946 40.8971C60.9111 40.9607 60.7276 41.0218 60.5442 41.0804C60.5442 41.0804 60.5442 41.0855 60.5442 41.088C52.9353 43.4019 46.5469 49.0404 43.01 56.117C42.3475 57.1938 41.7512 58.3571 41.5244 59.5255C42.0264 59.5968 43.4559 59.8819 43.9605 59.9455C47.0107 52.2478 53.5264 45.2831 61.854 43.6259C61.8794 43.6565 61.9049 43.6819 61.9304 43.7099C61.6705 42.8317 61.5329 41.9 61.1787 41.0626L61.1761 41.06Z" fill="white"/>
<path d="M18.5983 95.7972C18.5881 95.5732 18.5397 95.3874 18.4505 95.2397C18.3639 95.0921 18.2518 94.9724 18.1142 94.8808C17.9791 94.7917 17.8288 94.7255 17.6631 94.6899C17.4975 94.6517 17.337 94.6339 17.1764 94.6339C17.0541 94.6339 16.9165 94.6466 16.7662 94.6695C16.6133 94.6924 16.4731 94.7408 16.3381 94.8121C16.2056 94.8833 16.0934 94.9852 16.0017 95.115C15.91 95.2448 15.8667 95.4205 15.8667 95.6368C15.8667 95.759 15.887 95.8608 15.9253 95.9448C15.966 96.0263 16.017 96.0976 16.0807 96.151C16.1444 96.207 16.2158 96.2503 16.2973 96.2834C16.3763 96.3139 16.4604 96.3419 16.5445 96.3623L18.1804 96.7365C18.3664 96.7798 18.5397 96.8409 18.7003 96.9198C18.8608 96.9987 18.9958 97.1031 19.1105 97.2278C19.2252 97.3525 19.3144 97.5002 19.3806 97.6707C19.4469 97.8413 19.48 98.0398 19.48 98.2689C19.48 98.6101 19.4087 98.8901 19.2685 99.1141C19.1284 99.3381 18.9474 99.5137 18.7257 99.6436C18.504 99.7734 18.262 99.865 17.9995 99.9185C17.737 99.9719 17.4822 99.9974 17.2376 99.9974C16.9726 99.9974 16.7432 99.9796 16.5547 99.9465C16.3661 99.9108 16.203 99.8676 16.068 99.8116C15.9329 99.7556 15.8208 99.697 15.7316 99.6308C15.6424 99.5646 15.5685 99.5061 15.5048 99.4475C15.2602 99.2235 15.1022 98.9944 15.0309 98.7577C14.9595 98.521 14.9238 98.2664 14.9238 97.9966H15.6501C15.6501 98.2562 15.6985 98.4726 15.7928 98.6431C15.8896 98.8137 16.0119 98.9512 16.1648 99.053C16.3177 99.1548 16.4859 99.2286 16.6719 99.2719C16.8579 99.3152 17.0439 99.3355 17.2299 99.3355C17.3675 99.3355 17.5255 99.3228 17.7014 99.2999C17.8772 99.277 18.0403 99.2286 18.1932 99.1599C18.3461 99.0912 18.4735 98.9944 18.5754 98.8697C18.6799 98.745 18.7308 98.5795 18.7308 98.3708C18.7308 98.2231 18.7104 98.0959 18.6722 97.9915C18.6315 97.8871 18.5652 97.798 18.4735 97.7242C18.3792 97.6504 18.2543 97.5842 18.0989 97.5282C17.9409 97.4722 17.7472 97.4162 17.5128 97.3576L16.3406 97.0878C16.2438 97.0674 16.1266 97.0318 15.989 96.9809C15.8514 96.93 15.7189 96.8536 15.5889 96.7543C15.4615 96.6525 15.3519 96.5227 15.2576 96.3598C15.1634 96.1969 15.1175 95.9907 15.1175 95.7412C15.1175 95.5172 15.1557 95.3008 15.2296 95.087C15.3035 94.8757 15.4207 94.6848 15.5813 94.5219C15.7418 94.3564 15.9457 94.224 16.1954 94.1222C16.4451 94.0204 16.7432 93.9695 17.0898 93.9695C17.5892 93.9695 17.9868 94.0357 18.2798 94.1655C18.5728 94.2953 18.7945 94.4557 18.9474 94.6441C19.0978 94.8324 19.1972 95.031 19.243 95.2423C19.2889 95.451 19.3169 95.6368 19.3271 95.7972H18.6009H18.5983Z" fill="white"/>
<path d="M33.3396 96.986C33.3396 97.1922 33.3192 97.4111 33.2809 97.6402C33.2427 97.8693 33.1765 98.0959 33.0898 98.3173C33.0032 98.5413 32.8885 98.7526 32.7458 98.9563C32.6031 99.1599 32.4298 99.3381 32.2234 99.4934C32.017 99.6512 31.7724 99.7734 31.4972 99.865C31.2195 99.9541 30.9035 99.9999 30.5467 99.9999C30.19 99.9999 29.874 99.9541 29.5963 99.865C29.3185 99.7759 29.0764 99.6512 28.87 99.4934C28.6636 99.3356 28.4878 99.1574 28.3476 98.9563C28.2075 98.7552 28.0928 98.5413 28.0036 98.3173C27.917 98.0933 27.8533 97.8693 27.8125 97.6402C27.7717 97.4111 27.7539 97.1947 27.7539 96.986C27.7539 96.7773 27.7743 96.5609 27.8125 96.3318C27.8533 96.1027 27.917 95.8761 28.0036 95.6547C28.0903 95.4307 28.2049 95.2194 28.3476 95.0157C28.4878 94.8146 28.6636 94.6339 28.87 94.4786C29.0764 94.3233 29.3185 94.1986 29.5963 94.107C29.874 94.0153 30.19 93.972 30.5467 93.972C30.9035 93.972 31.2195 94.0179 31.4972 94.107C31.775 94.1961 32.017 94.3208 32.2234 94.4786C32.4298 94.6364 32.6057 94.8146 32.7458 95.0157C32.886 95.2168 33.0006 95.4307 33.0898 95.6547C33.1765 95.8787 33.2427 96.1027 33.2809 96.3318C33.3217 96.5609 33.3396 96.7773 33.3396 96.986ZM32.542 96.986C32.542 96.65 32.4961 96.342 32.4069 96.0569C32.3152 95.7718 32.1852 95.5274 32.0119 95.3187C31.8387 95.1125 31.6297 94.9495 31.3825 94.8324C31.1354 94.7154 30.8576 94.6568 30.5493 94.6568C30.2409 94.6568 29.9555 94.7154 29.7109 94.8324C29.4663 94.9495 29.2573 95.1125 29.0841 95.3187C28.9108 95.5248 28.7783 95.7718 28.6891 96.0569C28.5974 96.342 28.554 96.65 28.554 96.986C28.554 97.322 28.5999 97.63 28.6891 97.9151C28.7783 98.2002 28.9108 98.4446 29.0841 98.6533C29.2573 98.8595 29.4663 99.0224 29.7109 99.1395C29.9555 99.2566 30.2359 99.3152 30.5493 99.3152C30.8627 99.3152 31.1354 99.2566 31.3825 99.1395C31.6297 99.0224 31.8412 98.8595 32.0119 98.6533C32.1852 98.4471 32.3152 98.2002 32.4069 97.9151C32.4961 97.63 32.542 97.322 32.542 96.986Z" fill="white"/>
<path d="M42.6936 99.8473H41.9189V94.1223H45.8865V94.8071H42.6936V96.561H45.5043V97.2457H42.6936V99.8448V99.8473Z" fill="white"/>
<path d="M53.8037 94.1223H58.4567V94.8071H56.5175V99.8448H55.7429V94.8071H53.8037V94.1223Z" fill="white"/>
<path d="M70.6992 58.5531C73.4083 58.5531 75.6045 56.3592 75.6045 53.6529C75.6045 50.9466 73.4083 48.7527 70.6992 48.7527C67.9901 48.7527 65.7939 50.9466 65.7939 53.6529C65.7939 56.3592 67.9901 58.5531 70.6992 58.5531Z" stroke="white" stroke-width="2" stroke-miterlimit="10"/>
<path d="M56.6103 21.0238C59.3195 21.0238 61.5156 18.8299 61.5156 16.1236C61.5156 13.4173 59.3195 11.2234 56.6103 11.2234C53.9012 11.2234 51.7051 13.4173 51.7051 16.1236C51.7051 18.8299 53.9012 21.0238 56.6103 21.0238Z" stroke="white" stroke-width="2" stroke-miterlimit="10"/>
<path d="M66.8359 45.0336C69.545 45.0336 71.7412 42.8397 71.7412 40.1334C71.7412 37.4271 69.545 35.2332 66.8359 35.2332C64.1268 35.2332 61.9307 37.4271 61.9307 40.1334C61.9307 42.8397 64.1268 45.0336 66.8359 45.0336Z" stroke="white" stroke-width="2" stroke-miterlimit="10"/>
</g>
<defs>
<clipPath id="clip0_232_556">
<rect width="76.4331" height="100" fill="white" transform="translate(0.445312)"/>
</clipPath>
</defs>
</svg>
