<svg width="46" height="61" viewBox="0 0 46 61" fill="none" xmlns="http://www.w3.org/2000/svg">
<g clip-path="url(#clip0_90_1804)">
<path d="M6.48619 55.3315V50.3844H2.2144V55.3315H0.255859V44.5439H2.21593V48.7777H6.48619V44.5439H8.44626V55.3315H6.48619Z" fill="#19478B"/>
<path d="M10.873 55.3315V44.5439H12.8331V55.3315H10.873Z" fill="#19478B"/>
<path d="M26.4317 54.6075C26.4317 55.0749 26.1763 55.3315 25.7069 55.3315H24.1627C23.7362 55.3315 23.5343 55.1406 23.3432 54.7358L20.3083 48.1179C20.1065 47.681 19.7763 47.0121 19.6692 46.5111H19.4781C19.5637 47.0533 19.5745 47.6062 19.5745 48.1392V55.3315H17.6465V45.2572C17.6465 44.7898 17.9125 44.5439 18.3819 44.5439H19.9047C20.3313 44.5439 20.5331 44.7241 20.7135 45.1395L23.6628 51.5651C23.8753 52.0324 24.1734 52.6922 24.4089 53.2681H24.6C24.5465 52.6724 24.5251 52.0981 24.5251 51.5131V44.5454H26.4317V54.6091V54.6075Z" fill="#19478B"/>
<path d="M35.8257 44.6386L35.7293 46.1385H31.5019C30.9377 46.1385 30.7252 46.3721 30.7252 47.0426V48.9365H35.156V50.4364H30.7252V52.8404C30.7252 53.5109 30.9377 53.7553 31.5019 53.7553H35.7293L35.8257 55.2338C34.3992 55.3621 32.6409 55.3621 31.0646 55.3621C29.6381 55.3621 28.7422 54.5755 28.7422 53.3093V46.5539C28.7422 45.2877 29.658 44.5118 31.0646 44.5118C32.6409 44.5118 34.3977 44.5118 35.8257 44.6401V44.6386Z" fill="#19478B"/>
<path d="M42.1291 46.2133V55.3315H40.1583V46.2133H36.8574V44.5424H45.4622V46.2133H42.1291Z" fill="#19478B"/>
<path d="M42.1417 0.505029C29.2055 0.312584 16.2847 6.59759 8.51316 16.9163C5.83908 20.3819 3.8943 24.3392 2.30881 28.4034C0.818112 32.9778 -0.00597462 37.792 0.162206 42.6123C3.25674 42.6215 6.3528 42.6367 9.45191 42.5986C9.31278 33.7201 12.9593 24.857 19.4556 18.7781C22.7749 15.7311 26.6614 13.0445 31.0601 11.9127C30.7849 11.4133 30.58 10.865 30.4195 10.3197C22.807 13.0384 16.2296 18.5399 12.2651 25.5794C9.60633 30.3508 8.17374 35.7545 7.91076 41.1965C5.82685 41.1827 3.73835 41.1919 1.65443 41.1674C1.68348 35.8126 2.97236 30.4944 5.0945 25.5886C8.93667 17.0217 15.9024 9.94247 24.3742 5.88433C29.4242 3.44363 34.9956 2.35158 40.5685 2.02626C40.6067 6.80684 40.5685 11.5889 40.5822 16.3649C33.1226 16.704 25.793 20.3376 21.2842 26.3247C17.6377 30.9007 15.7312 36.7962 16.0049 42.6352C21.7352 42.5879 27.4595 42.6444 33.1853 42.6016C32.9896 38.6305 35.8074 34.7022 39.7795 33.966C39.6542 33.4269 39.6114 32.8404 39.5915 32.3196C35.4863 33.3154 32.0906 36.8558 31.8016 41.1613C27.0207 41.2133 22.2337 41.1751 17.4527 41.1751C17.5766 34.8717 20.4234 28.6219 25.1187 24.4003C29.5312 20.0978 35.9848 17.7457 42.1463 18.0847" fill="#1E8FCE"/>
<path d="M36.5801 25.136C36.5663 25.1024 36.548 25.0703 36.5312 25.0382C36.4211 25.0764 36.311 25.113 36.2009 25.1482C36.2009 25.1482 36.2009 25.1512 36.2009 25.1528C31.6356 26.5411 27.8026 29.9242 25.6804 34.1702C25.2829 34.8162 24.9251 35.5142 24.7891 36.2153C25.0903 36.258 25.948 36.4291 26.2507 36.4673C28.0808 31.8486 31.9903 27.6698 36.9868 26.6755C37.0021 26.6938 37.0174 26.7091 37.0327 26.7259C36.8767 26.199 36.7941 25.64 36.5816 25.1375L36.5801 25.136Z" fill="#1E8FCE"/>
<path d="M11.0328 57.9783C11.0267 57.8439 10.9977 57.7324 10.9441 57.6438C10.8922 57.5552 10.8249 57.4834 10.7423 57.4284C10.6613 57.375 10.5711 57.3353 10.4717 57.3139C10.3723 57.291 10.276 57.2803 10.1797 57.2803C10.1063 57.2803 10.0237 57.2879 9.93353 57.3017C9.8418 57.3154 9.75771 57.3444 9.67667 57.3872C9.59717 57.43 9.5299 57.4911 9.47486 57.569C9.41982 57.6469 9.39382 57.7522 9.39382 57.8821C9.39382 57.9554 9.40606 58.0165 9.42899 58.0669C9.45345 58.1157 9.48403 58.1585 9.52225 58.1906C9.56048 58.2242 9.60329 58.2501 9.65221 58.27C9.69961 58.2883 9.75006 58.3051 9.80052 58.3174L10.7821 58.5419C10.8937 58.5678 10.9977 58.6045 11.094 58.6518C11.1903 58.6992 11.2713 58.7618 11.3401 58.8367C11.4089 58.9115 11.4624 59.0001 11.5022 59.1024C11.542 59.2047 11.5618 59.3239 11.5618 59.4613C11.5618 59.666 11.519 59.834 11.4349 59.9684C11.3508 60.1028 11.2423 60.2082 11.1093 60.2861C10.9763 60.364 10.831 60.419 10.6735 60.451C10.516 60.4831 10.3632 60.4984 10.2164 60.4984C10.0574 60.4984 9.91977 60.4877 9.80663 60.4678C9.69349 60.4465 9.59564 60.4205 9.51461 60.3869C9.43358 60.3533 9.3663 60.3182 9.31279 60.2785C9.25928 60.2387 9.21494 60.2036 9.17672 60.1685C9.02994 60.0341 8.93515 59.8966 8.89234 59.7546C8.84953 59.6125 8.82812 59.4598 8.82812 59.2979H9.26387C9.26387 59.4537 9.29292 59.5835 9.34949 59.6859C9.40758 59.7882 9.48097 59.8707 9.57271 59.9318C9.66444 59.9928 9.76535 60.0371 9.87696 60.0631C9.98857 60.0891 10.1002 60.1013 10.2118 60.1013C10.2944 60.1013 10.3891 60.0936 10.4946 60.0799C10.6001 60.0662 10.698 60.0371 10.7897 59.9959C10.8815 59.9547 10.9579 59.8966 11.0191 59.8218C11.0817 59.7469 11.1123 59.6477 11.1123 59.5224C11.1123 59.4338 11.1001 59.3575 11.0772 59.2949C11.0527 59.2322 11.0129 59.1788 10.9579 59.1345C10.9013 59.0902 10.8264 59.0505 10.7332 59.0169C10.6384 58.9833 10.5222 58.9497 10.3815 58.9145L9.6782 58.7526C9.6201 58.7404 9.54977 58.719 9.46721 58.6885C9.38465 58.658 9.30515 58.6121 9.22717 58.5526C9.15073 58.4915 9.08498 58.4136 9.02841 58.3158C8.97184 58.2181 8.94432 58.0944 8.94432 57.9447C8.94432 57.8103 8.96726 57.6805 9.0116 57.5522C9.05593 57.4254 9.12626 57.3108 9.22259 57.2131C9.31891 57.1138 9.44122 57.0344 9.59105 56.9733C9.74089 56.9122 9.91977 56.8817 10.1277 56.8817C10.4274 56.8817 10.6659 56.9214 10.8417 56.9993C11.0175 57.0772 11.1506 57.1734 11.2423 57.2864C11.3325 57.3994 11.3921 57.5186 11.4196 57.6453C11.4472 57.7706 11.464 57.8821 11.4701 57.9783H11.0344H11.0328Z" fill="#19478B"/>
<path d="M19.8768 58.6916C19.8768 58.8153 19.8645 58.9467 19.8416 59.0841C19.8187 59.2216 19.7789 59.3575 19.7269 59.4904C19.675 59.6248 19.6062 59.7516 19.5205 59.8738C19.4349 59.996 19.331 60.1029 19.2071 60.196C19.0833 60.2907 18.9365 60.364 18.7714 60.419C18.6047 60.4725 18.4151 60.5 18.2011 60.5C17.987 60.5 17.7975 60.4725 17.6308 60.419C17.4641 60.3656 17.3189 60.2907 17.1951 60.196C17.0712 60.1013 16.9657 59.9944 16.8816 59.8738C16.7975 59.7531 16.7287 59.6248 16.6752 59.4904C16.6232 59.356 16.585 59.2216 16.5606 59.0841C16.5361 58.9467 16.5254 58.8169 16.5254 58.6916C16.5254 58.5664 16.5376 58.4365 16.5606 58.2991C16.585 58.1616 16.6232 58.0257 16.6752 57.8928C16.7272 57.7584 16.796 57.6316 16.8816 57.5095C16.9657 57.3888 17.0712 57.2803 17.1951 57.1872C17.3189 57.094 17.4641 57.0192 17.6308 56.9642C17.7975 56.9092 17.987 56.8832 18.2011 56.8832C18.4151 56.8832 18.6047 56.9107 18.7714 56.9642C18.938 57.0176 19.0833 57.0925 19.2071 57.1872C19.331 57.2819 19.4365 57.3888 19.5205 57.5095C19.6046 57.6301 19.6734 57.7584 19.7269 57.8928C19.7789 58.0272 19.8187 58.1616 19.8416 58.2991C19.8661 58.4365 19.8768 58.5664 19.8768 58.6916ZM19.3982 58.6916C19.3982 58.49 19.3707 58.3052 19.3172 58.1341C19.2622 57.9631 19.1842 57.8164 19.0802 57.6912C18.9762 57.5675 18.8509 57.4697 18.7026 57.3995C18.5543 57.3292 18.3876 57.2941 18.2026 57.2941C18.0176 57.2941 17.8464 57.3292 17.6996 57.3995C17.5528 57.4697 17.4275 57.5675 17.3235 57.6912C17.2195 57.8149 17.14 57.9631 17.0865 58.1341C17.0315 58.3052 17.0055 58.49 17.0055 58.6916C17.0055 58.8932 17.033 59.078 17.0865 59.2491C17.14 59.4202 17.2195 59.5668 17.3235 59.692C17.4275 59.8157 17.5528 59.9135 17.6996 59.9837C17.8464 60.054 18.0146 60.0891 18.2026 60.0891C18.3907 60.0891 18.5543 60.054 18.7026 59.9837C18.8509 59.9135 18.9778 59.8157 19.0802 59.692C19.1842 59.5683 19.2622 59.4202 19.3172 59.2491C19.3707 59.078 19.3982 58.8932 19.3982 58.6916Z" fill="#19478B"/>
<path d="M25.4902 60.4083H25.0254V56.9733H27.4059V57.3842H25.4902V58.4365H27.1766V58.8474H25.4902V60.4068V60.4083Z" fill="#19478B"/>
<path d="M32.1562 56.9733H34.9481V57.3842H33.7845V60.4068H33.3198V57.3842H32.1562V56.9733Z" fill="#19478B"/>
<path d="M42.2928 35.6318C43.9182 35.6318 45.2359 34.3155 45.2359 32.6917C45.2359 31.0679 43.9182 29.7516 42.2928 29.7516C40.6673 29.7516 39.3496 31.0679 39.3496 32.6917C39.3496 34.3155 40.6673 35.6318 42.2928 35.6318Z" stroke="#1E8FCE" stroke-width="2" stroke-miterlimit="10"/>
<path d="M33.8396 13.1143C35.4651 13.1143 36.7828 11.7979 36.7828 10.1741C36.7828 8.55035 35.4651 7.23401 33.8396 7.23401C32.2142 7.23401 30.8965 8.55035 30.8965 10.1741C30.8965 11.7979 32.2142 13.1143 33.8396 13.1143Z" stroke="#1E8FCE" stroke-width="2" stroke-miterlimit="10"/>
<path d="M39.9744 27.5201C41.5999 27.5201 42.9176 26.2038 42.9176 24.58C42.9176 22.9562 41.5999 21.6399 39.9744 21.6399C38.349 21.6399 37.0312 22.9562 37.0312 24.58C37.0312 26.2038 38.349 27.5201 39.9744 27.5201Z" stroke="#1E8FCE" stroke-width="2" stroke-miterlimit="10"/>
</g>
<defs>
<clipPath id="clip0_90_1804">
<rect width="45.8599" height="60" fill="white" transform="translate(0.140625 0.5)"/>
</clipPath>
</defs>
</svg>
