<svg width="200" height="165" viewBox="0 0 200 200" fill="none" xmlns="http://www.w3.org/2000/svg">
<path d="M82.4903 94.6215C96.1034 70.9521 130.254 70.9521 143.867 94.6215L161.353 125.025C174.927 148.626 157.891 178.077 130.665 178.077H95.6926C68.4663 178.077 51.4303 148.626 65.0042 125.025L82.4903 94.6215Z" fill="#FEF1CE" fill-opacity="0.55"/>
<path d="M68.6488 145.338C54.9352 119.749 68.3116 88.7243 94.6367 85.063L111.395 82.7322C141.993 78.4766 166.395 113.388 153.587 143.094L145.559 161.715C132.751 191.421 93.3179 191.371 77.3788 161.629L68.6488 145.338Z" fill="#FFEEC1"/>
<g clip-path="url(#clip0_165_4632)">
<path d="M131.94 150.348L125.827 135.589C125.671 135.214 125.24 135.035 124.864 135.191C124.488 135.346 124.309 135.777 124.465 136.153L129.992 149.496L124.951 148.035C124.62 147.939 124.266 148.085 124.1 148.387L121.568 152.985L115.638 138.668C122.483 137.348 127.669 131.314 127.669 124.09C127.669 115.904 121.008 109.243 112.822 109.243C104.635 109.243 97.9746 115.904 97.9746 124.09C97.9746 127.406 99.0675 130.472 100.912 132.946L93.7035 150.348C93.5952 150.61 93.6464 150.91 93.8353 151.121C94.0241 151.333 94.3174 151.417 94.5894 151.338L100.537 149.614L103.523 155.038C103.654 155.275 103.901 155.42 104.169 155.42C104.182 155.42 104.196 155.419 104.21 155.419C104.492 155.403 104.741 155.227 104.85 154.965L110.561 141.176C110.717 140.8 110.539 140.369 110.163 140.213C109.787 140.057 109.356 140.236 109.2 140.612L104.075 152.985L101.543 148.387C101.377 148.085 101.023 147.939 100.693 148.035L95.6518 149.496L101.979 134.221C104.69 137.121 108.548 138.937 112.822 138.937C113.263 138.937 113.699 138.917 114.131 138.879L120.794 154.965C120.902 155.227 121.151 155.403 121.434 155.419C121.448 155.419 121.461 155.42 121.475 155.42C121.742 155.42 121.99 155.275 122.12 155.038L125.107 149.614L131.054 151.338C131.326 151.417 131.619 151.333 131.808 151.121C131.997 150.91 132.048 150.61 131.94 150.348ZM99.4483 124.09C99.4483 116.716 105.448 110.717 112.822 110.717C120.196 110.717 126.195 116.716 126.195 124.09C126.195 131.465 120.196 137.464 112.822 137.464C105.448 137.464 99.4483 131.465 99.4483 124.09Z" fill="#FFBB00"/>
<path d="M121.336 121.324C121.251 121.063 121.028 120.87 120.757 120.825L115.799 119.993L113.475 115.535C113.348 115.291 113.096 115.138 112.822 115.138C112.547 115.138 112.295 115.291 112.168 115.535L109.845 119.993L104.886 120.825C104.616 120.87 104.392 121.063 104.308 121.324C104.223 121.585 104.29 121.872 104.483 122.068L108.005 125.655L107.264 130.628C107.223 130.9 107.337 131.171 107.56 131.333C107.782 131.494 108.075 131.519 108.321 131.396L112.822 129.155L117.322 131.396C117.426 131.448 117.538 131.474 117.65 131.474C117.803 131.474 117.955 131.426 118.084 131.333C118.306 131.171 118.42 130.9 118.379 130.628L117.639 125.656L121.161 122.068C121.353 121.872 121.421 121.585 121.336 121.324ZM116.33 124.885C116.168 125.05 116.093 125.281 116.127 125.51L116.713 129.447L113.15 127.672C113.047 127.621 112.934 127.595 112.822 127.595C112.709 127.595 112.597 127.621 112.493 127.672L108.93 129.447L109.516 125.51C109.551 125.281 109.475 125.05 109.314 124.885L106.525 122.044L110.45 121.385C110.678 121.347 110.875 121.204 110.982 120.999L112.822 117.469L114.661 120.999C114.768 121.204 114.965 121.347 115.193 121.386L119.119 122.044L116.33 124.885Z" fill="#FFBB00"/>
<path d="M123.984 124.834C123.58 124.78 123.21 125.064 123.156 125.467C122.473 130.626 118.03 134.516 112.822 134.516C107.073 134.516 102.396 129.839 102.396 124.09C102.396 118.341 107.073 113.664 112.822 113.664C118.03 113.664 122.473 117.555 123.156 122.713C123.21 123.117 123.581 123.401 123.984 123.347C124.387 123.294 124.671 122.923 124.617 122.52C123.837 116.631 118.766 112.191 112.822 112.191C106.26 112.191 100.922 117.529 100.922 124.09C100.922 130.652 106.26 135.99 112.822 135.99C118.766 135.99 123.837 131.549 124.617 125.661C124.671 125.257 124.387 124.887 123.984 124.834Z" fill="#FFBB00"/>
</g>
<defs>
<clipPath id="clip0_165_4632">
<rect width="46.1765" height="46.1765" fill="white" transform="translate(89.7324 109.243)"/>
</clipPath>
</defs>
</svg>
