<svg width="200" height="165" viewBox="0 0 200 200" fill="none" xmlns="http://www.w3.org/2000/svg">
<path d="M79.4771 99.2615C94.2739 73.5339 131.394 73.5339 146.191 99.2614L158.355 120.412C173.11 146.066 154.592 178.077 124.998 178.077H100.67C71.0759 178.077 52.5584 146.066 67.3127 120.412L79.4771 99.2615Z" fill="#FFB6A1" fill-opacity="0.62"/>
<path d="M68.3021 145.338C54.5885 119.749 67.9649 88.7244 94.2901 85.0631L111.049 82.7323C141.646 78.4767 166.049 113.388 153.241 143.094L145.212 161.715C132.404 191.421 92.9713 191.371 77.0321 161.629L68.3021 145.338Z" fill="#FFB6A1" fill-opacity="0.81"/>
<path d="M116.711 145.37H110.113C109.512 145.37 109.027 144.897 109.027 144.317V143.577C109.034 142.941 109.002 142.494 108.933 142.245C108.562 140.93 107.582 139.828 106.632 138.759C106.319 138.409 106.023 138.075 105.752 137.739C104.385 136.055 103.658 134.037 103.658 131.897C103.658 126.672 108.047 122.422 113.44 122.422C118.831 122.422 123.219 126.672 123.219 131.897C123.219 134.038 122.496 136.058 121.126 137.742C120.886 138.039 120.61 138.351 120.321 138.68C119.349 139.788 118.264 141.025 117.89 142.33C117.824 142.564 117.792 142.983 117.797 143.569V144.315C117.797 144.897 117.312 145.37 116.711 145.37ZM111.202 143.262H115.625C115.637 142.442 115.719 142.038 115.794 141.775C116.298 140.017 117.547 138.589 118.649 137.335C118.938 137.005 119.192 136.716 119.417 136.442C120.481 135.13 121.045 133.561 121.045 131.898C121.045 127.834 117.635 124.528 113.441 124.528C109.247 124.528 105.835 127.834 105.835 131.898C105.835 133.558 106.397 135.128 107.462 136.439C107.714 136.751 107.989 137.057 108.281 137.384C109.285 138.514 110.53 139.914 111.033 141.693C111.107 141.971 111.193 142.395 111.202 143.262Z" fill="#FF5A28"/>
<path d="M116.69 148.158H110.091C109.49 148.158 109.005 147.686 109.005 147.103C109.005 146.521 109.49 146.051 110.091 146.051H116.69C117.29 146.051 117.775 146.521 117.775 147.103C117.775 147.686 117.29 148.158 116.69 148.158Z" fill="#FF5A28"/>
<path d="M115.065 150.942H111.766C111.164 150.942 110.677 150.47 110.677 149.89C110.677 149.308 111.164 148.834 111.766 148.834H115.065C115.663 148.834 116.151 149.308 116.151 149.89C116.151 150.47 115.663 150.942 115.065 150.942Z" fill="#FF5A28"/>
<path d="M130.821 132.95H126.475C125.874 132.95 125.386 132.481 125.386 131.898C125.386 131.316 125.874 130.845 126.475 130.845H130.821C131.421 130.845 131.906 131.316 131.906 131.898C131.906 132.481 131.421 132.95 130.821 132.95Z" fill="#FF5A28"/>
<path d="M100.375 132.951H96.0278C95.4273 132.951 94.9424 132.481 94.9424 131.898C94.9424 131.316 95.4273 130.845 96.0278 130.845H100.374C100.975 130.845 101.463 131.316 101.463 131.898C101.464 132.481 100.976 132.951 100.375 132.951Z" fill="#FF5A28"/>
<path d="M113.446 120.32C112.845 120.32 112.357 119.85 112.357 119.267V115.054C112.357 114.473 112.845 114.001 113.446 114.001C114.048 114.001 114.533 114.473 114.533 115.054V119.266C114.533 119.849 114.048 120.32 113.446 120.32Z" fill="#FF5A28"/>
<path d="M125.732 144.862C125.456 144.862 125.178 144.76 124.965 144.553L121.892 141.575C121.468 141.165 121.468 140.496 121.892 140.084C122.318 139.673 123.005 139.676 123.429 140.086L126.502 143.064C126.927 143.476 126.927 144.144 126.502 144.555C126.29 144.762 126.013 144.862 125.732 144.862Z" fill="#FF5A28"/>
<path d="M104.23 124.02C103.954 124.02 103.675 123.917 103.461 123.71L100.39 120.734C99.965 120.322 99.965 119.654 100.39 119.242C100.816 118.831 101.503 118.831 101.927 119.242L105 122.219C105.425 122.63 105.425 123.299 105 123.71C104.788 123.917 104.51 124.02 104.23 124.02Z" fill="#FF5A28"/>
<path d="M101.159 144.862C100.881 144.862 100.604 144.761 100.39 144.555C99.965 144.144 99.965 143.475 100.39 143.063L103.465 140.084C103.887 139.673 104.575 139.673 105 140.084C105.425 140.496 105.425 141.164 105 141.576L101.927 144.555C101.714 144.76 101.438 144.862 101.159 144.862Z" fill="#FF5A28"/>
<path d="M122.66 124.02C122.383 124.02 122.105 123.918 121.891 123.711C121.469 123.3 121.469 122.633 121.891 122.222L124.963 119.244C125.385 118.833 126.077 118.831 126.5 119.242C126.925 119.654 126.925 120.32 126.5 120.732L123.43 123.709C123.218 123.915 122.94 124.02 122.66 124.02Z" fill="#FF5A28"/>
</svg>
