<svg width="55" height="55" viewBox="0 0 55 55" fill="none" xmlns="http://www.w3.org/2000/svg">
<path d="M37.0519 46.1472C36.7669 45.9738 36.5185 45.7413 36.3212 45.4595C36.23 45.3296 36.153 45.1922 36.0892 45.0503H3.7042V13.1298H47.6622V33.9727C48.6006 34.0575 49.388 34.6739 49.7186 35.5178C50.0113 35.3574 50.3376 35.2583 50.6805 35.228C50.9124 35.2078 51.1428 35.2222 51.3663 35.2664V5.17774C51.3663 3.47561 49.9817 2.09082 48.2797 2.09082H3.08679C1.38479 2.09082 0 3.47561 0 5.17774V45.6678C0 47.3699 1.38479 48.7546 3.08679 48.7546H36.7705C36.5077 48.2223 36.4453 47.6214 36.6 47.0433C36.6892 46.7107 36.8435 46.4074 37.0519 46.1472ZM44.2725 7.27437C44.2725 6.64491 44.7827 6.13451 45.4122 6.13451H46.5519C47.1815 6.13451 47.6917 6.64478 47.6917 7.27437V8.56617C47.6917 9.19563 47.1814 9.7059 46.5519 9.7059H45.4122C44.7826 9.7059 44.2725 9.19563 44.2725 8.56617V7.27437ZM38.9726 7.27437C38.9726 6.64491 39.4829 6.13451 40.1123 6.13451H41.2522C41.8818 6.13451 42.3919 6.64478 42.3919 7.27437V8.56617C42.3919 9.19563 41.8817 9.7059 41.2522 9.7059H40.1123C39.4829 9.7059 38.9726 9.19563 38.9726 8.56617V7.27437ZM33.6726 7.27437C33.6726 6.64491 34.183 6.13451 34.8123 6.13451H35.9521C36.5817 6.13451 37.0919 6.64478 37.0919 7.27437V8.56617C37.0919 9.19563 36.5817 9.7059 35.9521 9.7059H34.8123C34.183 9.7059 33.6726 9.19563 33.6726 8.56617V7.27437Z" fill="#19478B"/>
<path d="M54.9925 43.9733L54.65 42.031C54.6038 41.7694 54.3545 41.5947 54.0927 41.6408L52.3654 41.9452C52.1581 41.4586 51.8933 41.0029 51.5789 40.5857L52.7072 39.2409C52.7891 39.1434 52.8291 39.017 52.8181 38.8899C52.8068 38.7627 52.7455 38.6453 52.6478 38.5632L51.1372 37.2954C51.0395 37.2134 50.9128 37.1736 50.7858 37.1847C50.6586 37.1958 50.5412 37.257 50.4593 37.3547L49.3321 38.6985C48.8694 38.4627 48.3744 38.281 47.8559 38.161V36.407C47.8559 36.1414 47.6404 35.9258 47.3748 35.9258H45.4024C45.1369 35.9258 44.9213 36.1414 44.9213 36.407V38.161C44.4025 38.2808 43.9081 38.4627 43.4451 38.6985L42.3177 37.3548C42.1469 37.1513 41.8435 37.1248 41.6399 37.2955L40.1291 38.5632C40.0314 38.6453 39.9702 38.7627 39.9589 38.8899C39.9479 39.017 39.9878 39.1436 40.0697 39.2413L41.1981 40.5858C40.8843 41.0029 40.6189 41.4589 40.4116 41.9453L38.6843 41.6408C38.4231 41.5949 38.1734 41.7694 38.127 42.031L37.7846 43.9733C37.7625 44.0989 37.7912 44.2281 37.8641 44.3327C37.9376 44.4374 38.0488 44.5085 38.1746 44.5306L39.9031 44.8353C39.9313 45.3708 40.0246 45.889 40.1747 46.3823L38.6554 47.2592C38.5448 47.3227 38.4643 47.428 38.4311 47.5512C38.3981 47.6744 38.4155 47.8056 38.4792 47.9162L39.4653 49.6242C39.5288 49.7348 39.6341 49.8153 39.7572 49.8483C39.7982 49.8593 39.84 49.8647 39.8818 49.8647C39.9655 49.8647 40.0484 49.8429 40.1223 49.8002L41.6427 48.9223C42.0003 49.3054 42.404 49.6449 42.8451 49.932L42.2447 51.5814C42.2012 51.7013 42.2068 51.8336 42.2608 51.9493C42.3148 52.0649 42.4123 52.1544 42.5322 52.1978L44.3852 52.8722C44.4384 52.8916 44.4942 52.9016 44.5498 52.9016C44.6193 52.9016 44.6891 52.8865 44.7534 52.8564C44.869 52.8026 44.9582 52.7048 45.0018 52.5849L45.6021 50.9355C45.8594 50.9667 46.1214 50.9828 46.3871 50.9828C46.6529 50.9828 46.9148 50.9664 47.1722 50.9355L47.7726 52.5849C47.8161 52.7048 47.9057 52.8026 48.021 52.8564C48.0852 52.8864 48.1548 52.9016 48.2246 52.9016C48.2801 52.9016 48.3359 52.8919 48.3891 52.8722L50.2424 52.1978C50.3619 52.1544 50.4596 52.0646 50.5135 51.9493C50.5674 51.8336 50.5732 51.7013 50.5296 51.5814L49.9292 49.9323C50.3699 49.6452 50.7736 49.3054 51.1315 48.9226L52.652 49.8005C52.7258 49.8429 52.8088 49.8649 52.8925 49.8649C52.9341 49.8649 52.9763 49.8593 53.017 49.8486C53.1403 49.8156 53.2453 49.7348 53.309 49.6245L54.2951 47.9162C54.3587 47.8059 54.3762 47.6744 54.3431 47.5512C54.31 47.4283 54.2295 47.323 54.1189 47.2592L52.5999 46.3826C52.75 45.8891 52.843 45.371 52.8711 44.8355L54.5997 44.5308C54.7255 44.5086 54.8371 44.4375 54.9101 44.3329C54.986 44.2281 55.0147 44.0989 54.9925 43.9733ZM46.3887 47.0599C44.9277 47.0599 43.743 45.8752 43.743 44.4141C43.743 42.9529 44.9278 41.7684 46.3887 41.7684C47.8499 41.7684 49.0345 42.9529 49.0345 44.4141C49.0345 45.8752 47.8499 47.0599 46.3887 47.0599Z" fill="#19478B"/>
<path d="M21.5711 30.824C21.5711 30.2016 21.2063 29.6299 20.6417 29.3677L15.4741 26.9667L20.6418 24.5654C21.2063 24.3029 21.5711 23.7313 21.5711 23.1092V23.0674C21.5711 22.516 21.2936 22.0098 20.8291 21.714C20.5722 21.5498 20.2729 21.463 19.9639 21.463C19.731 21.463 19.4973 21.5142 19.2881 21.6114L11.0265 25.4533C10.4622 25.7157 10.0977 26.2873 10.0977 26.9093V27.0242C10.0977 27.6454 10.462 28.2166 11.0267 28.4803L19.289 32.3226C19.5026 32.4215 19.7301 32.4716 19.9651 32.4716C20.2713 32.4716 20.5697 32.3847 20.8291 32.2196C21.2938 31.9226 21.5712 31.4168 21.5712 30.866L21.5711 30.824Z" fill="#19478B"/>
<path d="M29.7221 17.5483C29.4207 17.1358 28.936 16.8895 28.4253 16.8895H28.3842C27.6829 16.8895 27.0681 17.3381 26.8545 18.0049L21.4112 34.8707C21.2563 35.3576 21.3435 35.894 21.6445 36.3064C21.9459 36.7187 22.4306 36.9651 22.9413 36.9651H22.9825C23.6835 36.9651 24.2979 36.5164 24.5113 35.8497L29.9539 18.9852C30.1103 18.4987 30.0236 17.9615 29.7221 17.5483Z" fill="#19478B"/>
<path d="M40.3402 25.4531L32.0785 21.6113C31.87 21.5143 31.6366 21.4631 31.4037 21.4631C31.0949 21.4631 30.7955 21.5497 30.5386 21.7136C30.0734 22.01 29.7959 22.516 29.7959 23.0674V23.1092C29.7959 23.7308 30.1604 24.3025 30.7254 24.566L35.8929 26.9668L30.7253 29.3677C30.1607 29.6299 29.7959 30.2016 29.7959 30.824V30.866C29.7959 31.4168 30.0734 31.9224 30.5384 32.2198C30.7969 32.3845 31.0956 32.4716 31.4022 32.4716C31.6369 32.4716 31.8641 32.4215 32.0792 32.3222L40.3413 28.4799C40.9054 28.2168 41.2696 27.6455 41.2696 27.0243V26.9094C41.2692 26.2873 40.9047 25.7157 40.3402 25.4531Z" fill="#19478B"/>
</svg>
